<svg width="88" height="91" viewBox="0 0 88 91" fill="none" xmlns="http://www.w3.org/2000/svg">
<g style="mix-blend-mode:multiply" opacity="0.5">
<path opacity="0.01" d="M47.8548 90.7088C26.1569 90.7088 8.49367 73.0526 8.49367 51.3632C8.49367 29.6739 26.1569 12.0177 47.8548 12.0177C69.5528 12.0177 87.216 29.6739 87.216 51.3632C87.216 73.0526 69.5528 90.7088 47.8548 90.7088Z" fill="#FDFDFD"/>
<path opacity="0.02" d="M47.795 90.6191C26.0971 90.6191 8.43388 72.9629 8.43388 51.2736C8.43388 29.5843 26.0971 11.9281 47.795 11.9281C69.493 11.9281 87.1562 29.5843 87.1562 51.2736C87.1562 72.9629 69.493 90.6191 47.795 90.6191Z" fill="#FCFCFC"/>
<path opacity="0.03" d="M47.7353 90.5594C26.0373 90.5594 8.37411 72.9032 8.37411 51.2139C8.37411 29.5245 26.0373 11.8683 47.7353 11.8683C69.4332 11.8683 87.0964 29.5245 87.0964 51.2139C87.0964 72.9032 69.4332 90.5594 47.7353 90.5594Z" fill="#FBFBFB"/>
<path opacity="0.03" d="M47.6755 90.4996C25.9775 90.4996 8.31435 72.8434 8.31435 51.1541C8.31435 29.4648 25.9775 11.8086 47.6755 11.8086C69.3734 11.8086 87.0366 29.4648 87.0366 51.1541C87.0366 72.8434 69.3734 90.4996 47.6755 90.4996Z" fill="#FAFAFA"/>
<path opacity="0.04" d="M47.6456 90.41C25.9476 90.41 8.28445 72.7538 8.28445 51.0645C8.28445 29.3751 25.9476 11.7189 47.6456 11.7189C69.3435 11.7189 87.0067 29.3751 87.0067 51.0645C87.0067 72.7538 69.3435 90.41 47.6456 90.41Z" fill="#F9F9F9"/>
<path opacity="0.05" d="M47.5858 90.3503C25.8879 90.3503 8.22469 72.6941 8.22469 51.0047C8.22469 29.3154 25.8879 11.6592 47.5858 11.6592C69.2838 11.6592 86.947 29.3154 86.947 51.0047C86.947 72.6941 69.2838 90.3503 47.5858 90.3503Z" fill="#F8F8F8"/>
<path opacity="0.05" d="M47.5261 90.2905C25.8281 90.2905 8.1649 72.6343 8.1649 50.945C8.1649 29.2556 25.8281 11.5994 47.5261 11.5994C69.224 11.5994 86.8872 29.2556 86.8872 50.945C86.8872 72.6343 69.224 90.2905 47.5261 90.2905Z" fill="#F7F7F7"/>
<path opacity="0.06" d="M47.4962 90.2009C25.7982 90.2009 8.13503 72.5447 8.13503 50.8553C8.13503 29.166 25.7982 11.5098 47.4962 11.5098C69.1941 11.5098 86.8573 29.166 86.8573 50.8553C86.8573 72.5447 69.1941 90.2009 47.4962 90.2009Z" fill="#F6F6F6"/>
<path opacity="0.07" d="M47.4364 90.1411C25.7384 90.1411 8.07524 72.4849 8.07524 50.7956C8.07524 29.1062 25.7384 11.45 47.4364 11.45C69.1343 11.45 86.7975 29.1062 86.7975 50.7956C86.7975 72.4849 69.1343 90.1411 47.4364 90.1411Z" fill="#F5F5F5"/>
<path opacity="0.07" d="M47.3766 90.0515C25.6787 90.0515 8.01547 72.3953 8.01547 50.706C8.01547 29.0166 25.6787 11.3604 47.3766 11.3604C69.0746 11.3604 86.7378 29.0166 86.7378 50.706C86.7378 72.3953 69.0746 90.0515 47.3766 90.0515Z" fill="#F4F4F4"/>
<path opacity="0.08" d="M47.3169 89.9917C25.6189 89.9917 7.9557 72.3356 7.9557 50.6462C7.9557 28.9569 25.6189 11.3007 47.3169 11.3007C69.0148 11.3007 86.678 28.9569 86.678 50.6462C86.678 72.3356 69.0148 89.9917 47.3169 89.9917Z" fill="#F3F3F3"/>
<path opacity="0.08" d="M47.287 89.932C25.589 89.932 7.92581 72.2758 7.92581 50.5865C7.92581 28.8971 25.589 11.2409 47.287 11.2409C68.9849 11.2409 86.6481 28.8971 86.6481 50.5865C86.6481 72.2758 68.9849 89.932 47.287 89.932Z" fill="#F2F2F2"/>
<path opacity="0.09" d="M47.2272 89.8424C25.5292 89.8424 7.86604 72.1862 7.86604 50.4968C7.86604 28.8075 25.5292 11.1513 47.2272 11.1513C68.9251 11.1513 86.5883 28.8075 86.5883 50.4968C86.5883 72.1862 68.9251 89.8424 47.2272 89.8424Z" fill="#F1F1F1"/>
<path opacity="0.1" d="M47.1674 89.7826C25.4695 89.7826 7.80626 72.1264 7.80626 50.4371C7.80626 28.7477 25.4695 11.0916 47.1674 11.0916C68.8653 11.0916 86.5285 28.7477 86.5285 50.4371C86.5285 72.1264 68.8653 89.7826 47.1674 89.7826Z" fill="#F0F0F0"/>
<path opacity="0.1" d="M47.1076 89.7229C25.4097 89.7229 7.74649 72.0667 7.74649 50.3773C7.74649 28.688 25.4097 11.0318 47.1076 11.0318C68.8056 11.0318 86.4688 28.688 86.4688 50.3773C86.4688 72.0667 68.8056 89.7229 47.1076 89.7229Z" fill="#EFEFEF"/>
<path opacity="0.11" d="M47.0777 89.6332C25.3798 89.6332 7.7166 71.977 7.7166 50.2877C7.7166 28.5984 25.3798 10.9422 47.0777 10.9422C68.7757 10.9422 86.4389 28.5984 86.4389 50.2877C86.4389 71.977 68.7757 89.6332 47.0777 89.6332Z" fill="#EEEEEE"/>
<path opacity="0.12" d="M47.018 89.5735C25.32 89.5735 7.65683 71.9173 7.65683 50.228C7.65683 28.5386 25.32 10.8824 47.018 10.8824C68.7159 10.8824 86.3791 28.5386 86.3791 50.228C86.3791 71.9173 68.7159 89.5735 47.018 89.5735Z" fill="#EDEDED"/>
<path opacity="0.12" d="M46.9582 89.5138C25.2603 89.5138 7.59706 71.8576 7.59706 50.1682C7.59706 28.4789 25.2603 10.8227 46.9582 10.8227C68.6561 10.8227 86.3194 28.4789 86.3194 50.1682C86.3194 71.8576 68.6561 89.5138 46.9582 89.5138Z" fill="#ECECEC"/>
<path opacity="0.13" d="M46.9283 89.4241C25.2304 89.4241 7.56717 71.7679 7.56717 50.0786C7.56717 28.3893 25.2304 10.7331 46.9283 10.7331C68.6263 10.7331 86.2895 28.3893 86.2895 50.0786C86.2895 71.7679 68.6263 89.4241 46.9283 89.4241Z" fill="#EBEBEB"/>
<path opacity="0.14" d="M46.8685 89.3644C25.1706 89.3644 7.5074 71.7082 7.5074 50.0188C7.5074 28.3295 25.1706 10.6733 46.8685 10.6733C68.5665 10.6733 86.2297 28.3295 86.2297 50.0188C86.2297 71.7082 68.5665 89.3644 46.8685 89.3644Z" fill="#EAEAEA"/>
<path opacity="0.14" d="M46.8088 89.3046C25.1108 89.3046 7.44762 71.6484 7.44762 49.9591C7.44762 28.2698 25.1108 10.6136 46.8088 10.6136C68.5067 10.6136 86.1699 28.2698 86.1699 49.9591C86.1699 71.6484 68.5067 89.3046 46.8088 89.3046Z" fill="#E9E9E9"/>
<path opacity="0.15" d="M46.749 89.215C25.051 89.215 7.38785 71.5588 7.38785 49.8695C7.38785 28.1801 25.051 10.5239 46.749 10.5239C68.4469 10.5239 86.1101 28.1801 86.1101 49.8695C86.1101 71.5588 68.4469 89.215 46.749 89.215Z" fill="#E8E8E8"/>
<path opacity="0.16" d="M46.7191 89.1552C25.0212 89.1552 7.35796 71.499 7.35796 49.8097C7.35796 28.1204 25.0212 10.4642 46.7191 10.4642C68.417 10.4642 86.0802 28.1204 86.0802 49.8097C86.0802 71.499 68.417 89.1552 46.7191 89.1552Z" fill="#E7E7E7"/>
<path opacity="0.16" d="M46.6593 89.0955C24.9614 89.0955 7.29819 71.4393 7.29819 49.75C7.29819 28.0606 24.9614 10.4044 46.6593 10.4044C68.3573 10.4044 86.0205 28.0606 86.0205 49.75C86.0205 71.4393 68.3573 89.0955 46.6593 89.0955Z" fill="#E6E6E6"/>
<path opacity="0.17" d="M46.5995 89.0059C24.9016 89.0059 7.2384 71.3497 7.2384 49.6603C7.2384 27.971 24.9016 10.3148 46.5995 10.3148C68.2975 10.3148 85.9607 27.971 85.9607 49.6603C85.9607 71.3497 68.2975 89.0059 46.5995 89.0059Z" fill="#E5E5E5"/>
<path opacity="0.18" d="M46.5398 88.9461C24.8418 88.9461 7.17863 71.2899 7.17863 49.6006C7.17863 27.9113 24.8418 10.2551 46.5398 10.2551C68.2377 10.2551 85.9009 27.9113 85.9009 49.6006C85.9009 71.2899 68.2377 88.9461 46.5398 88.9461Z" fill="#E4E4E4"/>
<path opacity="0.18" d="M46.5099 88.8864C24.8119 88.8864 7.14874 71.2302 7.14874 49.5409C7.14874 27.8515 24.8119 10.1953 46.5099 10.1953C68.2078 10.1953 85.871 27.8515 85.871 49.5409C85.871 71.2302 68.2078 88.8864 46.5099 88.8864Z" fill="#E3E3E3"/>
<path opacity="0.19" d="M46.4501 88.7968C24.7522 88.7968 7.08897 71.1405 7.08897 49.4512C7.08897 27.7619 24.7522 10.1057 46.4501 10.1057C68.1481 10.1057 85.8113 27.7619 85.8113 49.4512C85.8113 71.1405 68.1481 88.7968 46.4501 88.7968Z" fill="#E2E2E2"/>
<path opacity="0.2" d="M46.3904 88.737C24.6924 88.737 7.02921 71.0808 7.02921 49.3915C7.02921 27.7021 24.6924 10.0459 46.3904 10.0459C68.0883 10.0459 85.7515 27.7021 85.7515 49.3915C85.7515 71.0808 68.0883 88.737 46.3904 88.737Z" fill="#E1E1E1"/>
<path opacity="0.2" d="M46.3605 88.6772C24.6625 88.6772 6.99931 71.0211 6.99931 49.3317C6.99931 27.6424 24.6625 9.98618 46.3605 9.98618C68.0584 9.98618 85.7216 27.6424 85.7216 49.3317C85.7216 71.0211 68.0584 88.6772 46.3605 88.6772Z" fill="#E0E0E0"/>
<path opacity="0.21" d="M46.3007 88.5876C24.6028 88.5876 6.93954 70.9314 6.93954 49.2421C6.93954 27.5527 24.6028 9.89655 46.3007 9.89655C67.9986 9.89655 85.6618 27.5527 85.6618 49.2421C85.6618 70.9314 67.9986 88.5876 46.3007 88.5876Z" fill="#DFDFDF"/>
<path opacity="0.22" d="M46.2409 88.5279C24.543 88.5279 6.87978 70.8717 6.87978 49.1823C6.87978 27.493 24.543 9.83679 46.2409 9.83679C67.9389 9.83679 85.6021 27.493 85.6021 49.1823C85.6021 70.8717 67.9389 88.5279 46.2409 88.5279Z" fill="#DEDEDE"/>
<path opacity="0.22" d="M46.1811 88.4681C24.4832 88.4681 6.81999 70.8119 6.81999 49.1226C6.81999 27.4333 24.4832 9.77707 46.1811 9.77707C67.8791 9.77707 85.5423 27.4333 85.5423 49.1226C85.5423 70.8119 67.8791 88.4681 46.1811 88.4681Z" fill="#DDDDDD"/>
<path opacity="0.23" d="M46.1512 88.3785C24.4533 88.3785 6.7901 70.7223 6.7901 49.0329C6.7901 27.3436 24.4533 9.68741 46.1512 9.68741C67.8492 9.68741 85.5124 27.3436 85.5124 49.0329C85.5124 70.7223 67.8492 88.3785 46.1512 88.3785Z" fill="#DCDCDC"/>
<path opacity="0.24" d="M46.0915 88.3188C24.3935 88.3188 6.73033 70.6626 6.73033 48.9732C6.73033 27.2839 24.3935 9.62769 46.0915 9.62769C67.7894 9.62769 85.4526 27.2839 85.4526 48.9732C85.4526 70.6626 67.7894 88.3188 46.0915 88.3188Z" fill="#DBDBDB"/>
<path opacity="0.24" d="M46.0317 88.259C24.3338 88.259 6.67056 70.6028 6.67056 48.9135C6.67056 27.2241 24.3338 9.56793 46.0317 9.56793C67.7297 9.56793 85.3929 27.2241 85.3929 48.9135C85.3929 70.6028 67.7297 88.259 46.0317 88.259Z" fill="#DADADA"/>
<path opacity="0.25" d="M46.0018 88.1694C24.3039 88.1694 6.64067 70.5132 6.64067 48.8238C6.64067 27.1345 24.3039 9.4783 46.0018 9.4783C67.6998 9.4783 85.363 27.1345 85.363 48.8238C85.363 70.5132 67.6998 88.1694 46.0018 88.1694Z" fill="#D9D9D9"/>
<path opacity="0.25" d="M45.942 88.1096C24.2441 88.1096 6.5809 70.4534 6.5809 48.7641C6.5809 27.0748 24.2441 9.41855 45.942 9.41855C67.64 9.41855 85.3032 27.0748 85.3032 48.7641C85.3032 70.4534 67.64 88.1096 45.942 88.1096Z" fill="#D8D8D8"/>
<path opacity="0.26" d="M45.8823 88.02C24.1843 88.02 6.52112 70.3638 6.52112 48.6745C6.52112 26.9851 24.1843 9.32892 45.8823 9.32892C67.5802 9.32892 85.2434 26.9851 85.2434 48.6745C85.2434 70.3638 67.5802 88.02 45.8823 88.02Z" fill="#D7D7D7"/>
<path opacity="0.27" d="M45.8225 87.9602C24.1246 87.9602 6.46135 70.304 6.46135 48.6147C6.46135 26.9254 24.1246 9.26917 45.8225 9.26917C67.5204 9.26917 85.1836 26.9254 85.1836 48.6147C85.1836 70.304 67.5204 87.9602 45.8225 87.9602Z" fill="#D6D6D6"/>
<path opacity="0.27" d="M45.7926 87.9005C24.0947 87.9005 6.43146 70.2443 6.43146 48.555C6.43146 26.8656 24.0947 9.20941 45.7926 9.20941C67.4905 9.20941 85.1538 26.8656 85.1538 48.555C85.1538 70.2443 67.4905 87.9005 45.7926 87.9005Z" fill="#D5D5D5"/>
<path opacity="0.28" d="M45.7328 87.8109C24.0349 87.8109 6.37169 70.1547 6.37169 48.4654C6.37169 26.776 24.0349 9.11981 45.7328 9.11981C67.4308 9.11981 85.094 26.776 85.094 48.4654C85.094 70.1547 67.4308 87.8109 45.7328 87.8109Z" fill="#D4D4D4"/>
<path opacity="0.29" d="M45.6731 87.7511C23.9751 87.7511 6.31192 70.0949 6.31192 48.4056C6.31192 26.7162 23.9751 9.06006 45.6731 9.06006C67.371 9.06006 85.0342 26.7162 85.0342 48.4056C85.0342 70.0949 67.371 87.7511 45.6731 87.7511Z" fill="#D3D3D3"/>
<path opacity="0.29" d="M45.6133 87.6914C23.9153 87.6914 6.25214 70.0352 6.25214 48.3458C6.25214 26.6565 23.9153 9.00031 45.6133 9.00031C67.3112 9.00031 84.9744 26.6565 84.9744 48.3458C84.9744 70.0352 67.3112 87.6914 45.6133 87.6914Z" fill="#D2D2D2"/>
<path opacity="0.3" d="M45.5834 87.6017C23.8855 87.6017 6.22226 69.9456 6.22226 48.2562C6.22226 26.5669 23.8855 8.91068 45.5834 8.91068C67.2813 8.91068 84.9446 26.5669 84.9446 48.2562C84.9446 69.9456 67.2813 87.6017 45.5834 87.6017Z" fill="#D1D1D1"/>
<path opacity="0.31" d="M45.5236 87.542C23.8257 87.542 6.16248 69.8858 6.16248 48.1964C6.16248 26.5071 23.8257 8.85092 45.5236 8.85092C67.2216 8.85092 84.8848 26.5071 84.8848 48.1964C84.8848 69.8858 67.2216 87.542 45.5236 87.542Z" fill="#D0D0D0"/>
<path opacity="0.31" d="M45.4638 87.4822C23.7659 87.4822 6.10271 69.826 6.10271 48.1367C6.10271 26.4474 23.7659 8.79117 45.4638 8.79117C67.1618 8.79117 84.825 26.4474 84.825 48.1367C84.825 69.826 67.1618 87.4822 45.4638 87.4822Z" fill="#CFCFCF"/>
<path opacity="0.32" d="M45.434 87.3926C23.736 87.3926 6.07281 69.7364 6.07281 48.0471C6.07281 26.3577 23.736 8.70154 45.434 8.70154C67.1319 8.70154 84.7951 26.3577 84.7951 48.0471C84.7951 69.7364 67.1319 87.3926 45.434 87.3926Z" fill="#CECECE"/>
<path opacity="0.33" d="M45.3742 87.3328C23.6762 87.3328 6.01305 69.6767 6.01305 47.9873C6.01305 26.298 23.6762 8.64178 45.3742 8.64178C67.0721 8.64178 84.7353 26.298 84.7353 47.9873C84.7353 69.6767 67.0721 87.3328 45.3742 87.3328Z" fill="#CDCDCD"/>
<path opacity="0.33" d="M45.3144 87.2731C23.6165 87.2731 5.95326 69.6169 5.95326 47.9276C5.95326 26.2382 23.6165 8.58203 45.3144 8.58203C67.0124 8.58203 84.6756 26.2382 84.6756 47.9276C84.6756 69.6169 67.0124 87.2731 45.3144 87.2731Z" fill="#CCCCCC"/>
<path opacity="0.34" d="M45.2546 87.1835C23.5567 87.1835 5.89349 69.5273 5.89349 47.838C5.89349 26.1486 23.5567 8.49243 45.2546 8.49243C66.9526 8.49243 84.6158 26.1486 84.6158 47.838C84.6158 69.5273 66.9526 87.1835 45.2546 87.1835Z" fill="#CBCBCB"/>
<path opacity="0.35" d="M45.2248 87.1237C23.5268 87.1237 5.86362 69.4675 5.86362 47.7782C5.86362 26.0889 23.5268 8.43268 45.2248 8.43268C66.9227 8.43268 84.5859 26.0889 84.5859 47.7782C84.5859 69.4675 66.9227 87.1237 45.2248 87.1237Z" fill="#CACACA"/>
<path opacity="0.35" d="M45.165 87.064C23.467 87.064 5.80383 69.4078 5.80383 47.7185C5.80383 26.0291 23.467 8.37292 45.165 8.37292C66.8629 8.37292 84.5261 26.0291 84.5261 47.7185C84.5261 69.4078 66.8629 87.064 45.165 87.064Z" fill="#C9C9C9"/>
<path opacity="0.36" d="M45.1052 86.9744C23.4073 86.9744 5.74406 69.3182 5.74406 47.6288C5.74406 25.9395 23.4073 8.28329 45.1052 8.28329C66.8032 8.28329 84.4664 25.9395 84.4664 47.6288C84.4664 69.3182 66.8032 86.9744 45.1052 86.9744Z" fill="#C8C8C8"/>
<path opacity="0.37" d="M45.0454 86.9146C23.3475 86.9146 5.68428 69.2584 5.68428 47.5691C5.68428 25.8797 23.3475 8.22354 45.0454 8.22354C66.7434 8.22354 84.4066 25.8797 84.4066 47.5691C84.4066 69.2584 66.7434 86.9146 45.0454 86.9146Z" fill="#C7C7C7"/>
<path opacity="0.37" d="M45.0156 86.8549C23.3176 86.8549 5.6544 69.1987 5.6544 47.5093C5.6544 25.82 23.3176 8.16379 45.0156 8.16379C66.7135 8.16379 84.3767 25.82 84.3767 47.5093C84.3767 69.1987 66.7135 86.8549 45.0156 86.8549Z" fill="#C6C6C6"/>
<path opacity="0.38" d="M44.9558 86.7652C23.2578 86.7652 5.59464 69.109 5.59464 47.4197C5.59464 25.7303 23.2578 8.07416 44.9558 8.07416C66.6537 8.07416 84.3169 25.7303 84.3169 47.4197C84.3169 69.109 66.6537 86.7652 44.9558 86.7652Z" fill="#C5C5C5"/>
<path opacity="0.39" d="M44.896 86.7055C23.1981 86.7055 5.53485 69.0493 5.53485 47.36C5.53485 25.6706 23.1981 8.01443 44.896 8.01443C66.5939 8.01443 84.2571 25.6706 84.2571 47.36C84.2571 69.0493 66.5939 86.7055 44.896 86.7055Z" fill="#C4C4C4"/>
<path opacity="0.39" d="M44.8661 86.6458C23.1682 86.6458 5.50496 68.9896 5.50496 47.3002C5.50496 25.6109 23.1682 7.95468 44.8661 7.95468C66.5641 7.95468 84.2272 25.6109 84.2272 47.3002C84.2272 68.9896 66.5641 86.6458 44.8661 86.6458Z" fill="#C3C3C3"/>
<path opacity="0.4" d="M44.8063 86.5561C23.1084 86.5561 5.44519 68.8999 5.44519 47.2106C5.44519 25.5212 23.1084 7.86505 44.8063 7.86505C66.5043 7.86505 84.1675 25.5212 84.1675 47.2106C84.1675 68.8999 66.5043 86.5561 44.8063 86.5561Z" fill="#C2C2C2"/>
<path opacity="0.41" d="M44.7466 86.4964C23.0486 86.4964 5.38542 68.8402 5.38542 47.1508C5.38542 25.4615 23.0486 7.8053 44.7466 7.8053C66.4445 7.8053 84.1077 25.4615 84.1077 47.1508C84.1077 68.8402 66.4445 86.4964 44.7466 86.4964Z" fill="#C1C1C1"/>
<path opacity="0.41" d="M44.6868 86.4366C22.9889 86.4366 5.32565 68.7804 5.32565 47.0911C5.32565 25.4017 22.9889 7.74554 44.6868 7.74554C66.3847 7.74554 84.0479 25.4017 84.0479 47.0911C84.0479 68.7804 66.3847 86.4366 44.6868 86.4366Z" fill="#C0C0C0"/>
<path opacity="0.42" d="M44.6569 86.347C22.959 86.347 5.29576 68.6908 5.29576 47.0014C5.29576 25.3121 22.959 7.65591 44.6569 7.65591C66.3548 7.65591 84.0181 25.3121 84.0181 47.0014C84.0181 68.6908 66.3548 86.347 44.6569 86.347Z" fill="#BFBFBF"/>
<path opacity="0.42" d="M44.5971 86.2872C22.8992 86.2872 5.23598 68.631 5.23598 46.9417C5.23598 25.2524 22.8992 7.59616 44.5971 7.59616C66.2951 7.59616 83.9583 25.2524 83.9583 46.9417C83.9583 68.631 66.2951 86.2872 44.5971 86.2872Z" fill="#BEBEBE"/>
<path opacity="0.43" d="M44.5374 86.2275C22.8394 86.2275 5.17621 68.5713 5.17621 46.8819C5.17621 25.1926 22.8394 7.53641 44.5374 7.53641C66.2353 7.53641 83.8985 25.1926 83.8985 46.8819C83.8985 68.5713 66.2353 86.2275 44.5374 86.2275Z" fill="#BDBDBD"/>
<path opacity="0.44" d="M44.5075 86.1379C22.8095 86.1379 5.14633 68.4816 5.14633 46.7923C5.14633 25.103 22.8095 7.44678 44.5075 7.44678C66.2054 7.44678 83.8686 25.103 83.8686 46.7923C83.8686 68.4816 66.2054 86.1379 44.5075 86.1379Z" fill="#BCBCBC"/>
<path opacity="0.44" d="M44.4477 86.0781C22.7497 86.0781 5.08655 68.4219 5.08655 46.7326C5.08655 25.0432 22.7497 7.38702 44.4477 7.38702C66.1456 7.38702 83.8088 25.0432 83.8088 46.7326C83.8088 68.4219 66.1456 86.0781 44.4477 86.0781Z" fill="#BBBBBB"/>
<path opacity="0.45" d="M44.3879 86.0183C22.69 86.0183 5.02678 68.3621 5.02678 46.6728C5.02678 24.9835 22.69 7.32727 44.3879 7.32727C66.0859 7.32727 83.7491 24.9835 83.7491 46.6728C83.7491 68.3621 66.0859 86.0183 44.3879 86.0183Z" fill="#BABABA"/>
<path opacity="0.46" d="M44.3281 85.9287C22.6302 85.9287 4.967 68.2725 4.967 46.5832C4.967 24.8939 22.6302 7.23767 44.3281 7.23767C66.0261 7.23767 83.6893 24.8939 83.6893 46.5832C83.6893 68.2725 66.0261 85.9287 44.3281 85.9287Z" fill="#B9B9B9"/>
<path opacity="0.46" d="M44.2983 85.869C22.6003 85.869 4.93712 68.2128 4.93712 46.5235C4.93712 24.8341 22.6003 7.17792 44.2983 7.17792C65.9962 7.17792 83.6594 24.8341 83.6594 46.5235C83.6594 68.2128 65.9962 85.869 44.2983 85.869Z" fill="#B8B8B8"/>
<path opacity="0.47" d="M44.2385 85.7794C22.5405 85.7794 4.87735 68.1232 4.87735 46.4338C4.87735 24.7445 22.5405 7.08829 44.2385 7.08829C65.9364 7.08829 83.5996 24.7445 83.5996 46.4338C83.5996 68.1232 65.9364 85.7794 44.2385 85.7794Z" fill="#B7B7B7"/>
<path opacity="0.48" d="M44.1787 85.7196C22.4808 85.7196 4.81757 68.0634 4.81757 46.3741C4.81757 24.6847 22.4808 7.02853 44.1787 7.02853C65.8766 7.02853 83.5399 24.6847 83.5399 46.3741C83.5399 68.0634 65.8766 85.7196 44.1787 85.7196Z" fill="#B6B6B6"/>
<path opacity="0.48" d="M44.1189 85.6599C22.421 85.6599 4.7578 68.0037 4.7578 46.3143C4.7578 24.625 22.421 6.96878 44.1189 6.96878C65.8169 6.96878 83.4801 24.625 83.4801 46.3143C83.4801 68.0037 65.8169 85.6599 44.1189 85.6599Z" fill="#B5B5B5"/>
<path opacity="0.49" d="M44.0891 85.5702C22.3911 85.5702 4.72791 67.914 4.72791 46.2247C4.72791 24.5354 22.3911 6.87915 44.0891 6.87915C65.787 6.87915 83.4502 24.5354 83.4502 46.2247C83.4502 67.914 65.787 85.5702 44.0891 85.5702Z" fill="#B4B4B4"/>
<path opacity="0.5" d="M44.0293 85.5105C22.3313 85.5105 4.66812 67.8543 4.66812 46.165C4.66812 24.4756 22.3313 6.81943 44.0293 6.81943C65.7272 6.81943 83.3904 24.4756 83.3904 46.165C83.3904 67.8543 65.7272 85.5105 44.0293 85.5105Z" fill="#B3B3B3"/>
<path opacity="0.5" d="M43.9695 85.4507C22.2715 85.4507 4.60835 67.7946 4.60835 46.1052C4.60835 24.4159 22.2715 6.75967 43.9695 6.75967C65.6674 6.75967 83.3306 24.4159 83.3306 46.1052C83.3306 67.7946 65.6674 85.4507 43.9695 85.4507Z" fill="#B2B2B2"/>
<path opacity="0.51" d="M43.9396 85.3611C22.2417 85.3611 4.57848 67.7049 4.57848 46.0156C4.57848 24.3262 22.2417 6.67004 43.9396 6.67004C65.6376 6.67004 83.3008 24.3262 83.3008 46.0156C83.3008 67.7049 65.6376 85.3611 43.9396 85.3611Z" fill="#B1B1B1"/>
<path opacity="0.52" d="M43.8798 85.3013C22.1819 85.3013 4.51869 67.6452 4.51869 45.9558C4.51869 24.2665 22.1819 6.61029 43.8798 6.61029C65.5778 6.61029 83.241 24.2665 83.241 45.9558C83.241 67.6452 65.5778 85.3013 43.8798 85.3013Z" fill="#B0B0B0"/>
<path opacity="0.52" d="M43.8201 85.2416C22.1221 85.2416 4.45892 67.5854 4.45892 45.8961C4.45892 24.2067 22.1221 6.55054 43.8201 6.55054C65.518 6.55054 83.1812 24.2067 83.1812 45.8961C83.1812 67.5854 65.518 85.2416 43.8201 85.2416Z" fill="#AFAFAF"/>
<path opacity="0.53" d="M43.7603 85.152C22.0623 85.152 4.39915 67.4958 4.39915 45.8064C4.39915 24.1171 22.0623 6.46091 43.7603 6.46091C65.4582 6.46091 83.1214 24.1171 83.1214 45.8064C83.1214 67.4958 65.4582 85.152 43.7603 85.152Z" fill="#AEAEAE"/>
<path opacity="0.54" d="M43.7304 85.0922C22.0325 85.0922 4.36926 67.436 4.36926 45.7467C4.36926 24.0573 22.0325 6.40115 43.7304 6.40115C65.4284 6.40115 83.0916 24.0573 83.0916 45.7467C83.0916 67.436 65.4284 85.0922 43.7304 85.0922Z" fill="#ADADAD"/>
<path opacity="0.54" d="M43.6706 85.0325C21.9727 85.0325 4.30949 67.3763 4.30949 45.6869C4.30949 23.9976 21.9727 6.3414 43.6706 6.3414C65.3686 6.3414 83.0318 23.9976 83.0318 45.6869C83.0318 67.3763 65.3686 85.0325 43.6706 85.0325Z" fill="#ACACAC"/>
<path opacity="0.55" d="M43.6109 84.9429C21.9129 84.9429 4.24971 67.2867 4.24971 45.5973C4.24971 23.908 21.9129 6.2518 43.6109 6.2518C65.3088 6.2518 82.972 23.908 82.972 45.5973C82.972 67.2867 65.3088 84.9429 43.6109 84.9429Z" fill="#ABABAB"/>
<path opacity="0.56" d="M43.5511 84.8831C21.8531 84.8831 4.18994 67.2269 4.18994 45.5376C4.18994 23.8482 21.8531 6.19205 43.5511 6.19205C65.249 6.19205 82.9122 23.8482 82.9122 45.5376C82.9122 67.2269 65.249 84.8831 43.5511 84.8831Z" fill="#AAAAAA"/>
<path opacity="0.56" d="M43.5212 84.8234C21.8233 84.8234 4.16005 67.1672 4.16005 45.4778C4.16005 23.7885 21.8233 6.13229 43.5212 6.13229C65.2191 6.13229 82.8823 23.7885 82.8823 45.4778C82.8823 67.1672 65.2191 84.8234 43.5212 84.8234Z" fill="#A9A9A9"/>
<path opacity="0.57" d="M43.4614 84.7337C21.7635 84.7337 4.10028 67.0775 4.10028 45.3882C4.10028 23.6989 21.7635 6.04266 43.4614 6.04266C65.1594 6.04266 82.8226 23.6989 82.8226 45.3882C82.8226 67.0775 65.1594 84.7337 43.4614 84.7337Z" fill="#A8A8A8"/>
<path opacity="0.58" d="M43.4017 84.674C21.7037 84.674 4.04051 67.0178 4.04051 45.3284C4.04051 23.6391 21.7037 5.98291 43.4017 5.98291C65.0996 5.98291 82.7628 23.6391 82.7628 45.3284C82.7628 67.0178 65.0996 84.674 43.4017 84.674Z" fill="#A7A7A7"/>
<path opacity="0.58" d="M43.3718 84.6142C21.6738 84.6142 4.01062 66.958 4.01062 45.2687C4.01062 23.5794 21.6738 5.92316 43.3718 5.92316C65.0697 5.92316 82.7329 23.5794 82.7329 45.2687C82.7329 66.958 65.0697 84.6142 43.3718 84.6142Z" fill="#A6A6A6"/>
<path opacity="0.59" d="M43.312 84.5246C21.614 84.5246 3.95084 66.8684 3.95084 45.1791C3.95084 23.4897 21.614 5.83353 43.312 5.83353C65.0099 5.83353 82.6731 23.4897 82.6731 45.1791C82.6731 66.8684 65.0099 84.5246 43.312 84.5246Z" fill="#A5A5A5"/>
<path opacity="0.59" d="M43.2522 84.4649C21.5543 84.4649 3.89107 66.8087 3.89107 45.1193C3.89107 23.43 21.5543 5.7738 43.2522 5.7738C64.9502 5.7738 82.6134 23.43 82.6134 45.1193C82.6134 66.8087 64.9502 84.4649 43.2522 84.4649Z" fill="#A4A4A4"/>
<path opacity="0.6" d="M43.1924 84.4051C21.4945 84.4051 3.8313 66.7489 3.8313 45.0596C3.8313 23.3703 21.4945 5.71405 43.1924 5.71405C64.8904 5.71405 82.5536 23.3703 82.5536 45.0596C82.5536 66.7489 64.8904 84.4051 43.1924 84.4051Z" fill="#A3A3A3"/>
<path opacity="0.61" d="M43.1625 84.3155C21.4646 84.3155 3.80141 66.6593 3.80141 44.9699C3.80141 23.2806 21.4646 5.62439 43.1625 5.62439C64.8605 5.62439 82.5237 23.2806 82.5237 44.9699C82.5237 66.6593 64.8605 84.3155 43.1625 84.3155Z" fill="#A2A2A2"/>
<path opacity="0.61" d="M43.1028 84.2557C21.4048 84.2557 3.74164 66.5995 3.74164 44.9102C3.74164 23.2209 21.4048 5.56467 43.1028 5.56467C64.8007 5.56467 82.4639 23.2209 82.4639 44.9102C82.4639 66.5995 64.8007 84.2557 43.1028 84.2557Z" fill="#A1A1A1"/>
<path opacity="0.62" d="M43.043 84.196C21.3451 84.196 3.68185 66.5398 3.68185 44.8505C3.68185 23.1611 21.3451 5.50491 43.043 5.50491C64.7409 5.50491 82.4041 23.1611 82.4041 44.8505C82.4041 66.5398 64.7409 84.196 43.043 84.196Z" fill="#A0A0A0"/>
<path opacity="0.63" d="M43.0131 84.1064C21.3152 84.1064 3.65198 66.4501 3.65198 44.7608C3.65198 23.0715 21.3152 5.41528 43.0131 5.41528C64.7111 5.41528 82.3743 23.0715 82.3743 44.7608C82.3743 66.4501 64.7111 84.1064 43.0131 84.1064Z" fill="#9F9F9F"/>
<path opacity="0.63" d="M42.9533 84.0466C21.2554 84.0466 3.59219 66.3904 3.59219 44.7011C3.59219 23.0117 21.2554 5.35553 42.9533 5.35553C64.6513 5.35553 82.3145 23.0117 82.3145 44.7011C82.3145 66.3904 64.6513 84.0466 42.9533 84.0466Z" fill="#9E9E9E"/>
<path opacity="0.64" d="M42.8936 83.9868C21.1956 83.9868 3.53242 66.3307 3.53242 44.6413C3.53242 22.952 21.1956 5.29578 42.8936 5.29578C64.5915 5.29578 82.2547 22.952 82.2547 44.6413C82.2547 66.3307 64.5915 83.9868 42.8936 83.9868Z" fill="#9D9D9D"/>
<path opacity="0.65" d="M42.8338 83.8972C21.1359 83.8972 3.47266 66.241 3.47266 44.5517C3.47266 22.8623 21.1359 5.20615 42.8338 5.20615C64.5317 5.20615 82.1949 22.8623 82.1949 44.5517C82.1949 66.241 64.5317 83.8972 42.8338 83.8972Z" fill="#9C9C9C"/>
<path opacity="0.65" d="M42.8039 83.8375C21.106 83.8375 3.44276 66.1813 3.44276 44.4919C3.44276 22.8026 21.106 5.14639 42.8039 5.14639C64.5019 5.14639 82.1651 22.8026 82.1651 44.4919C82.1651 66.1813 64.5019 83.8375 42.8039 83.8375Z" fill="#9B9B9B"/>
<path opacity="0.66" d="M42.7441 83.7777C21.0462 83.7777 3.383 66.1215 3.383 44.4322C3.383 22.7428 21.0462 5.08664 42.7441 5.08664C64.4421 5.08664 82.1053 22.7428 82.1053 44.4322C82.1053 66.1215 64.4421 83.7777 42.7441 83.7777Z" fill="#9A9A9A"/>
<path opacity="0.67" d="M42.6843 83.6881C20.9864 83.6881 3.32321 66.0319 3.32321 44.3426C3.32321 22.6532 20.9864 4.99704 42.6843 4.99704C64.3823 4.99704 82.0455 22.6532 82.0455 44.3426C82.0455 66.0319 64.3823 83.6881 42.6843 83.6881Z" fill="#999999"/>
<path opacity="0.67" d="M42.6246 83.6284C20.9266 83.6284 3.26344 65.9722 3.26344 44.2828C3.26344 22.5935 20.9266 4.93729 42.6246 4.93729C64.3225 4.93729 81.9857 22.5935 81.9857 44.2828C81.9857 65.9722 64.3225 83.6284 42.6246 83.6284Z" fill="#989898"/>
<path opacity="0.68" d="M42.5947 83.5387C20.8968 83.5387 3.23355 65.8825 3.23355 44.1932C3.23355 22.5039 20.8968 4.84766 42.5947 4.84766C64.2926 4.84766 81.9558 22.5039 81.9558 44.1932C81.9558 65.8825 64.2926 83.5387 42.5947 83.5387Z" fill="#979797"/>
<path opacity="0.69" d="M42.5349 83.479C20.837 83.479 3.17378 65.8228 3.17378 44.1334C3.17378 22.4441 20.837 4.7879 42.5349 4.7879C64.2329 4.7879 81.8961 22.4441 81.8961 44.1334C81.8961 65.8228 64.2329 83.479 42.5349 83.479Z" fill="#969696"/>
<path opacity="0.69" d="M42.4752 83.4192C20.7772 83.4192 3.11401 65.763 3.11401 44.0737C3.11401 22.3844 20.7772 4.72815 42.4752 4.72815C64.1731 4.72815 81.8363 22.3844 81.8363 44.0737C81.8363 65.763 64.1731 83.4192 42.4752 83.4192Z" fill="#959595"/>
<path opacity="0.7" d="M42.4453 83.3296C20.7473 83.3296 3.08412 65.6734 3.08412 43.9841C3.08412 22.2947 20.7473 4.63852 42.4453 4.63852C64.1432 4.63852 81.8064 22.2947 81.8064 43.9841C81.8064 65.6734 64.1432 83.3296 42.4453 83.3296Z" fill="#949494"/>
<path opacity="0.71" d="M42.3855 83.2698C20.6876 83.2698 3.02435 65.6136 3.02435 43.9243C3.02435 22.235 20.6876 4.57877 42.3855 4.57877C64.0834 4.57877 81.7466 22.235 81.7466 43.9243C81.7466 65.6136 64.0834 83.2698 42.3855 83.2698Z" fill="#939393"/>
<path opacity="0.71" d="M42.3257 83.2101C20.6278 83.2101 2.96457 65.5539 2.96457 43.8646C2.96457 22.1752 20.6278 4.51904 42.3257 4.51904C64.0237 4.51904 81.6869 22.1752 81.6869 43.8646C81.6869 65.5539 64.0237 83.2101 42.3257 83.2101Z" fill="#929292"/>
<path opacity="0.72" d="M42.2659 83.1205C20.568 83.1205 2.9048 65.4643 2.9048 43.775C2.9048 22.0856 20.568 4.42941 42.2659 4.42941C63.9639 4.42941 81.6271 22.0856 81.6271 43.775C81.6271 65.4643 63.9639 83.1205 42.2659 83.1205Z" fill="#919191"/>
<path opacity="0.73" d="M42.2361 83.0607C20.5381 83.0607 2.87492 65.4045 2.87492 43.7152C2.87492 22.0259 20.5381 4.36966 42.2361 4.36966C63.934 4.36966 81.5972 22.0259 81.5972 43.7152C81.5972 65.4045 63.934 83.0607 42.2361 83.0607Z" fill="#909090"/>
<path opacity="0.73" d="M42.1763 83.001C20.4783 83.001 2.81514 65.3448 2.81514 43.6554C2.81514 21.9661 20.4783 4.30991 42.1763 4.30991C63.8742 4.30991 81.5374 21.9661 81.5374 43.6554C81.5374 65.3448 63.8742 83.001 42.1763 83.001Z" fill="#8F8F8F"/>
<path opacity="0.74" d="M42.1165 82.9113C20.4186 82.9113 2.75536 65.2552 2.75536 43.5658C2.75536 21.8765 20.4186 4.22028 42.1165 4.22028C63.8145 4.22028 81.4777 21.8765 81.4777 43.5658C81.4777 65.2552 63.8145 82.9113 42.1165 82.9113Z" fill="#8E8E8E"/>
<path opacity="0.75" d="M42.0567 82.8516C20.3588 82.8516 2.69559 65.1954 2.69559 43.5061C2.69559 21.8167 20.3588 4.16052 42.0567 4.16052C63.7547 4.16052 81.4179 21.8167 81.4179 43.5061C81.4179 65.1954 63.7547 82.8516 42.0567 82.8516Z" fill="#8D8D8D"/>
<path opacity="0.75" d="M42.0269 82.7918C20.3289 82.7918 2.6657 65.1356 2.6657 43.4463C2.6657 21.757 20.3289 4.10077 42.0269 4.10077C63.7248 4.10077 81.388 21.757 81.388 43.4463C81.388 65.1356 63.7248 82.7918 42.0269 82.7918Z" fill="#8C8C8C"/>
<path opacity="0.76" d="M41.9671 82.7022C20.2691 82.7022 2.60593 65.046 2.60593 43.3567C2.60593 21.6674 20.2691 4.01117 41.9671 4.01117C63.665 4.01117 81.3282 21.6674 81.3282 43.3567C81.3282 65.046 63.665 82.7022 41.9671 82.7022Z" fill="#8B8B8B"/>
<path opacity="0.76" d="M41.9073 82.6425C20.2094 82.6425 2.54616 64.9863 2.54616 43.2969C2.54616 21.6076 20.2094 3.95142 41.9073 3.95142C63.6052 3.95142 81.2684 21.6076 81.2684 43.2969C81.2684 64.9863 63.6052 82.6425 41.9073 82.6425Z" fill="#8A8A8A"/>
<path opacity="0.77" d="M41.8774 82.5827C20.1795 82.5827 2.51627 64.9265 2.51627 43.2372C2.51627 21.5479 20.1795 3.89166 41.8774 3.89166C63.5754 3.89166 81.2386 21.5479 81.2386 43.2372C81.2386 64.9265 63.5754 82.5827 41.8774 82.5827Z" fill="#898989"/>
<path opacity="0.78" d="M41.8176 82.4931C20.1197 82.4931 2.45649 64.8369 2.45649 43.1476C2.45649 21.4582 20.1197 3.80203 41.8176 3.80203C63.5156 3.80203 81.1788 21.4582 81.1788 43.1476C81.1788 64.8369 63.5156 82.4931 41.8176 82.4931Z" fill="#888888"/>
<path opacity="0.78" d="M41.7579 82.4333C20.0599 82.4333 2.39672 64.7771 2.39672 43.0878C2.39672 21.3985 20.0599 3.74228 41.7579 3.74228C63.4558 3.74228 81.119 21.3985 81.119 43.0878C81.119 64.7771 63.4558 82.4333 41.7579 82.4333Z" fill="#878787"/>
<path opacity="0.79" d="M41.6981 82.3736C20.0001 82.3736 2.33694 64.7174 2.33694 43.0281C2.33694 21.3387 20.0001 3.68253 41.6981 3.68253C63.396 3.68253 81.0592 21.3387 81.0592 43.0281C81.0592 64.7174 63.396 82.3736 41.6981 82.3736Z" fill="#868686"/>
<path opacity="0.8" d="M41.6682 82.284C19.9703 82.284 2.30706 64.6278 2.30706 42.9384C2.30706 21.2491 19.9703 3.5929 41.6682 3.5929C63.3661 3.5929 81.0294 21.2491 81.0294 42.9384C81.0294 64.6278 63.3661 82.284 41.6682 82.284Z" fill="#858585"/>
<path opacity="0.8" d="M41.6084 82.2242C19.9105 82.2242 2.24728 64.568 2.24728 42.8787C2.24728 21.1893 19.9105 3.53314 41.6084 3.53314C63.3064 3.53314 80.9696 21.1893 80.9696 42.8787C80.9696 64.568 63.3064 82.2242 41.6084 82.2242Z" fill="#848484"/>
<path opacity="0.81" d="M41.5487 82.1645C19.8507 82.1645 2.18751 64.5083 2.18751 42.8189C2.18751 21.1296 19.8507 3.47339 41.5487 3.47339C63.2466 3.47339 80.9098 21.1296 80.9098 42.8189C80.9098 64.5083 63.2466 82.1645 41.5487 82.1645Z" fill="#838383"/>
<path opacity="0.82" d="M41.5188 82.0748C19.8208 82.0748 2.15763 64.4186 2.15763 42.7293C2.15763 21.0399 19.8208 3.38376 41.5188 3.38376C63.2167 3.38376 80.8799 21.0399 80.8799 42.7293C80.8799 64.4186 63.2167 82.0748 41.5188 82.0748Z" fill="#828282"/>
<path opacity="0.82" d="M41.459 82.0151C19.7611 82.0151 2.09785 64.3589 2.09785 42.6696C2.09785 20.9802 19.7611 3.32404 41.459 3.32404C63.1569 3.32404 80.8201 20.9802 80.8201 42.6696C80.8201 64.3589 63.1569 82.0151 41.459 82.0151Z" fill="#818181"/>
<path opacity="0.83" d="M41.3992 81.9554C19.7013 81.9554 2.03808 64.2992 2.03808 42.6098C2.03808 20.9205 19.7013 3.26428 41.3992 3.26428C63.0972 3.26428 80.7604 20.9205 80.7604 42.6098C80.7604 64.2992 63.0972 81.9554 41.3992 81.9554Z" fill="#808080"/>
<path opacity="0.84" d="M41.3394 81.8657C19.6415 81.8657 1.9783 64.2095 1.9783 42.5202C1.9783 20.8308 19.6415 3.17465 41.3394 3.17465C63.0374 3.17465 80.7006 20.8308 80.7006 42.5202C80.7006 64.2095 63.0374 81.8657 41.3394 81.8657Z" fill="#7F7F7F"/>
<path opacity="0.84" d="M41.3096 81.806C19.6116 81.806 1.94842 64.1498 1.94842 42.4604C1.94842 20.7711 19.6116 3.1149 41.3096 3.1149C63.0075 3.1149 80.6707 20.7711 80.6707 42.4604C80.6707 64.1498 63.0075 81.806 41.3096 81.806Z" fill="#7E7E7E"/>
<path opacity="0.85" d="M41.2498 81.7462C19.5518 81.7462 1.88864 64.09 1.88864 42.4007C1.88864 20.7113 19.5518 3.05515 41.2498 3.05515C62.9477 3.05515 80.6109 20.7113 80.6109 42.4007C80.6109 64.09 62.9477 81.7462 41.2498 81.7462Z" fill="#7D7D7D"/>
<path opacity="0.86" d="M41.19 81.6566C19.4921 81.6566 1.82887 64.0004 1.82887 42.311C1.82887 20.6217 19.4921 2.96552 41.19 2.96552C62.888 2.96552 80.5512 20.6217 80.5512 42.311C80.5512 64.0004 62.888 81.6566 41.19 81.6566Z" fill="#7C7C7C"/>
<path opacity="0.86" d="M41.1302 81.5968C19.4323 81.5968 1.7691 63.9406 1.7691 42.2513C1.7691 20.562 19.4323 2.90576 41.1302 2.90576C62.8282 2.90576 80.4914 20.562 80.4914 42.2513C80.4914 63.9406 62.8282 81.5968 41.1302 81.5968Z" fill="#7B7B7B"/>
<path opacity="0.87" d="M41.1003 81.5371C19.4024 81.5371 1.7392 63.8809 1.7392 42.1915C1.7392 20.5022 19.4024 2.84601 41.1003 2.84601C62.7983 2.84601 80.4615 20.5022 80.4615 42.1915C80.4615 63.8809 62.7983 81.5371 41.1003 81.5371Z" fill="#7A7A7A"/>
<path opacity="0.88" d="M41.0406 81.4475C19.3426 81.4475 1.67943 63.7913 1.67943 42.1019C1.67943 20.4126 19.3426 2.75641 41.0406 2.75641C62.7385 2.75641 80.4017 20.4126 80.4017 42.1019C80.4017 63.7913 62.7385 81.4475 41.0406 81.4475Z" fill="#797979"/>
<path opacity="0.88" d="M40.9808 81.3877C19.2829 81.3877 1.61966 63.7315 1.61966 42.0422C1.61966 20.3529 19.2829 2.69666 40.9808 2.69666C62.6787 2.69666 80.3419 20.3529 80.3419 42.0422C80.3419 63.7315 62.6787 81.3877 40.9808 81.3877Z" fill="#787878"/>
<path opacity="0.89" d="M40.9509 81.2981C19.253 81.2981 1.58978 63.6419 1.58978 41.9526C1.58978 20.2632 19.253 2.60703 40.9509 2.60703C62.6489 2.60703 80.3121 20.2632 80.3121 41.9526C80.3121 63.6419 62.6489 81.2981 40.9509 81.2981Z" fill="#777777"/>
<path opacity="0.9" d="M40.8911 81.2383C19.1932 81.2383 1.53 63.5821 1.53 41.8928C1.53 20.2035 19.1932 2.54727 40.8911 2.54727C62.5891 2.54727 80.2523 20.2035 80.2523 41.8928C80.2523 63.5821 62.5891 81.2383 40.8911 81.2383Z" fill="#767676"/>
<path opacity="0.9" d="M40.8314 81.1786C19.1334 81.1786 1.47022 63.5224 1.47022 41.8331C1.47022 20.1437 19.1334 2.48752 40.8314 2.48752C62.5293 2.48752 80.1925 20.1437 80.1925 41.8331C80.1925 63.5224 62.5293 81.1786 40.8314 81.1786Z" fill="#757575"/>
<path opacity="0.91" d="M40.7716 81.089C19.0736 81.089 1.41045 63.4328 1.41045 41.7434C1.41045 20.0541 19.0736 2.39789 40.7716 2.39789C62.4695 2.39789 80.1327 20.0541 80.1327 41.7434C80.1327 63.4328 62.4695 81.089 40.7716 81.089Z" fill="#747474"/>
<path opacity="0.92" d="M40.7417 81.0292C19.0438 81.0292 1.38057 63.373 1.38057 41.6837C1.38057 19.9943 19.0438 2.33813 40.7417 2.33813C62.4397 2.33813 80.1029 19.9943 80.1029 41.6837C80.1029 63.373 62.4397 81.0292 40.7417 81.0292Z" fill="#737373"/>
<path opacity="0.92" d="M40.6819 80.9695C18.984 80.9695 1.32079 63.3133 1.32079 41.6239C1.32079 19.9346 18.984 2.27838 40.6819 2.27838C62.3799 2.27838 80.0431 19.9346 80.0431 41.6239C80.0431 63.3133 62.3799 80.9695 40.6819 80.9695Z" fill="#727272"/>
<path opacity="0.93" d="M40.6222 80.8799C18.9242 80.8799 1.26102 63.2237 1.26102 41.5343C1.26102 19.845 18.9242 2.18878 40.6222 2.18878C62.3201 2.18878 79.9833 19.845 79.9833 41.5343C79.9833 63.2237 62.3201 80.8799 40.6222 80.8799Z" fill="#717171"/>
<path opacity="0.93" d="M40.5624 80.8201C18.8644 80.8201 1.20124 63.1639 1.20124 41.4746C1.20124 19.7852 18.8644 2.12903 40.5624 2.12903C62.2603 2.12903 79.9235 19.7852 79.9235 41.4746C79.9235 63.1639 62.2603 80.8201 40.5624 80.8201Z" fill="#707070"/>
<path opacity="0.94" d="M40.5325 80.7603C18.8345 80.7603 1.17135 63.1042 1.17135 41.4148C1.17135 19.7255 18.8345 2.06927 40.5325 2.06927C62.2304 2.06927 79.8936 19.7255 79.8936 41.4148C79.8936 63.1042 62.2304 80.7603 40.5325 80.7603Z" fill="#6F6F6F"/>
<path opacity="0.95" d="M40.4727 80.6707C18.7748 80.6707 1.11158 63.0145 1.11158 41.3252C1.11158 19.6358 18.7748 1.97964 40.4727 1.97964C62.1707 1.97964 79.8339 19.6358 79.8339 41.3252C79.8339 63.0145 62.1707 80.6707 40.4727 80.6707Z" fill="#6E6E6E"/>
<path opacity="0.95" d="M40.4129 80.6109C18.715 80.6109 1.0518 62.9548 1.0518 41.2654C1.0518 19.5761 18.715 1.91989 40.4129 1.91989C62.1109 1.91989 79.7741 19.5761 79.7741 41.2654C79.7741 62.9548 62.1109 80.6109 40.4129 80.6109Z" fill="#6D6D6D"/>
<path opacity="0.96" d="M40.3831 80.5512C18.6851 80.5512 1.02192 62.895 1.02192 41.2057C1.02192 19.5163 18.6851 1.86014 40.3831 1.86014C62.081 1.86014 79.7442 19.5163 79.7442 41.2057C79.7442 62.895 62.081 80.5512 40.3831 80.5512Z" fill="#6C6C6C"/>
<path opacity="0.97" d="M40.3233 80.4616C18.6253 80.4616 0.962143 62.8054 0.962143 41.116C0.962143 19.4267 18.6253 1.77051 40.3233 1.77051C62.0212 1.77051 79.6844 19.4267 79.6844 41.116C79.6844 62.8054 62.0212 80.4616 40.3233 80.4616Z" fill="#6B6B6B"/>
<path opacity="0.97" d="M40.2635 80.4018C18.5656 80.4018 0.902374 62.7457 0.902374 41.0563C0.902374 19.367 18.5656 1.71078 40.2635 1.71078C61.9615 1.71078 79.6247 19.367 79.6247 41.0563C79.6247 62.7457 61.9615 80.4018 40.2635 80.4018Z" fill="#6A6A6A"/>
<path opacity="0.98" d="M40.2037 80.3421C18.5058 80.3421 0.842598 62.6859 0.842598 40.9966C0.842598 19.3072 18.5058 1.65103 40.2037 1.65103C61.9017 1.65103 79.5649 19.3072 79.5649 40.9966C79.5649 62.6859 61.9017 80.3421 40.2037 80.3421Z" fill="#696969"/>
<path opacity="0.99" d="M40.1739 80.2525C18.4759 80.2525 0.812714 62.5963 0.812714 40.9069C0.812714 19.2176 18.4759 1.5614 40.1739 1.5614C61.8718 1.5614 79.535 19.2176 79.535 40.9069C79.535 62.5963 61.8718 80.2525 40.1739 80.2525Z" fill="#686868"/>
<path opacity="0.99" d="M40.1141 80.1927C18.4161 80.1927 0.752937 62.5365 0.752937 40.8472C0.752937 19.1578 18.4161 1.50165 40.1141 1.50165C61.812 1.50165 79.4752 19.1578 79.4752 40.8472C79.4752 62.5365 61.812 80.1927 40.1141 80.1927Z" fill="#676767"/>
<path d="M40.0543 80.133C18.3564 80.133 0.693161 62.4768 0.693161 40.7874C0.693161 19.0981 18.3564 1.44189 40.0543 1.44189C61.7522 1.44189 79.4155 19.0981 79.4155 40.7874C79.4155 62.4768 61.7522 80.133 40.0543 80.133Z" fill="#666666"/>
</g>
<path d="M39.9945 80.6408C17.9678 80.6408 0.0356522 62.7157 0.0356522 40.6978C0.0356522 18.6798 17.9678 0.754761 39.9945 0.754761C62.0212 0.754761 79.9534 18.6798 79.9534 40.6978C79.9534 62.7157 62.0212 80.6408 39.9945 80.6408Z" fill="url(#paint0_linear_368_4270)"/>
<path d="M39.9945 72.6343C57.6396 72.6343 71.9437 58.3358 71.9437 40.6978C71.9437 23.0597 57.6396 8.76129 39.9945 8.76129C22.3495 8.76129 8.04536 23.0597 8.04536 40.6978C8.04536 58.3358 22.3495 72.6343 39.9945 72.6343Z" fill="url(#paint1_linear_368_4270)"/>
<path d="M39.9945 71.1704C56.8308 71.1704 70.4793 57.5273 70.4793 40.6978C70.4793 23.8682 56.8308 10.2252 39.9945 10.2252C23.1583 10.2252 9.50983 23.8682 9.50983 40.6978C9.50983 57.5273 23.1583 71.1704 39.9945 71.1704Z" fill="#E31E25"/>
<path d="M47.7353 47.1209C44.7765 47.1209 41.7579 46.2546 41.7579 44.5816C41.7579 42.9085 44.7466 42.0422 47.7353 42.0422C50.724 42.0422 53.7127 42.9085 53.7127 44.5816C53.7127 46.2546 50.724 47.1209 47.7353 47.1209ZM47.7353 43.0579C46.3306 43.0579 45.0155 43.2671 44.0293 43.6256C43.0729 43.9841 42.7441 44.3724 42.7441 44.6114C42.7441 44.8504 43.0729 45.2388 44.0293 45.5973C45.0155 45.9558 46.3306 46.1649 47.7353 46.1649C49.14 46.1649 50.455 45.9558 51.4412 45.5973C52.3976 45.2388 52.7264 44.8504 52.7264 44.6114C52.7264 44.3724 52.3976 43.9841 51.4412 43.6256C50.455 43.2671 49.14 43.0579 47.7353 43.0579Z" fill="white"/>
<path d="M47.7353 56.9498C44.7765 56.9498 41.7579 56.0835 41.7579 54.4105V44.5815C41.7579 44.3127 41.9671 44.0737 42.2659 44.0737C42.5648 44.0737 42.774 44.2828 42.774 44.5815C42.774 44.8205 43.1028 45.2089 44.0592 45.5674C45.0454 45.9259 46.3605 46.1351 47.7652 46.1351C49.1698 46.1351 50.4849 45.9259 51.4711 45.5674C52.4275 45.2089 52.7563 44.8205 52.7563 44.5815C52.7563 44.3127 52.9655 44.0737 53.2644 44.0737C53.5632 44.0737 53.7724 44.2828 53.7724 44.5815V54.4105C53.7724 56.0835 50.7837 56.9498 47.795 56.9498H47.7353ZM42.7441 46.0454V54.4105C42.7441 54.6495 43.0729 55.0378 44.0293 55.3963C45.0155 55.7548 46.3306 55.964 47.7353 55.964C49.14 55.964 50.455 55.7548 51.4412 55.3963C52.3976 55.0378 52.7264 54.6495 52.7264 54.4105V46.0454C51.5907 46.7624 49.6779 47.1209 47.7353 47.1209C45.7926 47.1209 43.8798 46.7624 42.7441 46.0454Z" fill="white"/>
<path d="M54.9679 50.4371C54.2805 50.4371 53.6529 50.3773 53.1149 50.2877C52.8758 50.2578 52.6666 50.0487 52.6666 49.8097V45.9857C52.6666 45.7467 52.8459 45.5077 53.1149 45.5077C53.7127 45.4479 54.3403 45.3583 54.938 45.3583C57.8968 45.3583 60.9154 46.2247 60.9154 47.8977C60.9154 49.5707 57.9267 50.4371 54.938 50.4371H54.9679ZM53.6828 49.3616C54.0713 49.3914 54.5196 49.4512 54.9679 49.4512C56.3726 49.4512 57.6876 49.2421 58.6739 48.8836C59.6303 48.5251 59.959 48.1367 59.959 47.8977C59.959 47.6587 59.6303 47.2703 58.6739 46.9118C57.6876 46.5533 56.3726 46.3442 54.9679 46.3442C54.5495 46.3442 54.1311 46.3741 53.6828 46.4338V49.3616Z" fill="white"/>
<path d="M54.9679 56.9498C53.5632 56.9498 52.2781 56.7706 51.1723 56.3822C50.9631 56.3225 50.8435 56.1432 50.8435 55.9042C50.8435 55.6951 50.9631 55.5158 51.1723 55.4262C52.2183 55.0677 52.6965 54.6196 52.6965 54.3806V49.7499C52.6965 49.7499 52.7563 49.4811 52.8758 49.3914C52.9954 49.3018 53.1149 49.2421 53.2644 49.2719C53.8621 49.3317 54.43 49.3914 54.9978 49.3914C56.4025 49.3914 57.7175 49.1823 58.7038 48.8238C59.6602 48.4653 59.9889 48.0769 59.9889 47.8379C59.9889 47.5691 60.1981 47.33 60.497 47.33C60.7959 47.33 61.0051 47.5392 61.0051 47.8379V54.3806C61.0051 56.0536 58.0164 56.92 55.0277 56.92L54.9679 56.9498ZM52.7862 55.7847C53.4736 55.9042 54.1909 55.964 54.9679 55.964C56.3726 55.964 57.6876 55.7548 58.6739 55.3963C59.6303 55.0378 59.959 54.6495 59.959 54.4105V49.3616C58.8233 50.0786 56.9106 50.4371 54.9679 50.4371C54.5495 50.4371 54.1012 50.4072 53.6828 50.3474V54.4105C53.6828 54.7988 53.5035 55.3067 52.7862 55.7847Z" fill="white"/>
<path d="M47.7353 50.4371C44.7765 50.4371 41.7579 49.5707 41.7579 47.8977C41.7579 47.6288 41.9671 47.3898 42.2659 47.3898C42.5648 47.3898 42.774 47.599 42.774 47.8977C42.774 48.1367 43.1028 48.5251 44.0592 48.8836C45.0454 49.2421 46.3605 49.4512 47.7652 49.4512C49.1698 49.4512 50.4849 49.2421 51.4711 48.8836C52.4275 48.5251 52.7563 48.1367 52.7563 47.8977C52.7563 47.6288 52.9655 47.3898 53.2644 47.3898C53.5632 47.3898 53.7724 47.599 53.7724 47.8977C53.7724 49.5707 50.7837 50.4371 47.795 50.4371H47.7353Z" fill="white"/>
<path d="M47.7353 53.7233C44.7765 53.7233 41.7579 52.857 41.7579 51.184C41.7579 50.9151 41.9671 50.6761 42.2659 50.6761C42.5648 50.6761 42.774 50.8852 42.774 51.184C42.774 51.423 43.1028 51.8113 44.0592 52.1698C45.0454 52.5283 46.3605 52.7375 47.7652 52.7375C49.1698 52.7375 50.4849 52.5283 51.4711 52.1698C52.4275 51.8113 52.7563 51.423 52.7563 51.184C52.7563 50.9151 52.9655 50.6761 53.2644 50.6761C53.5632 50.6761 53.7724 50.8852 53.7724 51.184C53.7724 52.857 50.7837 53.7233 47.795 53.7233H47.7353Z" fill="white"/>
<path d="M54.9679 53.7233C54.669 53.7233 54.3702 53.7234 54.0713 53.6935C53.8023 53.6935 53.5333 53.6636 53.2345 53.6636C52.9356 53.6636 52.7264 53.4545 52.7264 53.1557C52.7264 52.857 52.9356 52.6478 53.2345 52.6478C53.5333 52.6478 53.8322 52.6478 54.1311 52.6777C54.4001 52.6777 54.669 52.7076 54.9679 52.7076C56.3726 52.7076 57.6876 52.4985 58.6739 52.14C59.6303 51.7815 59.959 51.3931 59.959 51.1541C59.959 50.8852 60.1683 50.6462 60.4671 50.6462C60.766 50.6462 60.9752 50.8553 60.9752 51.1541C60.9752 52.8271 57.9865 53.6935 54.9978 53.6935L54.9679 53.7233Z" fill="white"/>
<path d="M54.9679 56.9499C53.6529 56.9499 52.3976 56.7706 51.3516 56.442C50.3055 56.7706 49.0503 56.9499 47.7353 56.9499C44.7765 56.9499 41.7579 56.0835 41.7579 54.4105V44.5816C41.7579 42.9085 44.7466 42.0422 47.7353 42.0422C50.724 42.0422 53.7127 42.9085 53.7127 44.5816V45.4181C54.1311 45.3882 54.5794 45.3284 54.9978 45.3284C57.9566 45.3284 60.9752 46.1948 60.9752 47.8678V54.4105C60.9752 56.0835 57.9865 56.9499 54.9978 56.9499H54.9679ZM51.3516 55.4561C51.3516 55.4561 51.4711 55.4561 51.501 55.4561C52.4873 55.7847 53.6828 55.964 54.9679 55.964C56.3726 55.964 57.6876 55.7549 58.6739 55.3964C59.6303 55.0379 59.959 54.6495 59.959 54.4105V47.8678C59.959 47.6288 59.6303 47.2405 58.6739 46.882C57.6876 46.5235 56.3726 46.3143 54.9679 46.3143C54.4001 46.3143 53.8322 46.3741 53.2345 46.4338C53.085 46.4338 52.9655 46.4338 52.8459 46.3143C52.7264 46.2247 52.6666 46.0753 52.6666 45.9558V45.7766C52.6666 45.7766 52.5471 45.7168 52.5172 45.6869C52.308 45.5077 52.2781 45.2388 52.4574 45.0297C52.6367 44.7907 52.6965 44.7011 52.6965 44.6114C52.6965 44.3724 52.3677 43.9841 51.4114 43.6256C50.4251 43.2671 49.1101 43.0579 47.7054 43.0579C46.3007 43.0579 44.9857 43.2671 43.9994 43.6256C43.043 43.9841 42.7143 44.3724 42.7143 44.6114V54.4404C42.7143 54.6794 43.043 55.0677 43.9994 55.4262C44.9857 55.7847 46.3007 55.9939 47.7054 55.9939C48.9905 55.9939 50.186 55.8146 51.1723 55.486C51.232 55.486 51.2619 55.486 51.3217 55.486L51.3516 55.4561Z" fill="white"/>
<path d="M54.9679 53.7233C54.669 53.7233 54.3702 53.7234 54.0713 53.6935C53.8023 53.6935 53.5333 53.6636 53.2345 53.6636C52.9356 53.6636 52.7264 53.4545 52.7264 53.1557C52.7264 52.857 52.9356 52.6478 53.2345 52.6478C53.5333 52.6478 53.8322 52.6478 54.1311 52.6777C54.4001 52.6777 54.669 52.7076 54.9679 52.7076C56.3726 52.7076 57.6876 52.4985 58.6739 52.14C59.6303 51.7815 59.959 51.3931 59.959 51.1541C59.959 50.8852 60.1682 50.6462 60.4671 50.6462C60.766 50.6462 60.9752 50.8553 60.9752 51.1541C60.9752 52.8271 57.9865 53.6935 54.9978 53.6935L54.9679 53.7233Z" fill="white"/>
<path d="M33.0608 47.4496C33.0608 47.4496 33.001 47.4496 32.9711 47.4496L32.6423 47.3898C32.6423 47.3898 32.5527 47.3599 32.4929 47.3301L19.6415 39.8912L19.3127 39.682C19.1633 39.5924 19.0737 39.443 19.0737 39.2638C19.0737 39.0845 19.1633 38.9352 19.3127 38.8455L30.1318 32.5718C30.2813 32.4821 30.4606 32.4821 30.61 32.5718L32.8515 33.8265L41.8774 39.0248L44.1189 40.2795C44.2684 40.3692 44.358 40.5185 44.358 40.6978C44.358 40.877 44.2684 41.0264 44.1189 41.1161L33.5688 47.2404L33.2998 47.36C33.2998 47.36 33.1504 47.4197 33.0906 47.4197L33.0608 47.4496ZM32.9113 46.4338H33.001L33.0906 46.404L42.8936 40.7277L41.3992 39.8912L32.3734 34.6929L30.3709 33.5875L20.5381 39.2937L32.9412 46.4637L32.9113 46.4338Z" fill="white"/>
<path d="M48.7813 38.4273C48.7813 38.4273 48.602 38.4273 48.5123 38.3675L46.3306 37.053L37.3047 31.8548L35.0632 30.6C34.9137 30.5104 34.8241 30.361 34.8241 30.1818C34.8241 30.0025 34.9137 29.8531 35.0632 29.7635L38.6197 27.732L43.7005 24.7146C43.7005 24.7146 43.7005 24.7146 43.7304 24.7146L43.9994 24.5951C44.1787 24.5055 44.358 24.5354 44.5075 24.6549L44.7466 24.8341L57.5382 32.2431L57.8968 32.3626C58.0761 32.4224 58.2256 32.6016 58.2256 32.7809C58.2256 32.9601 58.1359 33.1693 57.9865 33.2589L49.0204 38.4572C49.0204 38.4572 48.871 38.5169 48.7813 38.5169V38.4273ZM36.3184 30.1519L37.8128 30.9884L46.8685 36.1867L48.7813 37.3518L56.6715 32.7809L44.2385 25.581C44.2385 25.581 44.2086 25.581 44.1787 25.5511L39.1278 28.5386L36.3184 30.1519Z" fill="white"/>
<path d="M33.5987 44.6413C33.5987 44.6413 33.4493 44.6413 33.3895 44.5816C33.1205 44.4621 32.8217 44.4621 32.5826 44.5816C32.4331 44.6413 32.2538 44.6413 32.1044 44.5816L25.051 40.4887C24.9016 40.399 24.812 40.2198 24.812 40.0704C24.812 39.921 24.9016 39.7418 25.0809 39.6522C25.2603 39.5625 25.2603 39.3833 25.2603 39.3235C25.2603 39.2638 25.2603 39.0845 25.0809 38.9949C24.9315 38.9053 24.8418 38.7559 24.812 38.5767C24.7821 38.3974 24.9016 38.248 25.051 38.1584L32.3734 33.946C32.5228 33.8564 32.7021 33.8564 32.8515 33.946L41.8774 39.0846C42.0269 39.1742 42.1165 39.3236 42.1165 39.5028C42.1165 39.6821 42.0269 39.8314 41.8774 39.9211L33.8378 44.6115C33.8378 44.6115 33.6884 44.6712 33.5987 44.6712V44.6413ZM26.0672 39.9211L32.3734 43.5658C32.7619 43.4463 33.1803 43.4463 33.5389 43.5658L40.6222 39.443L32.5826 34.8722L26.0373 38.6364C26.127 38.8157 26.1868 39.0547 26.1868 39.2638C26.1868 39.4729 26.127 39.7119 26.0373 39.8912L26.0672 39.9211Z" fill="white"/>
<path d="M46.5996 37.1128C46.5996 37.1128 46.4202 37.1128 46.3605 37.053L37.3346 31.8548C37.1852 31.7651 37.0955 31.6158 37.0955 31.4365C37.0955 31.2573 37.1852 31.1079 37.3346 31.0183L43.4614 27.4631C43.4614 27.4631 43.7902 27.3735 43.9396 27.4631C44.2086 27.5826 44.5075 27.5826 44.7466 27.4631C44.896 27.4034 45.0753 27.4034 45.2248 27.4631L52.1585 31.4963C52.1585 31.4963 52.3976 31.7353 52.3976 31.9145C52.3976 32.0938 52.308 32.2431 52.1884 32.3328C52.0091 32.4523 51.9493 32.6315 51.9493 32.7809C51.9493 32.8406 51.9493 33.0498 52.1287 33.1394C52.2781 33.229 52.3677 33.3784 52.3976 33.5576C52.3976 33.7369 52.308 33.8863 52.1585 33.9759L46.8685 37.0829C46.8685 37.0829 46.7191 37.1427 46.6294 37.1427L46.5996 37.1128ZM38.56 31.4066L46.5996 36.0373L51.1125 33.3784C51.0228 33.1991 50.9631 32.99 50.9631 32.751C50.9631 32.4821 51.0228 32.2133 51.1424 31.9743L44.9259 28.3594C44.5374 28.4789 44.1189 28.4789 43.7603 28.3594L38.56 31.3768V31.4066Z" fill="white"/>
<path d="M43.8798 41.2654C43.8798 41.2654 43.7005 41.2654 43.6407 41.2057L41.3992 39.8912L32.3733 34.6929L30.1318 33.4381C29.9824 33.3485 29.8927 33.1991 29.8927 33.0199C29.8927 32.8406 29.9824 32.6913 30.1318 32.6016L35.0931 29.7635C35.2425 29.6739 35.4218 29.6739 35.5713 29.7635L37.753 31.0183L46.8685 36.2165L49.0503 37.531C49.0503 37.531 49.2894 37.77 49.2894 37.9493C49.2894 38.1285 49.1997 38.2779 49.0503 38.3675L45.673 40.3393L44.1488 41.2057C44.1488 41.2057 43.9994 41.2654 43.9097 41.2654H43.8798ZM31.3871 32.99L32.8814 33.8265L41.9372 39.0248L43.9396 40.1899L45.1949 39.4729L47.8548 37.9194L46.3903 37.0232L37.3047 31.8249L35.362 30.7195L31.417 32.99H31.3871Z" fill="white"/>
<path d="M44.7466 33.3784C44.2086 33.3784 43.6408 33.2589 43.1924 33.0199C42.6844 32.751 42.3855 32.3029 42.3855 31.8249C42.3855 31.3469 42.6844 30.9286 43.1924 30.6299C43.9994 30.1519 45.3742 30.1519 46.2409 30.6299C46.749 30.8988 47.018 31.317 47.0479 31.7651C47.0479 32.2431 46.7789 32.6614 46.2708 32.99C45.8524 33.229 45.3144 33.3485 44.7466 33.3485V33.3784ZM44.6868 31.2871C44.2983 31.2871 43.9396 31.3768 43.6706 31.5261C43.4913 31.6158 43.3718 31.7353 43.3718 31.8548C43.3718 31.9743 43.4913 32.0938 43.6706 32.1834C44.2385 32.4822 45.2248 32.512 45.7328 32.1834C45.9719 32.034 46.0317 31.8846 46.0317 31.8249C46.0317 31.7353 45.9122 31.6158 45.7328 31.5261C45.434 31.3768 45.0454 31.2871 44.6569 31.2871H44.6868Z" fill="white"/>
<path d="M32.463 40.7576C31.9251 40.7576 31.3572 40.638 30.9089 40.399C30.4008 40.1302 30.1019 39.682 30.1019 39.204C30.1019 38.726 30.4008 38.3078 30.9089 38.009C31.7158 37.531 33.0906 37.531 33.9574 38.009C34.4356 38.2779 34.7344 38.6962 34.7344 39.1443C34.7344 39.6223 34.4654 40.0704 33.9873 40.3692C33.5688 40.6082 33.0309 40.7277 32.463 40.7277V40.7576ZM32.4331 38.6663C32.0446 38.6663 31.686 38.7559 31.417 38.9053C31.2377 38.9949 31.1181 39.1144 31.1181 39.2339C31.1181 39.3534 31.2377 39.4729 31.417 39.5625C31.9848 39.8613 32.9711 39.8912 33.5091 39.5625C33.6884 39.443 33.778 39.3235 33.778 39.204C33.778 39.1144 33.6884 38.9949 33.5091 38.9053C33.2102 38.7559 32.8217 38.6663 32.4331 38.6663Z" fill="white"/>
<path d="M33.001 50.7657C33.001 50.7657 32.8217 50.7657 32.7619 50.706L19.3127 42.9384C19.1633 42.8488 19.0737 42.6994 19.0737 42.5202V39.2937C19.0737 39.0248 19.2829 38.7858 19.5817 38.7858C19.8806 38.7858 20.0898 38.9949 20.0898 39.2937V42.2513L33.0608 49.75L39.9348 45.7467C40.1739 45.5973 40.4727 45.6869 40.6222 45.9259C40.7716 46.165 40.6819 46.4637 40.4428 46.6131L33.3297 50.7657C33.3297 50.7657 33.1803 50.8255 33.0906 50.8255L33.001 50.7657Z" fill="white"/>
<path d="M49.7676 41.0563C49.5883 41.0563 49.4388 40.9667 49.3492 40.8173C49.1997 40.5783 49.2894 40.2796 49.5285 40.1302L57.2692 35.6489V32.6913C57.2692 32.4224 57.4784 32.1834 57.7773 32.1834C58.0762 32.1834 58.2854 32.3925 58.2854 32.6913V35.9178C58.2854 36.097 58.1957 36.2464 58.0463 36.336L50.0664 40.9667C50.0664 40.9667 49.917 41.0264 49.8274 41.0264L49.7676 41.0563Z" fill="white"/>
<path d="M33.001 53.8727C33.001 53.8727 32.8217 53.8728 32.7619 53.813L19.3127 46.0455C19.1633 45.9558 19.0737 45.8065 19.0737 45.6272V42.4604C19.0737 42.1916 19.2829 41.9526 19.5817 41.9526C19.8806 41.9526 20.0898 42.1617 20.0898 42.4604V45.3285L33.0608 52.8271L39.9945 48.8238C40.2336 48.6745 40.5325 48.7641 40.6819 49.0031C40.8314 49.2421 40.7417 49.5408 40.5026 49.6902L33.2998 53.8429C33.2998 53.8429 33.1504 53.9026 33.0608 53.9026L33.001 53.8727Z" fill="white"/>
<path d="M53.2643 42.1318C53.085 42.1318 52.9356 42.0422 52.8459 41.8928C52.6965 41.6538 52.7862 41.3551 53.0253 41.2057L57.2692 38.7858V35.8282C57.2692 35.5593 57.4784 35.3203 57.7773 35.3203C58.0762 35.3203 58.2854 35.5294 58.2854 35.8282V39.0547C58.2854 39.2339 58.1957 39.3833 58.0463 39.4729L53.5632 42.0422C53.5632 42.0422 53.4138 42.1019 53.3241 42.1019L53.2643 42.1318Z" fill="white"/>
<path d="M33.001 56.9499C33.001 56.9499 32.8217 56.9499 32.7619 56.8901L19.3127 49.1226C19.1633 49.033 19.0737 48.8836 19.0737 48.7043V45.5376C19.0737 45.2687 19.2829 45.0297 19.5817 45.0297C19.8806 45.0297 20.0898 45.2388 20.0898 45.5376V48.4056L33.0608 55.9042L40.0842 51.901C40.3233 51.7516 40.6222 51.8412 40.7716 52.0802C40.921 52.3192 40.8314 52.618 40.5923 52.7673L33.3297 56.92C33.3297 56.92 33.1803 56.9797 33.0906 56.9797L33.001 56.9499Z" fill="white"/>
<path d="M55.0576 44.2231C54.8782 44.2231 54.7288 44.1335 54.6391 43.9841C54.4897 43.7451 54.5794 43.4463 54.8185 43.2969L57.2692 41.863V38.9053C57.2692 38.6364 57.4784 38.3974 57.7773 38.3974C58.0762 38.3974 58.2854 38.6066 58.2854 38.9053V42.1318C58.2854 42.3111 58.1957 42.4604 58.0463 42.5501L55.3266 44.1334C55.3266 44.1334 55.1472 44.1932 55.0875 44.1932L55.0576 44.2231Z" fill="white"/>
<path d="M43.8798 41.594C43.6109 41.594 43.3718 41.3849 43.3718 41.0862V40.7575C43.3718 40.5783 43.4614 40.4289 43.6109 40.3393L48.4824 37.5011C48.6319 37.4115 48.8112 37.4115 48.9905 37.5011C49.1399 37.5908 49.2296 37.7402 49.2296 37.9194V40.638C49.2296 40.9069 49.0204 41.1459 48.7215 41.1459C48.4227 41.1459 48.2135 40.9368 48.2135 40.638V38.7858L44.3281 41.0563V41.1161C44.3281 41.3849 44.1189 41.6239 43.8201 41.6239L43.8798 41.594Z" fill="white"/>
<defs>
<linearGradient id="paint0_linear_368_4270" x1="-54" y1="40.6978" x2="-51.0113" y2="40.6978" gradientUnits="userSpaceOnUse">
<stop stop-color="#E6E6E6"/>
<stop offset="1" stop-color="white"/>
</linearGradient>
<linearGradient id="paint1_linear_368_4270" x1="-54" y1="40.6978" x2="-51.0113" y2="40.6978" gradientUnits="userSpaceOnUse">
<stop stop-color="white"/>
<stop offset="1" stop-color="#F2F2F2"/>
</linearGradient>
</defs>
</svg>
