<svg width="88" height="91" viewBox="0 0 88 91" fill="none" xmlns="http://www.w3.org/2000/svg">
<g style="mix-blend-mode:multiply" opacity="0.5">
<path opacity="0.01" d="M48.3827 90.7088C26.6847 90.7088 9.02151 73.0526 9.02151 51.3632C9.02151 29.6739 26.6847 12.0177 48.3827 12.0177C70.0806 12.0177 87.7438 29.6739 87.7438 51.3632C87.7438 73.0526 70.0806 90.7088 48.3827 90.7088Z" fill="#FDFDFD"/>
<path opacity="0.02" d="M48.3229 90.6191C26.625 90.6191 8.96176 72.9629 8.96176 51.2736C8.96176 29.5843 26.625 11.9281 48.3229 11.9281C70.0208 11.9281 87.6841 29.5843 87.6841 51.2736C87.6841 72.9629 70.0208 90.6191 48.3229 90.6191Z" fill="#FCFCFC"/>
<path opacity="0.03" d="M48.2631 90.5594C26.5652 90.5594 8.90201 72.9032 8.90201 51.2139C8.90201 29.5245 26.5652 11.8683 48.2631 11.8683C69.9611 11.8683 87.6243 29.5245 87.6243 51.2139C87.6243 72.9032 69.9611 90.5594 48.2631 90.5594Z" fill="#FBFBFB"/>
<path opacity="0.03" d="M48.2332 90.4996C26.5353 90.4996 8.8721 72.8434 8.8721 51.1541C8.8721 29.4648 26.5353 11.8086 48.2332 11.8086C69.9312 11.8086 87.5944 29.4648 87.5944 51.1541C87.5944 72.8434 69.9312 90.4996 48.2332 90.4996Z" fill="#FAFAFA"/>
<path opacity="0.04" d="M48.1735 90.41C26.4755 90.41 8.81232 72.7538 8.81232 51.0645C8.81232 29.3751 26.4755 11.7189 48.1735 11.7189C69.8714 11.7189 87.5346 29.3751 87.5346 51.0645C87.5346 72.7538 69.8714 90.41 48.1735 90.41Z" fill="#F9F9F9"/>
<path opacity="0.05" d="M48.1137 90.3503C26.4158 90.3503 8.75256 72.6941 8.75256 51.0047C8.75256 29.3154 26.4158 11.6592 48.1137 11.6592C69.8116 11.6592 87.4748 29.3154 87.4748 51.0047C87.4748 72.6941 69.8116 90.3503 48.1137 90.3503Z" fill="#F8F8F8"/>
<path opacity="0.05" d="M48.0838 90.2905C26.3859 90.2905 8.72266 72.6343 8.72266 50.945C8.72266 29.2556 26.3859 11.5994 48.0838 11.5994C69.7818 11.5994 87.445 29.2556 87.445 50.945C87.445 72.6343 69.7818 90.2905 48.0838 90.2905Z" fill="#F7F7F7"/>
<path opacity="0.06" d="M48.024 90.2009C26.3261 90.2009 8.6629 72.5447 8.6629 50.8553C8.6629 29.166 26.3261 11.5098 48.024 11.5098C69.722 11.5098 87.3852 29.166 87.3852 50.8553C87.3852 72.5447 69.722 90.2009 48.024 90.2009Z" fill="#F6F6F6"/>
<path opacity="0.07" d="M47.9643 90.1411C26.2663 90.1411 8.60312 72.4849 8.60312 50.7956C8.60312 29.1062 26.2663 11.45 47.9643 11.45C69.6622 11.45 87.3254 29.1062 87.3254 50.7956C87.3254 72.4849 69.6622 90.1411 47.9643 90.1411Z" fill="#F5F5F5"/>
<path opacity="0.07" d="M47.9045 90.0515C26.2065 90.0515 8.54333 72.3953 8.54333 50.706C8.54333 29.0166 26.2065 11.3604 47.9045 11.3604C69.6024 11.3604 87.2656 29.0166 87.2656 50.706C87.2656 72.3953 69.6024 90.0515 47.9045 90.0515Z" fill="#F4F4F4"/>
<path opacity="0.08" d="M47.8746 89.9917C26.1767 89.9917 8.51346 72.3356 8.51346 50.6462C8.51346 28.9569 26.1767 11.3007 47.8746 11.3007C69.5725 11.3007 87.2358 28.9569 87.2358 50.6462C87.2358 72.3356 69.5725 89.9917 47.8746 89.9917Z" fill="#F3F3F3"/>
<path opacity="0.08" d="M47.8148 89.932C26.1169 89.932 8.45367 72.2758 8.45367 50.5865C8.45367 28.8971 26.1169 11.2409 47.8148 11.2409C69.5128 11.2409 87.176 28.8971 87.176 50.5865C87.176 72.2758 69.5128 89.932 47.8148 89.932Z" fill="#F2F2F2"/>
<path opacity="0.09" d="M47.7551 89.8424C26.0571 89.8424 8.39389 72.1862 8.39389 50.4968C8.39389 28.8075 26.0571 11.1513 47.7551 11.1513C69.453 11.1513 87.1162 28.8075 87.1162 50.4968C87.1162 72.1862 69.453 89.8424 47.7551 89.8424Z" fill="#F1F1F1"/>
<path opacity="0.1" d="M47.7252 89.7826C26.0272 89.7826 8.36404 72.1264 8.36404 50.4371C8.36404 28.7477 26.0272 11.0916 47.7252 11.0916C69.4231 11.0916 87.0863 28.7477 87.0863 50.4371C87.0863 72.1264 69.4231 89.7826 47.7252 89.7826Z" fill="#F0F0F0"/>
<path opacity="0.1" d="M47.6654 89.7229C25.9674 89.7229 8.30423 72.0667 8.30423 50.3773C8.30423 28.688 25.9674 11.0318 47.6654 11.0318C69.3633 11.0318 87.0265 28.688 87.0265 50.3773C87.0265 72.0667 69.3633 89.7229 47.6654 89.7229Z" fill="#EFEFEF"/>
<path opacity="0.11" d="M47.6056 89.6332C25.9077 89.6332 8.24448 71.977 8.24448 50.2877C8.24448 28.5984 25.9077 10.9422 47.6056 10.9422C69.3036 10.9422 86.9668 28.5984 86.9668 50.2877C86.9668 71.977 69.3036 89.6332 47.6056 89.6332Z" fill="#EEEEEE"/>
<path opacity="0.12" d="M47.5459 89.5735C25.8479 89.5735 8.18469 71.9173 8.18469 50.228C8.18469 28.5386 25.8479 10.8824 47.5459 10.8824C69.2438 10.8824 86.907 28.5386 86.907 50.228C86.907 71.9173 69.2438 89.5735 47.5459 89.5735Z" fill="#EDEDED"/>
<path opacity="0.12" d="M47.516 89.5138C25.818 89.5138 8.15482 71.8576 8.15482 50.1682C8.15482 28.4789 25.818 10.8227 47.516 10.8227C69.2139 10.8227 86.8771 28.4789 86.8771 50.1682C86.8771 71.8576 69.2139 89.5138 47.516 89.5138Z" fill="#ECECEC"/>
<path opacity="0.13" d="M47.4562 89.4241C25.7582 89.4241 8.09503 71.7679 8.09503 50.0786C8.09503 28.3893 25.7582 10.7331 47.4562 10.7331C69.1541 10.7331 86.8173 28.3893 86.8173 50.0786C86.8173 71.7679 69.1541 89.4241 47.4562 89.4241Z" fill="#EBEBEB"/>
<path opacity="0.14" d="M47.3964 89.3644C25.6985 89.3644 8.03528 71.7082 8.03528 50.0188C8.03528 28.3295 25.6985 10.6733 47.3964 10.6733C69.0944 10.6733 86.7576 28.3295 86.7576 50.0188C86.7576 71.7082 69.0944 89.3644 47.3964 89.3644Z" fill="#EAEAEA"/>
<path opacity="0.14" d="M47.3367 89.3046C25.6387 89.3046 7.97549 71.6484 7.97549 49.9591C7.97549 28.2698 25.6387 10.6136 47.3367 10.6136C69.0346 10.6136 86.6978 28.2698 86.6978 49.9591C86.6978 71.6484 69.0346 89.3046 47.3367 89.3046Z" fill="#E9E9E9"/>
<path opacity="0.15" d="M47.3068 89.215C25.6088 89.215 7.94562 71.5588 7.94562 49.8695C7.94562 28.1801 25.6088 10.5239 47.3068 10.5239C69.0047 10.5239 86.6679 28.1801 86.6679 49.8695C86.6679 71.5588 69.0047 89.215 47.3068 89.215Z" fill="#E8E8E8"/>
<path opacity="0.16" d="M47.247 89.1552C25.549 89.1552 7.88583 71.499 7.88583 49.8097C7.88583 28.1204 25.549 10.4642 47.247 10.4642C68.9449 10.4642 86.6081 28.1204 86.6081 49.8097C86.6081 71.499 68.9449 89.1552 47.247 89.1552Z" fill="#E7E7E7"/>
<path opacity="0.16" d="M47.1872 89.0955C25.4892 89.0955 7.82605 71.4393 7.82605 49.75C7.82605 28.0606 25.4892 10.4044 47.1872 10.4044C68.8851 10.4044 86.5483 28.0606 86.5483 49.75C86.5483 71.4393 68.8851 89.0955 47.1872 89.0955Z" fill="#E6E6E6"/>
<path opacity="0.17" d="M47.1573 89.0059C25.4594 89.0059 7.79617 71.3497 7.79617 49.6603C7.79617 27.971 25.4594 10.3148 47.1573 10.3148C68.8553 10.3148 86.5185 27.971 86.5185 49.6603C86.5185 71.3497 68.8553 89.0059 47.1573 89.0059Z" fill="#E5E5E5"/>
<path opacity="0.18" d="M47.0976 88.9461C25.3996 88.9461 7.73642 71.2899 7.73642 49.6006C7.73642 27.9113 25.3996 10.2551 47.0976 10.2551C68.7955 10.2551 86.4587 27.9113 86.4587 49.6006C86.4587 71.2899 68.7955 88.9461 47.0976 88.9461Z" fill="#E4E4E4"/>
<path opacity="0.18" d="M47.0377 88.8864C25.3398 88.8864 7.67661 71.2302 7.67661 49.5409C7.67661 27.8515 25.3398 10.1953 47.0377 10.1953C68.7357 10.1953 86.3989 27.8515 86.3989 49.5409C86.3989 71.2302 68.7357 88.8864 47.0377 88.8864Z" fill="#E3E3E3"/>
<path opacity="0.19" d="M46.978 88.7968C25.28 88.7968 7.61685 71.1405 7.61685 49.4512C7.61685 27.7619 25.28 10.1057 46.978 10.1057C68.6759 10.1057 86.3391 27.7619 86.3391 49.4512C86.3391 71.1405 68.6759 88.7968 46.978 88.7968Z" fill="#E2E2E2"/>
<path opacity="0.2" d="M46.9481 88.737C25.2502 88.737 7.58698 71.0808 7.58698 49.3915C7.58698 27.7021 25.2502 10.0459 46.9481 10.0459C68.6461 10.0459 86.3093 27.7021 86.3093 49.3915C86.3093 71.0808 68.6461 88.737 46.9481 88.737Z" fill="#E1E1E1"/>
<path opacity="0.2" d="M46.8883 88.6772C25.1904 88.6772 7.52716 71.0211 7.52716 49.3317C7.52716 27.6424 25.1904 9.98618 46.8883 9.98618C68.5863 9.98618 86.2495 27.6424 86.2495 49.3317C86.2495 71.0211 68.5863 88.6772 46.8883 88.6772Z" fill="#E0E0E0"/>
<path opacity="0.21" d="M46.8285 88.5876C25.1306 88.5876 7.46741 70.9314 7.46741 49.2421C7.46741 27.5527 25.1306 9.89655 46.8285 9.89655C68.5265 9.89655 86.1897 27.5527 86.1897 49.2421C86.1897 70.9314 68.5265 88.5876 46.8285 88.5876Z" fill="#DFDFDF"/>
<path opacity="0.22" d="M46.7688 88.5279C25.0709 88.5279 7.40765 70.8717 7.40765 49.1823C7.40765 27.493 25.0709 9.83679 46.7688 9.83679C68.4667 9.83679 86.1299 27.493 86.1299 49.1823C86.1299 70.8717 68.4667 88.5279 46.7688 88.5279Z" fill="#DEDEDE"/>
<path opacity="0.22" d="M46.7389 88.4681C25.0409 88.4681 7.37775 70.8119 7.37775 49.1226C7.37775 27.4333 25.0409 9.77707 46.7389 9.77707C68.4368 9.77707 86.1 27.4333 86.1 49.1226C86.1 70.8119 68.4368 88.4681 46.7389 88.4681Z" fill="#DDDDDD"/>
<path opacity="0.23" d="M46.6791 88.3785C24.9812 88.3785 7.31796 70.7223 7.31796 49.0329C7.31796 27.3436 24.9812 9.68741 46.6791 9.68741C68.3771 9.68741 86.0403 27.3436 86.0403 49.0329C86.0403 70.7223 68.3771 88.3785 46.6791 88.3785Z" fill="#DCDCDC"/>
<path opacity="0.24" d="M46.6194 88.3188C24.9214 88.3188 7.25821 70.6626 7.25821 48.9732C7.25821 27.2839 24.9214 9.62769 46.6194 9.62769C68.3173 9.62769 85.9805 27.2839 85.9805 48.9732C85.9805 70.6626 68.3173 88.3188 46.6194 88.3188Z" fill="#DBDBDB"/>
<path opacity="0.24" d="M46.5895 88.259C24.8915 88.259 7.2283 70.6028 7.2283 48.9135C7.2283 27.2241 24.8915 9.56793 46.5895 9.56793C68.2874 9.56793 85.9506 27.2241 85.9506 48.9135C85.9506 70.6028 68.2874 88.259 46.5895 88.259Z" fill="#DADADA"/>
<path opacity="0.25" d="M46.5297 88.1694C24.8317 88.1694 7.16855 70.5132 7.16855 48.8238C7.16855 27.1345 24.8317 9.4783 46.5297 9.4783C68.2276 9.4783 85.8908 27.1345 85.8908 48.8238C85.8908 70.5132 68.2276 88.1694 46.5297 88.1694Z" fill="#D9D9D9"/>
<path opacity="0.25" d="M46.4699 88.1096C24.772 88.1096 7.10876 70.4534 7.10876 48.7641C7.10876 27.0748 24.772 9.41855 46.4699 9.41855C68.1679 9.41855 85.8311 27.0748 85.8311 48.7641C85.8311 70.4534 68.1679 88.1096 46.4699 88.1096Z" fill="#D8D8D8"/>
<path opacity="0.26" d="M46.4102 88.02C24.7122 88.02 7.04901 70.3638 7.04901 48.6745C7.04901 26.9851 24.7122 9.32892 46.4102 9.32892C68.1081 9.32892 85.7713 26.9851 85.7713 48.6745C85.7713 70.3638 68.1081 88.02 46.4102 88.02Z" fill="#D7D7D7"/>
<path opacity="0.27" d="M46.3802 87.9602C24.6823 87.9602 7.0191 70.304 7.0191 48.6147C7.0191 26.9254 24.6823 9.26917 46.3802 9.26917C68.0782 9.26917 85.7414 26.9254 85.7414 48.6147C85.7414 70.304 68.0782 87.9602 46.3802 87.9602Z" fill="#D6D6D6"/>
<path opacity="0.27" d="M46.3205 87.9005C24.6225 87.9005 6.95935 70.2443 6.95935 48.555C6.95935 26.8656 24.6225 9.20941 46.3205 9.20941C68.0184 9.20941 85.6816 26.8656 85.6816 48.555C85.6816 70.2443 68.0184 87.9005 46.3205 87.9005Z" fill="#D5D5D5"/>
<path opacity="0.28" d="M46.2607 87.8109C24.5628 87.8109 6.89957 70.1547 6.89957 48.4654C6.89957 26.776 24.5628 9.11981 46.2607 9.11981C67.9587 9.11981 85.6219 26.776 85.6219 48.4654C85.6219 70.1547 67.9587 87.8109 46.2607 87.8109Z" fill="#D4D4D4"/>
<path opacity="0.29" d="M46.2308 87.7511C24.5329 87.7511 6.86969 70.0949 6.86969 48.4056C6.86969 26.7162 24.5329 9.06006 46.2308 9.06006C67.9288 9.06006 85.592 26.7162 85.592 48.4056C85.592 70.0949 67.9288 87.7511 46.2308 87.7511Z" fill="#D3D3D3"/>
<path opacity="0.29" d="M46.171 87.6914C24.4731 87.6914 6.80991 70.0352 6.80991 48.3458C6.80991 26.6565 24.4731 9.00031 46.171 9.00031C67.869 9.00031 85.5322 26.6565 85.5322 48.3458C85.5322 70.0352 67.869 87.6914 46.171 87.6914Z" fill="#D2D2D2"/>
<path opacity="0.3" d="M46.1113 87.6017C24.4133 87.6017 6.75012 69.9456 6.75012 48.2562C6.75012 26.5669 24.4133 8.91068 46.1113 8.91068C67.8092 8.91068 85.4724 26.5669 85.4724 48.2562C85.4724 69.9456 67.8092 87.6017 46.1113 87.6017Z" fill="#D1D1D1"/>
<path opacity="0.31" d="M46.0515 87.542C24.3536 87.542 6.69034 69.8858 6.69034 48.1964C6.69034 26.5071 24.3536 8.85092 46.0515 8.85092C67.7494 8.85092 85.4126 26.5071 85.4126 48.1964C85.4126 69.8858 67.7494 87.542 46.0515 87.542Z" fill="#D0D0D0"/>
<path opacity="0.31" d="M46.0216 87.4822C24.3237 87.4822 6.66046 69.826 6.66046 48.1367C6.66046 26.4474 24.3237 8.79117 46.0216 8.79117C67.7195 8.79117 85.3827 26.4474 85.3827 48.1367C85.3827 69.826 67.7195 87.4822 46.0216 87.4822Z" fill="#CFCFCF"/>
<path opacity="0.32" d="M45.9618 87.3926C24.2639 87.3926 6.60068 69.7364 6.60068 48.0471C6.60068 26.3577 24.2639 8.70154 45.9618 8.70154C67.6598 8.70154 85.323 26.3577 85.323 48.0471C85.323 69.7364 67.6598 87.3926 45.9618 87.3926Z" fill="#CECECE"/>
<path opacity="0.33" d="M45.9021 87.3328C24.2041 87.3328 6.54092 69.6767 6.54092 47.9873C6.54092 26.298 24.2041 8.64178 45.9021 8.64178C67.6 8.64178 85.2632 26.298 85.2632 47.9873C85.2632 69.6767 67.6 87.3328 45.9021 87.3328Z" fill="#CDCDCD"/>
<path opacity="0.33" d="M45.8423 87.2731C24.1444 87.2731 6.48114 69.6169 6.48114 47.9276C6.48114 26.2382 24.1444 8.58203 45.8423 8.58203C67.5402 8.58203 85.2034 26.2382 85.2034 47.9276C85.2034 69.6169 67.5402 87.2731 45.8423 87.2731Z" fill="#CCCCCC"/>
<path opacity="0.34" d="M45.8124 87.1835C24.1145 87.1835 6.45126 69.5273 6.45126 47.838C6.45126 26.1486 24.1145 8.49243 45.8124 8.49243C67.5103 8.49243 85.1735 26.1486 85.1735 47.838C85.1735 69.5273 67.5103 87.1835 45.8124 87.1835Z" fill="#CBCBCB"/>
<path opacity="0.35" d="M45.7526 87.1237C24.0547 87.1237 6.39148 69.4675 6.39148 47.7782C6.39148 26.0889 24.0547 8.43268 45.7526 8.43268C67.4506 8.43268 85.1138 26.0889 85.1138 47.7782C85.1138 69.4675 67.4506 87.1237 45.7526 87.1237Z" fill="#CACACA"/>
<path opacity="0.35" d="M45.6929 87.064C23.9949 87.064 6.33173 69.4078 6.33173 47.7185C6.33173 26.0291 23.9949 8.37292 45.6929 8.37292C67.3908 8.37292 85.054 26.0291 85.054 47.7185C85.054 69.4078 67.3908 87.064 45.6929 87.064Z" fill="#C9C9C9"/>
<path opacity="0.36" d="M45.663 86.9744C23.965 86.9744 6.30182 69.3182 6.30182 47.6288C6.30182 25.9395 23.965 8.28329 45.663 8.28329C67.3609 8.28329 85.0241 25.9395 85.0241 47.6288C85.0241 69.3182 67.3609 86.9744 45.663 86.9744Z" fill="#C8C8C8"/>
<path opacity="0.37" d="M45.6032 86.9146C23.9053 86.9146 6.24207 69.2584 6.24207 47.5691C6.24207 25.8797 23.9053 8.22354 45.6032 8.22354C67.3012 8.22354 84.9643 25.8797 84.9643 47.5691C84.9643 69.2584 67.3012 86.9146 45.6032 86.9146Z" fill="#C7C7C7"/>
<path opacity="0.37" d="M45.5434 86.8549C23.8455 86.8549 6.18228 69.1987 6.18228 47.5093C6.18228 25.82 23.8455 8.16379 45.5434 8.16379C67.2414 8.16379 84.9046 25.82 84.9046 47.5093C84.9046 69.1987 67.2414 86.8549 45.5434 86.8549Z" fill="#C6C6C6"/>
<path opacity="0.38" d="M45.4836 86.7652C23.7857 86.7652 6.1225 69.109 6.1225 47.4197C6.1225 25.7303 23.7857 8.07416 45.4836 8.07416C67.1816 8.07416 84.8448 25.7303 84.8448 47.4197C84.8448 69.109 67.1816 86.7652 45.4836 86.7652Z" fill="#C5C5C5"/>
<path opacity="0.39" d="M45.4538 86.7055C23.7558 86.7055 6.09262 69.0493 6.09262 47.36C6.09262 25.6706 23.7558 8.01443 45.4538 8.01443C67.1517 8.01443 84.8149 25.6706 84.8149 47.36C84.8149 69.0493 67.1517 86.7055 45.4538 86.7055Z" fill="#C4C4C4"/>
<path opacity="0.39" d="M45.394 86.6458C23.6961 86.6458 6.03284 68.9896 6.03284 47.3002C6.03284 25.6109 23.6961 7.95468 45.394 7.95468C67.0919 7.95468 84.7551 25.6109 84.7551 47.3002C84.7551 68.9896 67.0919 86.6458 45.394 86.6458Z" fill="#C3C3C3"/>
<path opacity="0.4" d="M45.3342 86.5561C23.6362 86.5561 5.97305 68.8999 5.97305 47.2106C5.97305 25.5212 23.6362 7.86505 45.3342 7.86505C67.0321 7.86505 84.6954 25.5212 84.6954 47.2106C84.6954 68.8999 67.0321 86.5561 45.3342 86.5561Z" fill="#C2C2C2"/>
<path opacity="0.41" d="M45.2744 86.4964C23.5765 86.4964 5.9133 68.8402 5.9133 47.1508C5.9133 25.4615 23.5765 7.8053 45.2744 7.8053C66.9724 7.8053 84.6356 25.4615 84.6356 47.1508C84.6356 68.8402 66.9724 86.4964 45.2744 86.4964Z" fill="#C1C1C1"/>
<path opacity="0.41" d="M45.2445 86.4366C23.5466 86.4366 5.88339 68.7804 5.88339 47.0911C5.88339 25.4017 23.5466 7.74554 45.2445 7.74554C66.9425 7.74554 84.6057 25.4017 84.6057 47.0911C84.6057 68.7804 66.9425 86.4366 45.2445 86.4366Z" fill="#C0C0C0"/>
<path opacity="0.42" d="M45.1848 86.347C23.4868 86.347 5.82361 68.6908 5.82361 47.0014C5.82361 25.3121 23.4868 7.65591 45.1848 7.65591C66.8827 7.65591 84.5459 25.3121 84.5459 47.0014C84.5459 68.6908 66.8827 86.347 45.1848 86.347Z" fill="#BFBFBF"/>
<path opacity="0.42" d="M45.125 86.2872C23.4271 86.2872 5.76385 68.631 5.76385 46.9417C5.76385 25.2524 23.4271 7.59616 45.125 7.59616C66.8229 7.59616 84.4861 25.2524 84.4861 46.9417C84.4861 68.631 66.8229 86.2872 45.125 86.2872Z" fill="#BEBEBE"/>
<path opacity="0.43" d="M45.0951 86.2275C23.3972 86.2275 5.73395 68.5713 5.73395 46.8819C5.73395 25.1926 23.3972 7.53641 45.0951 7.53641C66.7931 7.53641 84.4563 25.1926 84.4563 46.8819C84.4563 68.5713 66.7931 86.2275 45.0951 86.2275Z" fill="#BDBDBD"/>
<path opacity="0.44" d="M45.0353 86.1379C23.3374 86.1379 5.67419 68.4816 5.67419 46.7923C5.67419 25.103 23.3374 7.44678 45.0353 7.44678C66.7333 7.44678 84.3965 25.103 84.3965 46.7923C84.3965 68.4816 66.7333 86.1379 45.0353 86.1379Z" fill="#BCBCBC"/>
<path opacity="0.44" d="M44.9756 86.0781C23.2776 86.0781 5.61441 68.4219 5.61441 46.7326C5.61441 25.0432 23.2776 7.38702 44.9756 7.38702C66.6735 7.38702 84.3367 25.0432 84.3367 46.7326C84.3367 68.4219 66.6735 86.0781 44.9756 86.0781Z" fill="#BBBBBB"/>
<path opacity="0.45" d="M44.9158 86.0183C23.2179 86.0183 5.55466 68.3621 5.55466 46.6728C5.55466 24.9835 23.2179 7.32727 44.9158 7.32727C66.6137 7.32727 84.2769 24.9835 84.2769 46.6728C84.2769 68.3621 66.6137 86.0183 44.9158 86.0183Z" fill="#BABABA"/>
<path opacity="0.46" d="M44.8859 85.9287C23.1879 85.9287 5.52475 68.2725 5.52475 46.5832C5.52475 24.8939 23.1879 7.23767 44.8859 7.23767C66.5838 7.23767 84.2471 24.8939 84.2471 46.5832C84.2471 68.2725 66.5838 85.9287 44.8859 85.9287Z" fill="#B9B9B9"/>
<path opacity="0.46" d="M44.8261 85.869C23.1282 85.869 5.465 68.2128 5.465 46.5235C5.465 24.8341 23.1282 7.17792 44.8261 7.17792C66.5241 7.17792 84.1873 24.8341 84.1873 46.5235C84.1873 68.2128 66.5241 85.869 44.8261 85.869Z" fill="#B8B8B8"/>
<path opacity="0.47" d="M44.7664 85.7794C23.0684 85.7794 5.40521 68.1232 5.40521 46.4338C5.40521 24.7445 23.0684 7.08829 44.7664 7.08829C66.4643 7.08829 84.1275 24.7445 84.1275 46.4338C84.1275 68.1232 66.4643 85.7794 44.7664 85.7794Z" fill="#B7B7B7"/>
<path opacity="0.48" d="M44.7365 85.7196C23.0385 85.7196 5.37534 68.0634 5.37534 46.3741C5.37534 24.6847 23.0385 7.02853 44.7365 7.02853C66.4344 7.02853 84.0976 24.6847 84.0976 46.3741C84.0976 68.0634 66.4344 85.7196 44.7365 85.7196Z" fill="#B6B6B6"/>
<path opacity="0.48" d="M44.6767 85.6599C22.9787 85.6599 5.31555 68.0037 5.31555 46.3143C5.31555 24.625 22.9787 6.96878 44.6767 6.96878C66.3746 6.96878 84.0379 24.625 84.0379 46.3143C84.0379 68.0037 66.3746 85.6599 44.6767 85.6599Z" fill="#B5B5B5"/>
<path opacity="0.49" d="M44.6169 85.5702C22.919 85.5702 5.25577 67.914 5.25577 46.2247C5.25577 24.5354 22.919 6.87915 44.6169 6.87915C66.3149 6.87915 83.9781 24.5354 83.9781 46.2247C83.9781 67.914 66.3149 85.5702 44.6169 85.5702Z" fill="#B4B4B4"/>
<path opacity="0.5" d="M44.5571 85.5105C22.8592 85.5105 5.19598 67.8543 5.19598 46.165C5.19598 24.4756 22.8592 6.81943 44.5571 6.81943C66.2551 6.81943 83.9183 24.4756 83.9183 46.165C83.9183 67.8543 66.2551 85.5105 44.5571 85.5105Z" fill="#B3B3B3"/>
<path opacity="0.5" d="M44.5273 85.4507C22.8293 85.4507 5.16614 67.7946 5.16614 46.1052C5.16614 24.4159 22.8293 6.75967 44.5273 6.75967C66.2252 6.75967 83.8884 24.4159 83.8884 46.1052C83.8884 67.7946 66.2252 85.4507 44.5273 85.4507Z" fill="#B2B2B2"/>
<path opacity="0.51" d="M44.4675 85.3611C22.7695 85.3611 5.10632 67.7049 5.10632 46.0156C5.10632 24.3262 22.7695 6.67004 44.4675 6.67004C66.1654 6.67004 83.8286 24.3262 83.8286 46.0156C83.8286 67.7049 66.1654 85.3611 44.4675 85.3611Z" fill="#B1B1B1"/>
<path opacity="0.52" d="M44.4077 85.3013C22.7098 85.3013 5.04657 67.6452 5.04657 45.9558C5.04657 24.2665 22.7098 6.61029 44.4077 6.61029C66.1057 6.61029 83.7689 24.2665 83.7689 45.9558C83.7689 67.6452 66.1057 85.3013 44.4077 85.3013Z" fill="#B0B0B0"/>
<path opacity="0.52" d="M44.3479 85.2416C22.65 85.2416 4.98679 67.5854 4.98679 45.8961C4.98679 24.2067 22.65 6.55054 44.3479 6.55054C66.0459 6.55054 83.7091 24.2067 83.7091 45.8961C83.7091 67.5854 66.0459 85.2416 44.3479 85.2416Z" fill="#AFAFAF"/>
<path opacity="0.53" d="M44.3181 85.152C22.6201 85.152 4.95691 67.4958 4.95691 45.8064C4.95691 24.1171 22.6201 6.46091 44.3181 6.46091C66.016 6.46091 83.6792 24.1171 83.6792 45.8064C83.6792 67.4958 66.016 85.152 44.3181 85.152Z" fill="#AEAEAE"/>
<path opacity="0.54" d="M44.2583 85.0922C22.5603 85.0922 4.89713 67.436 4.89713 45.7467C4.89713 24.0573 22.5603 6.40115 44.2583 6.40115C65.9562 6.40115 83.6194 24.0573 83.6194 45.7467C83.6194 67.436 65.9562 85.0922 44.2583 85.0922Z" fill="#ADADAD"/>
<path opacity="0.54" d="M44.1985 85.0325C22.5006 85.0325 4.83737 67.3763 4.83737 45.6869C4.83737 23.9976 22.5006 6.3414 44.1985 6.3414C65.8965 6.3414 83.5597 23.9976 83.5597 45.6869C83.5597 67.3763 65.8965 85.0325 44.1985 85.0325Z" fill="#ACACAC"/>
<path opacity="0.55" d="M44.1686 84.9429C22.4707 84.9429 4.80746 67.2867 4.80746 45.5973C4.80746 23.908 22.4707 6.2518 44.1686 6.2518C65.8666 6.2518 83.5297 23.908 83.5297 45.5973C83.5297 67.2867 65.8666 84.9429 44.1686 84.9429Z" fill="#ABABAB"/>
<path opacity="0.56" d="M44.1089 84.8831C22.4109 84.8831 4.74771 67.2269 4.74771 45.5376C4.74771 23.8482 22.4109 6.19205 44.1089 6.19205C65.8068 6.19205 83.47 23.8482 83.47 45.5376C83.47 67.2269 65.8068 84.8831 44.1089 84.8831Z" fill="#AAAAAA"/>
<path opacity="0.56" d="M44.0491 84.8234C22.3511 84.8234 4.68793 67.1672 4.68793 45.4778C4.68793 23.7885 22.3511 6.13229 44.0491 6.13229C65.747 6.13229 83.4102 23.7885 83.4102 45.4778C83.4102 67.1672 65.747 84.8234 44.0491 84.8234Z" fill="#A9A9A9"/>
<path opacity="0.57" d="M43.9893 84.7337C22.2913 84.7337 4.62814 67.0775 4.62814 45.3882C4.62814 23.6989 22.2913 6.04266 43.9893 6.04266C65.6872 6.04266 83.3504 23.6989 83.3504 45.3882C83.3504 67.0775 65.6872 84.7337 43.9893 84.7337Z" fill="#A8A8A8"/>
<path opacity="0.58" d="M43.9594 84.674C22.2615 84.674 4.59827 67.0178 4.59827 45.3284C4.59827 23.6391 22.2615 5.98291 43.9594 5.98291C65.6574 5.98291 83.3205 23.6391 83.3205 45.3284C83.3205 67.0178 65.6574 84.674 43.9594 84.674Z" fill="#A7A7A7"/>
<path opacity="0.58" d="M43.8996 84.6142C22.2017 84.6142 4.53848 66.958 4.53848 45.2687C4.53848 23.5794 22.2017 5.92316 43.8996 5.92316C65.5976 5.92316 83.2608 23.5794 83.2608 45.2687C83.2608 66.958 65.5976 84.6142 43.8996 84.6142Z" fill="#A6A6A6"/>
<path opacity="0.59" d="M43.8399 84.5246C22.1419 84.5246 4.47873 66.8684 4.47873 45.1791C4.47873 23.4897 22.1419 5.83353 43.8399 5.83353C65.5378 5.83353 83.201 23.4897 83.201 45.1791C83.201 66.8684 65.5378 84.5246 43.8399 84.5246Z" fill="#A5A5A5"/>
<path opacity="0.59" d="M43.7801 84.4649C22.0821 84.4649 4.41895 66.8087 4.41895 45.1193C4.41895 23.43 22.0821 5.7738 43.7801 5.7738C65.478 5.7738 83.1412 23.43 83.1412 45.1193C83.1412 66.8087 65.478 84.4649 43.7801 84.4649Z" fill="#A4A4A4"/>
<path opacity="0.6" d="M43.7502 84.4051C22.0523 84.4051 4.38907 66.7489 4.38907 45.0596C4.38907 23.3703 22.0523 5.71405 43.7502 5.71405C65.4482 5.71405 83.1114 23.3703 83.1114 45.0596C83.1114 66.7489 65.4482 84.4051 43.7502 84.4051Z" fill="#A3A3A3"/>
<path opacity="0.61" d="M43.6904 84.3155C21.9925 84.3155 4.32928 66.6593 4.32928 44.9699C4.32928 23.2806 21.9925 5.62439 43.6904 5.62439C65.3884 5.62439 83.0516 23.2806 83.0516 44.9699C83.0516 66.6593 65.3884 84.3155 43.6904 84.3155Z" fill="#A2A2A2"/>
<path opacity="0.61" d="M43.6306 84.2557C21.9327 84.2557 4.2695 66.5995 4.2695 44.9102C4.2695 23.2209 21.9327 5.56467 43.6306 5.56467C65.3286 5.56467 82.9918 23.2209 82.9918 44.9102C82.9918 66.5995 65.3286 84.2557 43.6306 84.2557Z" fill="#A1A1A1"/>
<path opacity="0.62" d="M43.6008 84.196C21.9028 84.196 4.23962 66.5398 4.23962 44.8505C4.23962 23.1611 21.9028 5.50491 43.6008 5.50491C65.2987 5.50491 82.9619 23.1611 82.9619 44.8505C82.9619 66.5398 65.2987 84.196 43.6008 84.196Z" fill="#A0A0A0"/>
<path opacity="0.63" d="M43.541 84.1064C21.843 84.1064 4.17984 66.4501 4.17984 44.7608C4.17984 23.0715 21.843 5.41528 43.541 5.41528C65.2389 5.41528 82.9021 23.0715 82.9021 44.7608C82.9021 66.4501 65.2389 84.1064 43.541 84.1064Z" fill="#9F9F9F"/>
<path opacity="0.63" d="M43.4812 84.0466C21.7833 84.0466 4.12006 66.3904 4.12006 44.7011C4.12006 23.0117 21.7833 5.35553 43.4812 5.35553C65.1792 5.35553 82.8424 23.0117 82.8424 44.7011C82.8424 66.3904 65.1792 84.0466 43.4812 84.0466Z" fill="#9E9E9E"/>
<path opacity="0.64" d="M43.4214 83.9868C21.7235 83.9868 4.0603 66.3307 4.0603 44.6413C4.0603 22.952 21.7235 5.29578 43.4214 5.29578C65.1194 5.29578 82.7826 22.952 82.7826 44.6413C82.7826 66.3307 65.1194 83.9868 43.4214 83.9868Z" fill="#9D9D9D"/>
<path opacity="0.65" d="M43.3915 83.8972C21.6936 83.8972 4.0304 66.241 4.0304 44.5517C4.0304 22.8623 21.6936 5.20615 43.3915 5.20615C65.0895 5.20615 82.7527 22.8623 82.7527 44.5517C82.7527 66.241 65.0895 83.8972 43.3915 83.8972Z" fill="#9C9C9C"/>
<path opacity="0.65" d="M43.3318 83.8375C21.6338 83.8375 3.97064 66.1813 3.97064 44.4919C3.97064 22.8026 21.6338 5.14639 43.3318 5.14639C65.0297 5.14639 82.6929 22.8026 82.6929 44.4919C82.6929 66.1813 65.0297 83.8375 43.3318 83.8375Z" fill="#9B9B9B"/>
<path opacity="0.66" d="M43.272 83.7777C21.5741 83.7777 3.91086 66.1215 3.91086 44.4322C3.91086 22.7428 21.5741 5.08664 43.272 5.08664C64.97 5.08664 82.6332 22.7428 82.6332 44.4322C82.6332 66.1215 64.97 83.7777 43.272 83.7777Z" fill="#9A9A9A"/>
<path opacity="0.67" d="M43.2421 83.6881C21.5442 83.6881 3.88098 66.0319 3.88098 44.3426C3.88098 22.6532 21.5442 4.99704 43.2421 4.99704C64.9401 4.99704 82.6033 22.6532 82.6033 44.3426C82.6033 66.0319 64.9401 83.6881 43.2421 83.6881Z" fill="#999999"/>
<path opacity="0.67" d="M43.1823 83.6284C21.4844 83.6284 3.8212 65.9722 3.8212 44.2828C3.8212 22.5935 21.4844 4.93729 43.1823 4.93729C64.8803 4.93729 82.5435 22.5935 82.5435 44.2828C82.5435 65.9722 64.8803 83.6284 43.1823 83.6284Z" fill="#989898"/>
<path opacity="0.68" d="M43.1226 83.5387C21.4246 83.5387 3.76144 65.8825 3.76144 44.1932C3.76144 22.5039 21.4246 4.84766 43.1226 4.84766C64.8205 4.84766 82.4837 22.5039 82.4837 44.1932C82.4837 65.8825 64.8205 83.5387 43.1226 83.5387Z" fill="#979797"/>
<path opacity="0.69" d="M43.0628 83.479C21.3649 83.479 3.70166 65.8228 3.70166 44.1334C3.70166 22.4441 21.3649 4.7879 43.0628 4.7879C64.7608 4.7879 82.424 22.4441 82.424 44.1334C82.424 65.8228 64.7608 83.479 43.0628 83.479Z" fill="#969696"/>
<path opacity="0.69" d="M43.0329 83.4192C21.335 83.4192 3.67178 65.763 3.67178 44.0737C3.67178 22.3844 21.335 4.72815 43.0329 4.72815C64.7309 4.72815 82.3941 22.3844 82.3941 44.0737C82.3941 65.763 64.7309 83.4192 43.0329 83.4192Z" fill="#959595"/>
<path opacity="0.7" d="M42.9731 83.3296C21.2752 83.3296 3.612 65.6734 3.612 43.9841C3.612 22.2947 21.2752 4.63852 42.9731 4.63852C64.6711 4.63852 82.3343 22.2947 82.3343 43.9841C82.3343 65.6734 64.6711 83.3296 42.9731 83.3296Z" fill="#949494"/>
<path opacity="0.71" d="M42.9134 83.2698C21.2154 83.2698 3.55222 65.6136 3.55222 43.9243C3.55222 22.235 21.2154 4.57877 42.9134 4.57877C64.6113 4.57877 82.2745 22.235 82.2745 43.9243C82.2745 65.6136 64.6113 83.2698 42.9134 83.2698Z" fill="#939393"/>
<path opacity="0.71" d="M42.8536 83.2101C21.1557 83.2101 3.49243 65.5539 3.49243 43.8646C3.49243 22.1752 21.1557 4.51904 42.8536 4.51904C64.5515 4.51904 82.2147 22.1752 82.2147 43.8646C82.2147 65.5539 64.5515 83.2101 42.8536 83.2101Z" fill="#929292"/>
<path opacity="0.72" d="M42.8237 83.1205C21.1258 83.1205 3.46255 65.4643 3.46255 43.775C3.46255 22.0856 21.1258 4.42941 42.8237 4.42941C64.5216 4.42941 82.1848 22.0856 82.1848 43.775C82.1848 65.4643 64.5216 83.1205 42.8237 83.1205Z" fill="#919191"/>
<path opacity="0.73" d="M42.7639 83.0607C21.066 83.0607 3.40277 65.4045 3.40277 43.7152C3.40277 22.0259 21.066 4.36966 42.7639 4.36966C64.4619 4.36966 82.1251 22.0259 82.1251 43.7152C82.1251 65.4045 64.4619 83.0607 42.7639 83.0607Z" fill="#909090"/>
<path opacity="0.73" d="M42.7042 83.001C21.0062 83.001 3.34302 65.3448 3.34302 43.6554C3.34302 21.9661 21.0062 4.30991 42.7042 4.30991C64.4021 4.30991 82.0653 21.9661 82.0653 43.6554C82.0653 65.3448 64.4021 83.001 42.7042 83.001Z" fill="#8F8F8F"/>
<path opacity="0.74" d="M42.6743 82.9113C20.9763 82.9113 3.31311 65.2552 3.31311 43.5658C3.31311 21.8765 20.9763 4.22028 42.6743 4.22028C64.3722 4.22028 82.0354 21.8765 82.0354 43.5658C82.0354 65.2552 64.3722 82.9113 42.6743 82.9113Z" fill="#8E8E8E"/>
<path opacity="0.75" d="M42.6145 82.8516C20.9166 82.8516 3.25336 65.1954 3.25336 43.5061C3.25336 21.8167 20.9166 4.16052 42.6145 4.16052C64.3124 4.16052 81.9756 21.8167 81.9756 43.5061C81.9756 65.1954 64.3124 82.8516 42.6145 82.8516Z" fill="#8D8D8D"/>
<path opacity="0.75" d="M42.5547 82.7918C20.8568 82.7918 3.19357 65.1356 3.19357 43.4463C3.19357 21.757 20.8568 4.10077 42.5547 4.10077C64.2527 4.10077 81.9159 21.757 81.9159 43.4463C81.9159 65.1356 64.2527 82.7918 42.5547 82.7918Z" fill="#8C8C8C"/>
<path opacity="0.76" d="M42.495 82.7022C20.797 82.7022 3.13382 65.046 3.13382 43.3567C3.13382 21.6674 20.797 4.01117 42.495 4.01117C64.1929 4.01117 81.8561 21.6674 81.8561 43.3567C81.8561 65.046 64.1929 82.7022 42.495 82.7022Z" fill="#8B8B8B"/>
<path opacity="0.76" d="M42.4651 82.6425C20.7671 82.6425 3.10391 64.9863 3.10391 43.2969C3.10391 21.6076 20.7671 3.95142 42.4651 3.95142C64.163 3.95142 81.8262 21.6076 81.8262 43.2969C81.8262 64.9863 64.163 82.6425 42.4651 82.6425Z" fill="#8A8A8A"/>
<path opacity="0.77" d="M42.4053 82.5827C20.7073 82.5827 3.04413 64.9265 3.04413 43.2372C3.04413 21.5479 20.7073 3.89166 42.4053 3.89166C64.1032 3.89166 81.7664 21.5479 81.7664 43.2372C81.7664 64.9265 64.1032 82.5827 42.4053 82.5827Z" fill="#898989"/>
<path opacity="0.78" d="M42.3455 82.4931C20.6476 82.4931 2.98438 64.8369 2.98438 43.1476C2.98438 21.4582 20.6476 3.80203 42.3455 3.80203C64.0435 3.80203 81.7067 21.4582 81.7067 43.1476C81.7067 64.8369 64.0435 82.4931 42.3455 82.4931Z" fill="#888888"/>
<path opacity="0.78" d="M42.2857 82.4333C20.5878 82.4333 2.92459 64.7771 2.92459 43.0878C2.92459 21.3985 20.5878 3.74228 42.2857 3.74228C63.9837 3.74228 81.6469 21.3985 81.6469 43.0878C81.6469 64.7771 63.9837 82.4333 42.2857 82.4333Z" fill="#878787"/>
<path opacity="0.79" d="M42.2559 82.3736C20.5579 82.3736 2.89471 64.7174 2.89471 43.0281C2.89471 21.3387 20.5579 3.68253 42.2559 3.68253C63.9538 3.68253 81.617 21.3387 81.617 43.0281C81.617 64.7174 63.9538 82.3736 42.2559 82.3736Z" fill="#868686"/>
<path opacity="0.8" d="M42.1961 82.284C20.4981 82.284 2.83493 64.6278 2.83493 42.9384C2.83493 21.2491 20.4981 3.5929 42.1961 3.5929C63.894 3.5929 81.5572 21.2491 81.5572 42.9384C81.5572 64.6278 63.894 82.284 42.1961 82.284Z" fill="#858585"/>
<path opacity="0.8" d="M42.1363 82.2242C20.4383 82.2242 2.77515 64.568 2.77515 42.8787C2.77515 21.1893 20.4383 3.53314 42.1363 3.53314C63.8342 3.53314 81.4974 21.1893 81.4974 42.8787C81.4974 64.568 63.8342 82.2242 42.1363 82.2242Z" fill="#848484"/>
<path opacity="0.81" d="M42.1064 82.1645C20.4085 82.1645 2.74527 64.5083 2.74527 42.8189C2.74527 21.1296 20.4085 3.47339 42.1064 3.47339C63.8044 3.47339 81.4676 21.1296 81.4676 42.8189C81.4676 64.5083 63.8044 82.1645 42.1064 82.1645Z" fill="#838383"/>
<path opacity="0.82" d="M42.0466 82.0748C20.3487 82.0748 2.68549 64.4186 2.68549 42.7293C2.68549 21.0399 20.3487 3.38376 42.0466 3.38376C63.7446 3.38376 81.4078 21.0399 81.4078 42.7293C81.4078 64.4186 63.7446 82.0748 42.0466 82.0748Z" fill="#828282"/>
<path opacity="0.82" d="M41.9869 82.0151C20.2889 82.0151 2.6257 64.3589 2.6257 42.6696C2.6257 20.9802 20.2889 3.32404 41.9869 3.32404C63.6848 3.32404 81.348 20.9802 81.348 42.6696C81.348 64.3589 63.6848 82.0151 41.9869 82.0151Z" fill="#818181"/>
<path opacity="0.83" d="M41.9271 81.9554C20.2291 81.9554 2.56595 64.2992 2.56595 42.6098C2.56595 20.9205 20.2291 3.26428 41.9271 3.26428C63.625 3.26428 81.2882 20.9205 81.2882 42.6098C81.2882 64.2992 63.625 81.9554 41.9271 81.9554Z" fill="#808080"/>
<path opacity="0.84" d="M41.8972 81.8657C20.1992 81.8657 2.53604 64.2095 2.53604 42.5202C2.53604 20.8308 20.1992 3.17465 41.8972 3.17465C63.5951 3.17465 81.2583 20.8308 81.2583 42.5202C81.2583 64.2095 63.5951 81.8657 41.8972 81.8657Z" fill="#7F7F7F"/>
<path opacity="0.84" d="M41.8374 81.806C20.1395 81.806 2.47629 64.1498 2.47629 42.4604C2.47629 20.7711 20.1395 3.1149 41.8374 3.1149C63.5354 3.1149 81.1986 20.7711 81.1986 42.4604C81.1986 64.1498 63.5354 81.806 41.8374 81.806Z" fill="#7E7E7E"/>
<path opacity="0.85" d="M41.7777 81.7462C20.0797 81.7462 2.4165 64.09 2.4165 42.4007C2.4165 20.7113 20.0797 3.05515 41.7777 3.05515C63.4756 3.05515 81.1388 20.7113 81.1388 42.4007C81.1388 64.09 63.4756 81.7462 41.7777 81.7462Z" fill="#7D7D7D"/>
<path opacity="0.86" d="M41.7478 81.6566C20.0498 81.6566 2.38663 64.0004 2.38663 42.311C2.38663 20.6217 20.0498 2.96552 41.7478 2.96552C63.4457 2.96552 81.1089 20.6217 81.1089 42.311C81.1089 64.0004 63.4457 81.6566 41.7478 81.6566Z" fill="#7C7C7C"/>
<path opacity="0.86" d="M41.688 81.5968C19.99 81.5968 2.32684 63.9406 2.32684 42.2513C2.32684 20.562 19.99 2.90576 41.688 2.90576C63.3859 2.90576 81.0491 20.562 81.0491 42.2513C81.0491 63.9406 63.3859 81.5968 41.688 81.5968Z" fill="#7B7B7B"/>
<path opacity="0.87" d="M41.6282 81.5371C19.9303 81.5371 2.26709 63.8809 2.26709 42.1915C2.26709 20.5022 19.9303 2.84601 41.6282 2.84601C63.3262 2.84601 80.9894 20.5022 80.9894 42.1915C80.9894 63.8809 63.3262 81.5371 41.6282 81.5371Z" fill="#7A7A7A"/>
<path opacity="0.88" d="M41.5685 81.4475C19.8705 81.4475 2.20731 63.7913 2.20731 42.1019C2.20731 20.4126 19.8705 2.75641 41.5685 2.75641C63.2664 2.75641 80.9296 20.4126 80.9296 42.1019C80.9296 63.7913 63.2664 81.4475 41.5685 81.4475Z" fill="#797979"/>
<path opacity="0.88" d="M41.5386 81.3877C19.8406 81.3877 2.17743 63.7315 2.17743 42.0422C2.17743 20.3529 19.8406 2.69666 41.5386 2.69666C63.2365 2.69666 80.8997 20.3529 80.8997 42.0422C80.8997 63.7315 63.2365 81.3877 41.5386 81.3877Z" fill="#787878"/>
<path opacity="0.89" d="M41.4788 81.2981C19.7808 81.2981 2.11765 63.6419 2.11765 41.9526C2.11765 20.2632 19.7808 2.60703 41.4788 2.60703C63.1767 2.60703 80.84 20.2632 80.84 41.9526C80.84 63.6419 63.1767 81.2981 41.4788 81.2981Z" fill="#777777"/>
<path opacity="0.9" d="M41.419 81.2383C19.7211 81.2383 2.05789 63.5821 2.05789 41.8928C2.05789 20.2035 19.7211 2.54727 41.419 2.54727C63.117 2.54727 80.7802 20.2035 80.7802 41.8928C80.7802 63.5821 63.117 81.2383 41.419 81.2383Z" fill="#767676"/>
<path opacity="0.9" d="M41.3592 81.1786C19.6613 81.1786 1.99808 63.5224 1.99808 41.8331C1.99808 20.1437 19.6613 2.48752 41.3592 2.48752C63.0572 2.48752 80.7204 20.1437 80.7204 41.8331C80.7204 63.5224 63.0572 81.1786 41.3592 81.1786Z" fill="#757575"/>
<path opacity="0.91" d="M41.3294 81.089C19.6314 81.089 1.96823 63.4328 1.96823 41.7434C1.96823 20.0541 19.6314 2.39789 41.3294 2.39789C63.0273 2.39789 80.6905 20.0541 80.6905 41.7434C80.6905 63.4328 63.0273 81.089 41.3294 81.089Z" fill="#747474"/>
<path opacity="0.92" d="M41.2696 81.0292C19.5716 81.0292 1.90845 63.373 1.90845 41.6837C1.90845 19.9943 19.5716 2.33813 41.2696 2.33813C62.9675 2.33813 80.6308 19.9943 80.6308 41.6837C80.6308 63.373 62.9675 81.0292 41.2696 81.0292Z" fill="#737373"/>
<path opacity="0.92" d="M41.2098 80.9695C19.5119 80.9695 1.84866 63.3133 1.84866 41.6239C1.84866 19.9346 19.5119 2.27838 41.2098 2.27838C62.9077 2.27838 80.5709 19.9346 80.5709 41.6239C80.5709 63.3133 62.9077 80.9695 41.2098 80.9695Z" fill="#727272"/>
<path opacity="0.93" d="M41.1799 80.8799C19.482 80.8799 1.81879 63.2237 1.81879 41.5343C1.81879 19.845 19.482 2.18878 41.1799 2.18878C62.8779 2.18878 80.5411 19.845 80.5411 41.5343C80.5411 63.2237 62.8779 80.8799 41.1799 80.8799Z" fill="#717171"/>
<path opacity="0.93" d="M41.1201 80.8201C19.4222 80.8201 1.759 63.1639 1.759 41.4746C1.759 19.7852 19.4222 2.12903 41.1201 2.12903C62.8181 2.12903 80.4813 19.7852 80.4813 41.4746C80.4813 63.1639 62.8181 80.8201 41.1201 80.8201Z" fill="#707070"/>
<path opacity="0.94" d="M41.0604 80.7603C19.3624 80.7603 1.69922 63.1042 1.69922 41.4148C1.69922 19.7255 19.3624 2.06927 41.0604 2.06927C62.7583 2.06927 80.4215 19.7255 80.4215 41.4148C80.4215 63.1042 62.7583 80.7603 41.0604 80.7603Z" fill="#6F6F6F"/>
<path opacity="0.95" d="M41.0006 80.6707C19.3027 80.6707 1.63947 63.0145 1.63947 41.3252C1.63947 19.6358 19.3027 1.97964 41.0006 1.97964C62.6986 1.97964 80.3617 19.6358 80.3617 41.3252C80.3617 63.0145 62.6986 80.6707 41.0006 80.6707Z" fill="#6E6E6E"/>
<path opacity="0.95" d="M40.9707 80.6109C19.2728 80.6109 1.60956 62.9548 1.60956 41.2654C1.60956 19.5761 19.2728 1.91989 40.9707 1.91989C62.6686 1.91989 80.3318 19.5761 80.3318 41.2654C80.3318 62.9548 62.6686 80.6109 40.9707 80.6109Z" fill="#6D6D6D"/>
<path opacity="0.96" d="M40.9109 80.5512C19.213 80.5512 1.54977 62.895 1.54977 41.2057C1.54977 19.5163 19.213 1.86014 40.9109 1.86014C62.6089 1.86014 80.2721 19.5163 80.2721 41.2057C80.2721 62.895 62.6089 80.5512 40.9109 80.5512Z" fill="#6C6C6C"/>
<path opacity="0.97" d="M40.8512 80.4616C19.1532 80.4616 1.49002 62.8054 1.49002 41.116C1.49002 19.4267 19.1532 1.77051 40.8512 1.77051C62.5491 1.77051 80.2123 19.4267 80.2123 41.116C80.2123 62.8054 62.5491 80.4616 40.8512 80.4616Z" fill="#6B6B6B"/>
<path opacity="0.97" d="M40.7914 80.4018C19.0935 80.4018 1.43027 62.7457 1.43027 41.0563C1.43027 19.367 19.0935 1.71078 40.7914 1.71078C62.4894 1.71078 80.1525 19.367 80.1525 41.0563C80.1525 62.7457 62.4894 80.4018 40.7914 80.4018Z" fill="#6A6A6A"/>
<path opacity="0.98" d="M40.7615 80.3421C19.0636 80.3421 1.40036 62.6859 1.40036 40.9966C1.40036 19.3072 19.0636 1.65103 40.7615 1.65103C62.4594 1.65103 80.1226 19.3072 80.1226 40.9966C80.1226 62.6859 62.4594 80.3421 40.7615 80.3421Z" fill="#696969"/>
<path opacity="0.99" d="M40.7017 80.2525C19.0038 80.2525 1.34058 62.5963 1.34058 40.9069C1.34058 19.2176 19.0038 1.5614 40.7017 1.5614C62.3997 1.5614 80.0629 19.2176 80.0629 40.9069C80.0629 62.5963 62.3997 80.2525 40.7017 80.2525Z" fill="#686868"/>
<path opacity="0.99" d="M40.642 80.1927C18.944 80.1927 1.28082 62.5365 1.28082 40.8472C1.28082 19.1578 18.944 1.50165 40.642 1.50165C62.3399 1.50165 80.0031 19.1578 80.0031 40.8472C80.0031 62.5365 62.3399 80.1927 40.642 80.1927Z" fill="#676767"/>
<path d="M40.6121 80.133C18.9141 80.133 1.25092 62.4768 1.25092 40.7874C1.25092 19.0981 18.9141 1.44189 40.6121 1.44189C62.31 1.44189 79.9732 19.0981 79.9732 40.7874C79.9732 62.4768 62.31 80.133 40.6121 80.133Z" fill="#666666"/>
</g>
<path d="M40.5523 80.6408C18.5256 80.6408 0.593414 62.7157 0.593414 40.6978C0.593414 18.6798 18.5256 0.754761 40.5523 0.754761C62.579 0.754761 80.5112 18.6798 80.5112 40.6978C80.5112 62.7157 62.579 80.6408 40.5523 80.6408Z" fill="url(#paint0_linear_368_4454)"/>
<path d="M40.5523 72.6343C58.1973 72.6343 72.5015 58.3358 72.5015 40.6978C72.5015 23.0597 58.1973 8.76129 40.5523 8.76129C22.9073 8.76129 8.60312 23.0597 8.60312 40.6978C8.60312 58.3358 22.9073 72.6343 40.5523 72.6343Z" fill="url(#paint1_linear_368_4454)"/>
<path d="M40.5523 71.1704C57.3885 71.1704 71.037 57.5273 71.037 40.6978C71.037 23.8682 57.3885 10.2252 40.5523 10.2252C23.7161 10.2252 10.0676 23.8682 10.0676 40.6978C10.0676 57.5273 23.7161 71.1704 40.5523 71.1704Z" fill="#E31E25"/>
<path d="M57.4683 44.6712C56.7211 43.2969 54.9877 42.7891 53.583 43.5359L51.73 44.5517C51.73 44.5517 51.6702 44.4322 51.6403 44.3426C50.8932 42.9683 49.1597 42.4306 47.755 43.2073L44.587 44.9401C43.6904 44.6413 42.7639 44.3724 41.8673 44.0737C40.5822 43.6554 39.2671 43.2372 37.982 42.8189C35.7405 42.1019 33.5587 42.3111 31.4965 43.4164L25.9674 46.4338L25.3398 45.3583C25.0111 44.7907 24.2938 44.5816 23.7259 44.9102L20.797 46.5832C20.2291 46.9118 20.0199 47.6288 20.3487 48.1965L26.9238 59.6386C27.133 60.027 27.5514 60.2361 27.9699 60.2361C28.1791 60.2361 28.3883 60.1764 28.5676 60.0868L31.4965 58.4137C32.0644 58.0851 32.2736 57.3681 31.9448 56.8005L31.3471 55.7847L31.6758 55.6055C32.9012 54.9482 34.2162 54.7989 35.5612 55.247L38.4004 56.1731C39.0579 56.3822 39.6855 56.4719 40.3132 56.4719C41.2994 56.4719 42.2857 56.203 43.2122 55.6951L56.3326 48.555C56.9901 48.1965 57.4982 47.599 57.7074 46.8521C57.9166 46.1052 57.8568 45.3583 57.4683 44.6712ZM48.3528 44.2529C49.1597 43.8048 50.146 44.1036 50.5943 44.9102C50.6242 44.9699 50.6541 45.0297 50.684 45.1193L47.4861 46.8521C47.2171 46.2546 46.7389 45.7467 46.1411 45.448L48.3528 44.2529ZM27.9998 59.0411L21.4246 47.6288L24.3236 45.9558L25.2203 47.5093C25.2203 47.5093 25.2203 47.5093 25.2203 47.5392L30.8689 57.3681L27.9699 59.0411H27.9998ZM56.5418 46.5235C56.4223 46.9417 56.1234 47.3002 55.7349 47.5093L42.6145 54.6495C41.3891 55.3067 40.0741 55.4561 38.7292 55.008L35.8899 54.0819C34.2162 53.5441 32.6023 53.6935 31.0781 54.53L30.7494 54.7092L26.5652 47.4795L32.0644 44.4919C33.8277 43.5359 35.6807 43.3567 37.5935 43.9841C38.8786 44.4023 40.1936 44.8206 41.4788 45.2388C42.465 45.5675 43.4513 45.8662 44.4675 46.1948C44.7663 46.2845 45.0652 46.3741 45.3641 46.4936C45.9618 46.7027 46.4101 47.2404 46.4998 47.8678C46.4998 47.8678 46.4998 47.8977 46.4998 47.9276V47.9873C46.4998 48.1965 46.4998 48.3757 46.4101 48.555C46.1411 49.4213 45.1848 49.8993 44.318 49.6305C42.6743 49.0927 41.0305 48.555 39.3568 48.0471L37.713 47.5093C37.3843 47.4197 37.0555 47.5691 36.9658 47.8977C36.8762 48.2263 37.0256 48.555 37.3544 48.6446L38.9982 49.1823C40.6419 49.7201 42.2857 50.2578 43.9594 50.7657C44.2583 50.8553 44.5571 50.9151 44.8261 50.9151C46.0216 50.9151 47.1573 50.1383 47.5458 48.9433C47.6355 48.6745 47.6654 48.4056 47.6654 48.1367L51.6104 45.9857L54.0911 44.6413C54.898 44.1932 55.8843 44.4919 56.3326 45.2986C56.5418 45.6869 56.6016 46.1351 56.4521 46.5533L56.5418 46.5235ZM39.1476 39.8314C41.8374 39.8314 44.2882 38.6962 46.0216 36.6647C47.247 37.5609 48.7712 38.1286 50.415 38.1286C54.4796 38.1286 57.7971 34.8124 57.7971 30.7494C57.7971 26.6864 54.4796 23.3702 50.415 23.3702C48.7712 23.3702 47.247 23.908 46.0216 24.8341C44.2882 22.8325 41.8075 21.6674 39.1476 21.6674C34.1266 21.6674 30.0619 25.7304 30.0619 30.7494C30.0619 35.7684 34.1266 39.8314 39.1476 39.8314ZM56.6016 30.7494C56.6016 34.1551 53.8221 36.9335 50.415 36.9335C47.0079 36.9335 44.2284 34.1551 44.2284 30.7494C44.2284 27.3436 47.0079 24.5652 50.415 24.5652C53.8221 24.5652 56.6016 27.3436 56.6016 30.7494ZM43.81 33.9759C42.7639 35.4995 41.0305 36.3958 39.1775 36.3958C36.0692 36.3958 33.5288 33.8564 33.5288 30.7494C33.5288 27.6424 36.0692 25.103 39.1775 25.103C41.0604 25.103 42.7639 25.9992 43.81 27.5229C43.3318 28.5088 43.0628 29.5843 43.0628 30.7494C43.0628 31.9145 43.3318 32.99 43.81 33.9759ZM39.1476 22.8624C41.4788 22.8624 43.6306 23.8482 45.125 25.6109C44.8859 25.8499 44.6468 26.1188 44.4675 26.4175C43.1823 24.8341 41.2397 23.908 39.1775 23.908C35.4117 23.908 32.3334 26.9851 32.3334 30.7494C32.3334 34.5137 35.4117 37.5908 39.1775 37.5908C41.2696 37.5908 43.1823 36.6647 44.4675 35.0813C44.6767 35.3502 44.8859 35.619 45.125 35.8879C43.6306 37.6506 41.4788 38.6364 39.1476 38.6364C34.814 38.6364 31.2574 35.1112 31.2574 30.7494C31.2574 26.3876 34.7841 22.8624 39.1476 22.8624ZM46.978 33.3485L53.0151 27.3138C53.2542 27.0748 53.6428 27.0748 53.8819 27.3138C54.121 27.5528 54.121 27.9411 53.8819 28.1801L47.8447 34.2149C47.8447 34.2149 47.5757 34.3942 47.4263 34.3942C47.2769 34.3942 47.1274 34.3344 47.0079 34.2149C46.7688 33.9759 46.7688 33.5875 47.0079 33.3485H46.978ZM48.3827 30.2415C49.2494 30.2415 49.9368 29.5544 49.9368 28.688C49.9368 27.8216 49.2494 27.1345 48.3827 27.1345C47.5159 27.1345 46.8285 27.8216 46.8285 28.688C46.8285 29.5544 47.5159 30.2415 48.3827 30.2415ZM48.3827 28.3295C48.5919 28.3295 48.7413 28.4789 48.7413 28.688C48.7413 28.8971 48.5919 29.0465 48.3827 29.0465C48.1735 29.0465 48.024 28.8971 48.024 28.688C48.024 28.4789 48.1735 28.3295 48.3827 28.3295ZM52.5071 31.2274C51.6403 31.2274 50.953 31.9145 50.953 32.7809C50.953 33.6473 51.6403 34.3344 52.5071 34.3344C53.3738 34.3344 54.0612 33.6473 54.0612 32.7809C54.0612 31.9145 53.3738 31.2274 52.5071 31.2274ZM52.5071 33.1693C52.2979 33.1693 52.1484 33.0199 52.1484 32.8108C52.1484 32.6017 52.2979 32.4523 52.5071 32.4523C52.7163 32.4523 52.8657 32.6017 52.8657 32.8108C52.8657 33.0199 52.7163 33.1693 52.5071 33.1693ZM41.2098 27.971H40.0143C40.2235 28.2399 40.3729 28.5685 40.4327 28.9569H41.4489L41.2098 29.7635H40.4327C40.3729 30.361 40.1339 30.8091 39.7154 31.1079C39.297 31.4066 38.7292 31.556 37.982 31.556L40.4626 34.4539V34.5137H39.3269L36.6371 31.3768V30.7494H37.8923C38.3108 30.7494 38.6694 30.6598 38.9085 30.4805C39.1775 30.3013 39.3269 30.0623 39.4166 29.7336H36.4876L36.7267 28.927H39.4166C39.2671 28.2996 38.7591 27.9411 37.9222 27.9411H36.5175L36.7566 27.1345H41.419L41.1799 27.9411L41.2098 27.971Z" fill="white"/>
<defs>
<linearGradient id="paint0_linear_368_4454" x1="0.593414" y1="40.6978" x2="80.4813" y2="40.6978" gradientUnits="userSpaceOnUse">
<stop stop-color="#E6E6E6"/>
<stop offset="1" stop-color="white"/>
</linearGradient>
<linearGradient id="paint1_linear_368_4454" x1="8.60312" y1="40.6978" x2="72.5015" y2="40.6978" gradientUnits="userSpaceOnUse">
<stop stop-color="white"/>
<stop offset="1" stop-color="#F2F2F2"/>
</linearGradient>
</defs>
</svg>
