<svg width="88" height="91" viewBox="0 0 88 91" fill="none" xmlns="http://www.w3.org/2000/svg">
<g style="mix-blend-mode:multiply" opacity="0.5">
<path opacity="0.01" d="M47.8548 89.9241C26.1569 89.9241 8.49366 72.2679 8.49366 50.5786C8.49366 28.8892 26.1569 11.233 47.8548 11.233C69.5528 11.233 87.216 28.8892 87.216 50.5786C87.216 72.2679 69.5528 89.9241 47.8548 89.9241Z" fill="#FDFDFD"/>
<path opacity="0.02" d="M47.795 89.8644C26.0971 89.8644 8.43389 72.2082 8.43389 50.5188C8.43389 28.8295 26.0971 11.1733 47.795 11.1733C69.493 11.1733 87.1562 28.8295 87.1562 50.5188C87.1562 72.2082 69.493 89.8644 47.795 89.8644Z" fill="#FCFCFC"/>
<path opacity="0.03" d="M47.7353 89.7747C26.0373 89.7747 8.37412 72.1185 8.37412 50.4292C8.37412 28.7399 26.0373 11.0837 47.7353 11.0837C69.4332 11.0837 87.0964 28.7399 87.0964 50.4292C87.0964 72.1185 69.4332 89.7747 47.7353 89.7747Z" fill="#FBFBFB"/>
<path opacity="0.03" d="M47.6755 89.715C25.9775 89.715 8.31434 72.0588 8.31434 50.3695C8.31434 28.6801 25.9775 11.0239 47.6755 11.0239C69.3734 11.0239 87.0366 28.6801 87.0366 50.3695C87.0366 72.0588 69.3734 89.715 47.6755 89.715Z" fill="#FAFAFA"/>
<path opacity="0.04" d="M47.6456 89.6552C25.9477 89.6552 8.28446 71.999 8.28446 50.3097C8.28446 28.6204 25.9477 10.9642 47.6456 10.9642C69.3435 10.9642 87.0067 28.6204 87.0067 50.3097C87.0067 71.999 69.3435 89.6552 47.6456 89.6552Z" fill="#F9F9F9"/>
<path opacity="0.05" d="M47.5858 89.5656C25.8879 89.5656 8.22468 71.9094 8.22468 50.2201C8.22468 28.5307 25.8879 10.8745 47.5858 10.8745C69.2838 10.8745 86.947 28.5307 86.947 50.2201C86.947 71.9094 69.2838 89.5656 47.5858 89.5656Z" fill="#F8F8F8"/>
<path opacity="0.05" d="M47.5261 89.5059C25.8281 89.5059 8.16491 71.8497 8.16491 50.1603C8.16491 28.471 25.8281 10.8148 47.5261 10.8148C69.224 10.8148 86.8872 28.471 86.8872 50.1603C86.8872 71.8497 69.224 89.5059 47.5261 89.5059Z" fill="#F7F7F7"/>
<path opacity="0.06" d="M47.4962 89.4461C25.7982 89.4461 8.13502 71.7899 8.13502 50.1006C8.13502 28.4112 25.7982 10.755 47.4962 10.755C69.1941 10.755 86.8573 28.4112 86.8573 50.1006C86.8573 71.7899 69.1941 89.4461 47.4962 89.4461Z" fill="#F6F6F6"/>
<path opacity="0.07" d="M47.4364 89.3565C25.7384 89.3565 8.07525 71.7003 8.07525 50.011C8.07525 28.3216 25.7384 10.6654 47.4364 10.6654C69.1343 10.6654 86.7975 28.3216 86.7975 50.011C86.7975 71.7003 69.1343 89.3565 47.4364 89.3565Z" fill="#F5F5F5"/>
<path opacity="0.07" d="M47.3766 89.2967C25.6787 89.2967 8.01547 71.6405 8.01547 49.9512C8.01547 28.2619 25.6787 10.6057 47.3766 10.6057C69.0746 10.6057 86.7378 28.2619 86.7378 49.9512C86.7378 71.6405 69.0746 89.2967 47.3766 89.2967Z" fill="#F4F4F4"/>
<path opacity="0.08" d="M47.3168 89.237C25.6189 89.237 7.9557 71.5808 7.9557 49.8915C7.9557 28.2021 25.6189 10.5459 47.3168 10.5459C69.0148 10.5459 86.678 28.2021 86.678 49.8915C86.678 71.5808 69.0148 89.237 47.3168 89.237Z" fill="#F3F3F3"/>
<path opacity="0.08" d="M47.287 89.1474C25.589 89.1474 7.92581 71.4912 7.92581 49.8018C7.92581 28.1125 25.589 10.4563 47.287 10.4563C68.9849 10.4563 86.6481 28.1125 86.6481 49.8018C86.6481 71.4912 68.9849 89.1474 47.287 89.1474Z" fill="#F2F2F2"/>
<path opacity="0.09" d="M47.2272 89.0876C25.5292 89.0876 7.86604 71.4314 7.86604 49.7421C7.86604 28.0527 25.5292 10.3965 47.2272 10.3965C68.9251 10.3965 86.5883 28.0527 86.5883 49.7421C86.5883 71.4314 68.9251 89.0876 47.2272 89.0876Z" fill="#F1F1F1"/>
<path opacity="0.1" d="M47.1674 89.0279C25.4695 89.0279 7.80627 71.3717 7.80627 49.6823C7.80627 27.993 25.4695 10.3368 47.1674 10.3368C68.8653 10.3368 86.5286 27.993 86.5286 49.6823C86.5286 71.3717 68.8653 89.0279 47.1674 89.0279Z" fill="#F0F0F0"/>
<path opacity="0.1" d="M47.1076 88.9382C25.4097 88.9382 7.74649 71.282 7.74649 49.5927C7.74649 27.9034 25.4097 10.2472 47.1076 10.2472C68.8056 10.2472 86.4688 27.9034 86.4688 49.5927C86.4688 71.282 68.8056 88.9382 47.1076 88.9382Z" fill="#EFEFEF"/>
<path opacity="0.11" d="M47.0777 88.8785C25.3798 88.8785 7.7166 71.2223 7.7166 49.533C7.7166 27.8436 25.3798 10.1874 47.0777 10.1874C68.7757 10.1874 86.4389 27.8436 86.4389 49.533C86.4389 71.2223 68.7757 88.8785 47.0777 88.8785Z" fill="#EEEEEE"/>
<path opacity="0.12" d="M47.018 88.8187C25.32 88.8187 7.65683 71.1625 7.65683 49.4732C7.65683 27.7839 25.32 10.1277 47.018 10.1277C68.7159 10.1277 86.3791 27.7839 86.3791 49.4732C86.3791 71.1625 68.7159 88.8187 47.018 88.8187Z" fill="#EDEDED"/>
<path opacity="0.12" d="M46.9582 88.7291C25.2603 88.7291 7.59706 71.0729 7.59706 49.3836C7.59706 27.6942 25.2603 10.038 46.9582 10.038C68.6561 10.038 86.3193 27.6942 86.3193 49.3836C86.3193 71.0729 68.6561 88.7291 46.9582 88.7291Z" fill="#ECECEC"/>
<path opacity="0.13" d="M46.9283 88.6694C25.2304 88.6694 7.56717 71.0132 7.56717 49.3238C7.56717 27.6345 25.2304 9.97829 46.9283 9.97829C68.6263 9.97829 86.2895 27.6345 86.2895 49.3238C86.2895 71.0132 68.6263 88.6694 46.9283 88.6694Z" fill="#EBEBEB"/>
<path opacity="0.14" d="M46.8685 88.6096C25.1706 88.6096 7.50739 70.9534 7.50739 49.2641C7.50739 27.5747 25.1706 9.91854 46.8685 9.91854C68.5665 9.91854 86.2297 27.5747 86.2297 49.2641C86.2297 70.9534 68.5665 88.6096 46.8685 88.6096Z" fill="#EAEAEA"/>
<path opacity="0.14" d="M46.8088 88.52C25.1108 88.52 7.44762 70.8638 7.44762 49.1744C7.44762 27.4851 25.1108 9.82891 46.8088 9.82891C68.5067 9.82891 86.1699 27.4851 86.1699 49.1744C86.1699 70.8638 68.5067 88.52 46.8088 88.52Z" fill="#E9E9E9"/>
<path opacity="0.15" d="M46.749 88.4602C25.051 88.4602 7.38785 70.804 7.38785 49.1147C7.38785 27.4254 25.051 9.76917 46.749 9.76917C68.4469 9.76917 86.1101 27.4254 86.1101 49.1147C86.1101 70.804 68.4469 88.4602 46.749 88.4602Z" fill="#E8E8E8"/>
<path opacity="0.16" d="M46.7191 88.4005C25.0212 88.4005 7.35796 70.7443 7.35796 49.0549C7.35796 27.3656 25.0212 9.70941 46.7191 9.70941C68.4171 9.70941 86.0802 27.3656 86.0802 49.0549C86.0802 70.7443 68.4171 88.4005 46.7191 88.4005Z" fill="#E7E7E7"/>
<path opacity="0.16" d="M46.6593 88.3109C24.9614 88.3109 7.29819 70.6547 7.29819 48.9653C7.29819 27.276 24.9614 9.61979 46.6593 9.61979C68.3573 9.61979 86.0205 27.276 86.0205 48.9653C86.0205 70.6547 68.3573 88.3109 46.6593 88.3109Z" fill="#E6E6E6"/>
<path opacity="0.17" d="M46.5996 88.2511C24.9016 88.2511 7.23841 70.5949 7.23841 48.9056C7.23841 27.2162 24.9016 9.56004 46.5996 9.56004C68.2975 9.56004 85.9607 27.2162 85.9607 48.9056C85.9607 70.5949 68.2975 88.2511 46.5996 88.2511Z" fill="#E5E5E5"/>
<path opacity="0.18" d="M46.5398 88.1914C24.8418 88.1914 7.17864 70.5352 7.17864 48.8458C7.17864 27.1565 24.8418 9.50029 46.5398 9.50029C68.2377 9.50029 85.9009 27.1565 85.9009 48.8458C85.9009 70.5352 68.2377 88.1914 46.5398 88.1914Z" fill="#E4E4E4"/>
<path opacity="0.18" d="M46.5099 88.1017C24.812 88.1017 7.14875 70.4455 7.14875 48.7562C7.14875 27.0669 24.812 9.41066 46.5099 9.41066C68.2078 9.41066 85.871 27.0669 85.871 48.7562C85.871 70.4455 68.2078 88.1017 46.5099 88.1017Z" fill="#E3E3E3"/>
<path opacity="0.19" d="M46.4501 88.042C24.7522 88.042 7.08898 70.3858 7.08898 48.6964C7.08898 27.0071 24.7522 9.35091 46.4501 9.35091C68.1481 9.35091 85.8113 27.0071 85.8113 48.6964C85.8113 70.3858 68.1481 88.042 46.4501 88.042Z" fill="#E2E2E2"/>
<path opacity="0.2" d="M46.3904 87.9524C24.6924 87.9524 7.0292 70.2962 7.0292 48.6068C7.0292 26.9175 24.6924 9.26129 46.3904 9.26129C68.0883 9.26129 85.7515 26.9175 85.7515 48.6068C85.7515 70.2962 68.0883 87.9524 46.3904 87.9524Z" fill="#E1E1E1"/>
<path opacity="0.2" d="M46.3605 87.8926C24.6625 87.8926 6.99932 70.2364 6.99932 48.5471C6.99932 26.8577 24.6625 9.20154 46.3605 9.20154C68.0584 9.20154 85.7216 26.8577 85.7216 48.5471C85.7216 70.2364 68.0584 87.8926 46.3605 87.8926Z" fill="#E0E0E0"/>
<path opacity="0.21" d="M46.3007 87.8329C24.6027 87.8329 6.93954 70.1767 6.93954 48.4873C6.93954 26.798 24.6027 9.14179 46.3007 9.14179C67.9986 9.14179 85.6618 26.798 85.6618 48.4873C85.6618 70.1767 67.9986 87.8329 46.3007 87.8329Z" fill="#DFDFDF"/>
<path opacity="0.22" d="M46.2409 87.7432C24.543 87.7432 6.87977 70.087 6.87977 48.3977C6.87977 26.7084 24.543 9.05216 46.2409 9.05216C67.9389 9.05216 85.6021 26.7084 85.6021 48.3977C85.6021 70.087 67.9389 87.7432 46.2409 87.7432Z" fill="#DEDEDE"/>
<path opacity="0.22" d="M46.1811 87.6835C24.4832 87.6835 6.82 70.0273 6.82 48.3379C6.82 26.6486 24.4832 8.99241 46.1811 8.99241C67.8791 8.99241 85.5423 26.6486 85.5423 48.3379C85.5423 70.0273 67.8791 87.6835 46.1811 87.6835Z" fill="#DDDDDD"/>
<path opacity="0.23" d="M46.1512 87.6237C24.4533 87.6237 6.79011 69.9675 6.79011 48.2782C6.79011 26.5889 24.4533 8.93266 46.1512 8.93266C67.8492 8.93266 85.5124 26.5889 85.5124 48.2782C85.5124 69.9675 67.8492 87.6237 46.1512 87.6237Z" fill="#DCDCDC"/>
<path opacity="0.24" d="M46.0915 87.5341C24.3935 87.5341 6.73033 69.8779 6.73033 48.1886C6.73033 26.4992 24.3935 8.84304 46.0915 8.84304C67.7894 8.84304 85.4526 26.4992 85.4526 48.1886C85.4526 69.8779 67.7894 87.5341 46.0915 87.5341Z" fill="#DBDBDB"/>
<path opacity="0.24" d="M46.0317 87.4744C24.3338 87.4744 6.67056 69.8182 6.67056 48.1288C6.67056 26.4395 24.3338 8.78329 46.0317 8.78329C67.7296 8.78329 85.3928 26.4395 85.3928 48.1288C85.3928 69.8182 67.7296 87.4744 46.0317 87.4744Z" fill="#DADADA"/>
<path opacity="0.25" d="M46.0018 87.4146C24.3039 87.4146 6.64068 69.7584 6.64068 48.0691C6.64068 26.3797 24.3039 8.72354 46.0018 8.72354C67.6998 8.72354 85.363 26.3797 85.363 48.0691C85.363 69.7584 67.6998 87.4146 46.0018 87.4146Z" fill="#D9D9D9"/>
<path opacity="0.25" d="M45.942 87.325C24.2441 87.325 6.5809 69.6688 6.5809 47.9794C6.5809 26.2901 24.2441 8.63391 45.942 8.63391C67.64 8.63391 85.3032 26.2901 85.3032 47.9794C85.3032 69.6688 67.64 87.325 45.942 87.325Z" fill="#D8D8D8"/>
<path opacity="0.26" d="M45.8823 87.2652C24.1843 87.2652 6.52112 69.609 6.52112 47.9197C6.52112 26.2304 24.1843 8.57416 45.8823 8.57416C67.5802 8.57416 85.2434 26.2304 85.2434 47.9197C85.2434 69.609 67.5802 87.2652 45.8823 87.2652Z" fill="#D7D7D7"/>
<path opacity="0.27" d="M45.8225 87.2055C24.1246 87.2055 6.46135 69.5493 6.46135 47.8599C6.46135 26.1706 24.1246 8.51441 45.8225 8.51441C67.5204 8.51441 85.1836 26.1706 85.1836 47.8599C85.1836 69.5493 67.5204 87.2055 45.8225 87.2055Z" fill="#D6D6D6"/>
<path opacity="0.27" d="M45.7926 87.1159C24.0947 87.1159 6.43146 69.4597 6.43146 47.7703C6.43146 26.081 24.0947 8.42478 45.7926 8.42478C67.4906 8.42478 85.1538 26.081 85.1538 47.7703C85.1538 69.4597 67.4906 87.1159 45.7926 87.1159Z" fill="#D5D5D5"/>
<path opacity="0.28" d="M45.7328 87.0561C24.0349 87.0561 6.37169 69.3999 6.37169 47.7106C6.37169 26.0212 24.0349 8.36503 45.7328 8.36503C67.4308 8.36503 85.094 26.0212 85.094 47.7106C85.094 69.3999 67.4308 87.0561 45.7328 87.0561Z" fill="#D4D4D4"/>
<path opacity="0.29" d="M45.6731 86.9964C23.9751 86.9964 6.31192 69.3402 6.31192 47.6508C6.31192 25.9615 23.9751 8.30528 45.6731 8.30528C67.371 8.30528 85.0342 25.9615 85.0342 47.6508C85.0342 69.3402 67.371 86.9964 45.6731 86.9964Z" fill="#D3D3D3"/>
<path opacity="0.29" d="M45.6133 86.9067C23.9153 86.9067 6.25214 69.2505 6.25214 47.5612C6.25214 25.8719 23.9153 8.21566 45.6133 8.21566C67.3112 8.21566 84.9744 25.8719 84.9744 47.5612C84.9744 69.2505 67.3112 86.9067 45.6133 86.9067Z" fill="#D2D2D2"/>
<path opacity="0.3" d="M45.5834 86.847C23.8855 86.847 6.22225 69.1908 6.22225 47.5014C6.22225 25.8121 23.8855 8.15591 45.5834 8.15591C67.2813 8.15591 84.9446 25.8121 84.9446 47.5014C84.9446 69.1908 67.2813 86.847 45.5834 86.847Z" fill="#D1D1D1"/>
<path opacity="0.31" d="M45.5236 86.7872C23.8257 86.7872 6.16248 69.131 6.16248 47.4417C6.16248 25.7524 23.8257 8.09616 45.5236 8.09616C67.2216 8.09616 84.8848 25.7524 84.8848 47.4417C84.8848 69.131 67.2216 86.7872 45.5236 86.7872Z" fill="#D0D0D0"/>
<path opacity="0.31" d="M45.4638 86.6976C23.7659 86.6976 6.10271 69.0414 6.10271 47.3521C6.10271 25.6627 23.7659 8.00653 45.4638 8.00653C67.1618 8.00653 84.825 25.6627 84.825 47.3521C84.825 69.0414 67.1618 86.6976 45.4638 86.6976Z" fill="#CFCFCF"/>
<path opacity="0.32" d="M45.434 86.6379C23.736 86.6379 6.07282 68.9817 6.07282 47.2923C6.07282 25.603 23.736 7.94678 45.434 7.94678C67.1319 7.94678 84.7951 25.603 84.7951 47.2923C84.7951 68.9817 67.1319 86.6379 45.434 86.6379Z" fill="#CECECE"/>
<path opacity="0.33" d="M45.3742 86.5781C23.6762 86.5781 6.01305 68.9219 6.01305 47.2326C6.01305 25.5432 23.6762 7.88703 45.3742 7.88703C67.0721 7.88703 84.7353 25.5432 84.7353 47.2326C84.7353 68.9219 67.0721 86.5781 45.3742 86.5781Z" fill="#CDCDCD"/>
<path opacity="0.33" d="M45.3144 86.4885C23.6165 86.4885 5.95327 68.8323 5.95327 47.1429C5.95327 25.4536 23.6165 7.79741 45.3144 7.79741C67.0124 7.79741 84.6756 25.4536 84.6756 47.1429C84.6756 68.8323 67.0124 86.4885 45.3144 86.4885Z" fill="#CCCCCC"/>
<path opacity="0.34" d="M45.2546 86.4287C23.5567 86.4287 5.8935 68.7725 5.8935 47.0832C5.8935 25.3939 23.5567 7.73766 45.2546 7.73766C66.9526 7.73766 84.6158 25.3939 84.6158 47.0832C84.6158 68.7725 66.9526 86.4287 45.2546 86.4287Z" fill="#CBCBCB"/>
<path opacity="0.35" d="M45.2248 86.369C23.5268 86.369 5.86361 68.7128 5.86361 47.0234C5.86361 25.3341 23.5268 7.67791 45.2248 7.67791C66.9227 7.67791 84.5859 25.3341 84.5859 47.0234C84.5859 68.7128 66.9227 86.369 45.2248 86.369Z" fill="#CACACA"/>
<path opacity="0.35" d="M45.165 86.2794C23.467 86.2794 5.80384 68.6232 5.80384 46.9338C5.80384 25.2445 23.467 7.58828 45.165 7.58828C66.8629 7.58828 84.5261 25.2445 84.5261 46.9338C84.5261 68.6232 66.8629 86.2794 45.165 86.2794Z" fill="#C9C9C9"/>
<path opacity="0.36" d="M45.1052 86.2196C23.4073 86.2196 5.74406 68.5634 5.74406 46.8741C5.74406 25.1847 23.4073 7.52853 45.1052 7.52853C66.8032 7.52853 84.4664 25.1847 84.4664 46.8741C84.4664 68.5634 66.8032 86.2196 45.1052 86.2196Z" fill="#C8C8C8"/>
<path opacity="0.37" d="M45.0454 86.1598C23.3475 86.1598 5.68429 68.5037 5.68429 46.8143C5.68429 25.125 23.3475 7.46878 45.0454 7.46878C66.7434 7.46878 84.4066 25.125 84.4066 46.8143C84.4066 68.5037 66.7434 86.1598 45.0454 86.1598Z" fill="#C7C7C7"/>
<path opacity="0.37" d="M45.0155 86.0702C23.3176 86.0702 5.6544 68.414 5.6544 46.7247C5.6544 25.0354 23.3176 7.37915 45.0155 7.37915C66.7135 7.37915 84.3767 25.0354 84.3767 46.7247C84.3767 68.414 66.7135 86.0702 45.0155 86.0702Z" fill="#C6C6C6"/>
<path opacity="0.38" d="M44.9558 86.0105C23.2578 86.0105 5.59463 68.3543 5.59463 46.6649C5.59463 24.9756 23.2578 7.3194 44.9558 7.3194C66.6537 7.3194 84.3169 24.9756 84.3169 46.6649C84.3169 68.3543 66.6537 86.0105 44.9558 86.0105Z" fill="#C5C5C5"/>
<path opacity="0.39" d="M44.896 85.9507C23.1981 85.9507 5.53486 68.2945 5.53486 46.6052C5.53486 24.9159 23.1981 7.25965 44.896 7.25965C66.5939 7.25965 84.2571 24.9159 84.2571 46.6052C84.2571 68.2945 66.5939 85.9507 44.896 85.9507Z" fill="#C4C4C4"/>
<path opacity="0.39" d="M44.8661 85.8611C23.1682 85.8611 5.50497 68.2049 5.50497 46.5156C5.50497 24.8262 23.1682 7.17003 44.8661 7.17003C66.5641 7.17003 84.2273 24.8262 84.2273 46.5156C84.2273 68.2049 66.5641 85.8611 44.8661 85.8611Z" fill="#C3C3C3"/>
<path opacity="0.4" d="M44.8063 85.8013C23.1084 85.8013 5.44519 68.1452 5.44519 46.4558C5.44519 24.7665 23.1084 7.11028 44.8063 7.11028C66.5043 7.11028 84.1675 24.7665 84.1675 46.4558C84.1675 68.1452 66.5043 85.8013 44.8063 85.8013Z" fill="#C2C2C2"/>
<path opacity="0.41" d="M44.7466 85.7117C23.0486 85.7117 5.38542 68.0555 5.38542 46.3662C5.38542 24.6768 23.0486 7.02065 44.7466 7.02065C66.4445 7.02065 84.1077 24.6768 84.1077 46.3662C84.1077 68.0555 66.4445 85.7117 44.7466 85.7117Z" fill="#C1C1C1"/>
<path opacity="0.41" d="M44.6868 85.652C22.9888 85.652 5.32565 67.9958 5.32565 46.3064C5.32565 24.6171 22.9888 6.9609 44.6868 6.9609C66.3847 6.9609 84.0479 24.6171 84.0479 46.3064C84.0479 67.9958 66.3847 85.652 44.6868 85.652Z" fill="#C0C0C0"/>
<path opacity="0.42" d="M44.6569 85.5922C22.959 85.5922 5.29576 67.936 5.29576 46.2467C5.29576 24.5573 22.959 6.90115 44.6569 6.90115C66.3548 6.90115 84.018 24.5573 84.018 46.2467C84.018 67.936 66.3548 85.5922 44.6569 85.5922Z" fill="#BFBFBF"/>
<path opacity="0.42" d="M44.5971 85.5026C22.8992 85.5026 5.23598 67.8464 5.23598 46.1571C5.23598 24.4677 22.8992 6.81153 44.5971 6.81153C66.2951 6.81153 83.9583 24.4677 83.9583 46.1571C83.9583 67.8464 66.2951 85.5026 44.5971 85.5026Z" fill="#BEBEBE"/>
<path opacity="0.43" d="M44.5374 85.4428C22.8394 85.4428 5.17621 67.7867 5.17621 46.0973C5.17621 24.408 22.8394 6.75178 44.5374 6.75178C66.2353 6.75178 83.8985 24.408 83.8985 46.0973C83.8985 67.7867 66.2353 85.4428 44.5374 85.4428Z" fill="#BDBDBD"/>
<path opacity="0.44" d="M44.5075 85.3831C22.8095 85.3831 5.14633 67.7269 5.14633 46.0376C5.14633 24.3482 22.8095 6.69203 44.5075 6.69203C66.2054 6.69203 83.8686 24.3482 83.8686 46.0376C83.8686 67.7269 66.2054 85.3831 44.5075 85.3831Z" fill="#BCBCBC"/>
<path opacity="0.44" d="M44.4477 85.2935C22.7497 85.2935 5.08655 67.6373 5.08655 45.9479C5.08655 24.2586 22.7497 6.6024 44.4477 6.6024C66.1456 6.6024 83.8088 24.2586 83.8088 45.9479C83.8088 67.6373 66.1456 85.2935 44.4477 85.2935Z" fill="#BBBBBB"/>
<path opacity="0.45" d="M44.3879 85.2337C22.69 85.2337 5.02678 67.5775 5.02678 45.8882C5.02678 24.1988 22.69 6.54265 44.3879 6.54265C66.0859 6.54265 83.7491 24.1988 83.7491 45.8882C83.7491 67.5775 66.0859 85.2337 44.3879 85.2337Z" fill="#BABABA"/>
<path opacity="0.46" d="M44.3282 85.174C22.6302 85.174 4.967 67.5178 4.967 45.8284C4.967 24.1391 22.6302 6.4829 44.3282 6.4829C66.0261 6.4829 83.6893 24.1391 83.6893 45.8284C83.6893 67.5178 66.0261 85.174 44.3282 85.174Z" fill="#B9B9B9"/>
<path opacity="0.46" d="M44.2983 85.0843C22.6003 85.0843 4.93711 67.4281 4.93711 45.7388C4.93711 24.0495 22.6003 6.39328 44.2983 6.39328C65.9962 6.39328 83.6594 24.0495 83.6594 45.7388C83.6594 67.4281 65.9962 85.0843 44.2983 85.0843Z" fill="#B8B8B8"/>
<path opacity="0.47" d="M44.2385 85.0246C22.5405 85.0246 4.87734 67.3684 4.87734 45.6791C4.87734 23.9897 22.5405 6.33352 44.2385 6.33352C65.9364 6.33352 83.5996 23.9897 83.5996 45.6791C83.5996 67.3684 65.9364 85.0246 44.2385 85.0246Z" fill="#B7B7B7"/>
<path opacity="0.48" d="M44.1787 84.9648C22.4808 84.9648 4.81757 67.3086 4.81757 45.6193C4.81757 23.93 22.4808 6.27377 44.1787 6.27377C65.8766 6.27377 83.5399 23.93 83.5399 45.6193C83.5399 67.3086 65.8766 84.9648 44.1787 84.9648Z" fill="#B6B6B6"/>
<path opacity="0.48" d="M44.1189 84.8752C22.421 84.8752 4.75779 67.219 4.75779 45.5297C4.75779 23.8403 22.421 6.18415 44.1189 6.18415C65.8169 6.18415 83.4801 23.8403 83.4801 45.5297C83.4801 67.219 65.8169 84.8752 44.1189 84.8752Z" fill="#B5B5B5"/>
<path opacity="0.49" d="M44.0891 84.8155C22.3911 84.8155 4.72791 67.1593 4.72791 45.4699C4.72791 23.7806 22.3911 6.1244 44.0891 6.1244C65.787 6.1244 83.4502 23.7806 83.4502 45.4699C83.4502 67.1593 65.787 84.8155 44.0891 84.8155Z" fill="#B4B4B4"/>
<path opacity="0.5" d="M44.0293 84.7557C22.3313 84.7557 4.66813 67.0995 4.66813 45.4102C4.66813 23.7208 22.3313 6.06465 44.0293 6.06465C65.7272 6.06465 83.3904 23.7208 83.3904 45.4102C83.3904 67.0995 65.7272 84.7557 44.0293 84.7557Z" fill="#B3B3B3"/>
<path opacity="0.5" d="M43.9695 84.6661C22.2716 84.6661 4.60836 67.0099 4.60836 45.3206C4.60836 23.6312 22.2716 5.97502 43.9695 5.97502C65.6674 5.97502 83.3306 23.6312 83.3306 45.3206C83.3306 67.0099 65.6674 84.6661 43.9695 84.6661Z" fill="#B2B2B2"/>
<path opacity="0.51" d="M43.9396 84.6063C22.2417 84.6063 4.57847 66.9501 4.57847 45.2608C4.57847 23.5715 22.2417 5.94515 43.9396 5.94515C65.6376 5.94515 83.3008 23.6013 83.3008 45.2907C83.3008 66.98 65.6376 84.6362 43.9396 84.6362V84.6063Z" fill="#B1B1B1"/>
<path opacity="0.52" d="M43.8798 84.5466C22.1819 84.5466 4.5187 66.8904 4.5187 45.2011C4.5187 23.5117 22.1819 5.85552 43.8798 5.85552C65.5778 5.85552 83.241 23.5117 83.241 45.2011C83.241 66.8904 65.5778 84.5466 43.8798 84.5466Z" fill="#B0B0B0"/>
<path opacity="0.52" d="M43.8201 84.457C22.1221 84.457 4.45892 66.8008 4.45892 45.1114C4.45892 23.4221 22.1221 5.79577 43.8201 5.79577C65.518 5.79577 83.1812 23.452 83.1812 45.1413C83.1812 66.8306 65.518 84.4868 43.8201 84.4868V84.457Z" fill="#AFAFAF"/>
<path opacity="0.53" d="M43.7603 84.3972C22.0623 84.3972 4.39915 66.741 4.39915 45.0517C4.39915 23.3623 22.0623 5.73602 43.7603 5.73602C65.4582 5.73602 83.1214 23.3922 83.1214 45.0816C83.1214 66.7709 65.4582 84.4271 43.7603 84.4271V84.3972Z" fill="#AEAEAE"/>
<path opacity="0.54" d="M43.7304 84.3375C22.0325 84.3375 4.36926 66.6813 4.36926 44.9919C4.36926 23.3026 22.0325 5.6464 43.7304 5.6464C65.4284 5.6464 83.0916 23.3026 83.0916 44.9919C83.0916 66.6813 65.4284 84.3375 43.7304 84.3375Z" fill="#ADADAD"/>
<path opacity="0.54" d="M43.6706 84.2478C21.9727 84.2478 4.30949 66.5916 4.30949 44.9023C4.30949 23.213 21.9727 5.58665 43.6706 5.58665C65.3686 5.58665 83.0318 23.2428 83.0318 44.9322C83.0318 66.6215 65.3686 84.2777 43.6706 84.2777V84.2478Z" fill="#ACACAC"/>
<path opacity="0.55" d="M43.6109 84.1881C21.9129 84.1881 4.24971 66.5319 4.24971 44.8426C4.24971 23.1532 21.9129 5.5269 43.6109 5.5269C65.3088 5.5269 82.972 23.1831 82.972 44.8724C82.972 66.5618 65.3088 84.218 43.6109 84.218V84.1881Z" fill="#ABABAB"/>
<path opacity="0.56" d="M43.5511 84.1283C21.8531 84.1283 4.18994 66.4721 4.18994 44.7828C4.18994 23.0935 21.8531 5.43727 43.5511 5.43727C65.249 5.43727 82.9122 23.0935 82.9122 44.7828C82.9122 66.4721 65.249 84.1283 43.5511 84.1283Z" fill="#AAAAAA"/>
<path opacity="0.56" d="M43.5212 84.0387C21.8233 84.0387 4.16005 66.3825 4.16005 44.6932C4.16005 23.0038 21.8233 5.37752 43.5212 5.37752C65.2191 5.37752 82.8823 23.0337 82.8823 44.7231C82.8823 66.4124 65.2191 84.0686 43.5212 84.0686V84.0387Z" fill="#A9A9A9"/>
<path opacity="0.57" d="M43.4614 83.979C21.7635 83.979 4.10028 66.3228 4.10028 44.6334C4.10028 22.9441 21.7635 5.31777 43.4614 5.31777C65.1594 5.31777 82.8226 22.974 82.8226 44.6633C82.8226 66.3526 65.1594 84.0088 43.4614 84.0088V83.979Z" fill="#A8A8A8"/>
<path opacity="0.58" d="M43.4017 83.9192C21.7037 83.9192 4.04051 66.263 4.04051 44.5737C4.04051 22.8843 21.7037 5.22815 43.4017 5.22815C65.0996 5.22815 82.7628 22.8843 82.7628 44.5737C82.7628 66.263 65.0996 83.9192 43.4017 83.9192Z" fill="#A7A7A7"/>
<path opacity="0.58" d="M43.3718 83.8296C21.6738 83.8296 4.01062 66.1734 4.01062 44.4841C4.01062 22.7947 21.6738 5.1684 43.3718 5.1684C65.0697 5.1684 82.7329 22.8246 82.7329 44.5139C82.7329 66.2033 65.0697 83.8595 43.3718 83.8595V83.8296Z" fill="#A6A6A6"/>
<path opacity="0.59" d="M43.312 83.7698C21.614 83.7698 3.95084 66.1136 3.95084 44.4243C3.95084 22.735 21.614 5.10865 43.312 5.10865C65.0099 5.10865 82.6731 22.7648 82.6731 44.4542C82.6731 66.1435 65.0099 83.7997 43.312 83.7997V83.7698Z" fill="#A5A5A5"/>
<path opacity="0.59" d="M43.2522 83.7101C21.5543 83.7101 3.89107 66.0539 3.89107 44.3646C3.89107 22.6752 21.5543 5.01902 43.2522 5.01902C64.9502 5.01902 82.6134 22.6752 82.6134 44.3646C82.6134 66.0539 64.9502 83.7101 43.2522 83.7101Z" fill="#A4A4A4"/>
<path opacity="0.6" d="M43.1924 83.6205C21.4945 83.6205 3.8313 65.9643 3.8313 44.2749C3.8313 22.5856 21.4945 4.95927 43.1924 4.95927C64.8904 4.95927 82.5536 22.6155 82.5536 44.3048C82.5536 65.9941 64.8904 83.6503 43.1924 83.6503V83.6205Z" fill="#A3A3A3"/>
<path opacity="0.61" d="M43.1625 83.5607C21.4646 83.5607 3.80141 65.9045 3.80141 44.2152C3.80141 22.5258 21.4646 4.86964 43.1625 4.86964C64.8605 4.86964 82.5237 22.5258 82.5237 44.2152C82.5237 65.9045 64.8605 83.5607 43.1625 83.5607Z" fill="#A2A2A2"/>
<path opacity="0.61" d="M43.1028 83.4711C21.4048 83.4711 3.74164 65.8149 3.74164 44.1256C3.74164 22.4362 21.4048 4.80989 43.1028 4.80989C64.8007 4.80989 82.4639 22.4661 82.4639 44.1554C82.4639 65.8448 64.8007 83.501 43.1028 83.501V83.4711Z" fill="#A1A1A1"/>
<path opacity="0.62" d="M43.043 83.4113C21.3451 83.4113 3.68186 65.7551 3.68186 44.0658C3.68186 22.3765 21.3451 4.75014 43.043 4.75014C64.741 4.75014 82.4041 22.4063 82.4041 44.0957C82.4041 65.785 64.741 83.4412 43.043 83.4412V83.4113Z" fill="#A0A0A0"/>
<path opacity="0.63" d="M43.0131 83.3516C21.3152 83.3516 3.65198 65.6954 3.65198 44.0061C3.65198 22.3167 21.3152 4.66052 43.0131 4.66052C64.7111 4.66052 82.3743 22.3167 82.3743 44.0061C82.3743 65.6954 64.7111 83.3516 43.0131 83.3516Z" fill="#9F9F9F"/>
<path opacity="0.63" d="M42.9533 83.262C21.2554 83.262 3.5922 65.6058 3.5922 43.9164C3.5922 22.2271 21.2554 4.60077 42.9533 4.60077C64.6513 4.60077 82.3145 22.257 82.3145 43.9463C82.3145 65.6356 64.6513 83.2918 42.9533 83.2918V83.262Z" fill="#9E9E9E"/>
<path opacity="0.64" d="M42.8936 83.2022C21.1956 83.2022 3.53243 65.546 3.53243 43.8567C3.53243 22.1673 21.1956 4.54102 42.8936 4.54102C64.5915 4.54102 82.2547 22.1972 82.2547 43.8866C82.2547 65.5759 64.5915 83.2321 42.8936 83.2321V83.2022Z" fill="#9D9D9D"/>
<path opacity="0.65" d="M42.8338 83.1425C21.1359 83.1425 3.47265 65.4863 3.47265 43.7969C3.47265 22.1076 21.1359 4.45139 42.8338 4.45139C64.5317 4.45139 82.1949 22.1076 82.1949 43.7969C82.1949 65.4863 64.5317 83.1425 42.8338 83.1425Z" fill="#9C9C9C"/>
<path opacity="0.65" d="M42.8039 83.0528C21.106 83.0528 3.44276 65.3966 3.44276 43.7073C3.44276 22.018 21.106 4.39164 42.8039 4.39164C64.5019 4.39164 82.1651 22.0478 82.1651 43.7372C82.1651 65.4265 64.5019 83.0827 42.8039 83.0827V83.0528Z" fill="#9B9B9B"/>
<path opacity="0.66" d="M42.7441 82.9931C21.0462 82.9931 3.38299 65.3369 3.38299 43.6476C3.38299 21.9582 21.0462 4.33189 42.7441 4.33189C64.4421 4.33189 82.1053 21.9881 82.1053 43.6774C82.1053 65.3668 64.4421 83.023 42.7441 83.023V82.9931Z" fill="#9A9A9A"/>
<path opacity="0.67" d="M42.6844 82.9333C20.9864 82.9333 3.32322 65.2771 3.32322 43.5878C3.32322 21.8985 20.9864 4.24227 42.6844 4.24227C64.3823 4.24227 82.0455 21.8985 82.0455 43.5878C82.0455 65.2771 64.3823 82.9333 42.6844 82.9333Z" fill="#999999"/>
<path opacity="0.67" d="M42.6246 82.8437C20.9267 82.8437 3.26344 65.1875 3.26344 43.4982C3.26344 21.8088 20.9267 4.18252 42.6246 4.18252C64.3225 4.18252 81.9857 21.8387 81.9857 43.5281C81.9857 65.2174 64.3225 82.8736 42.6246 82.8736V82.8437Z" fill="#989898"/>
<path opacity="0.68" d="M42.5947 82.784C20.8968 82.784 3.23356 65.1278 3.23356 43.4384C3.23356 21.7491 20.8968 4.12277 42.5947 4.12277C64.2926 4.12277 81.9559 21.779 81.9559 43.4683C81.9559 65.1576 64.2926 82.8138 42.5947 82.8138V82.784Z" fill="#979797"/>
<path opacity="0.69" d="M42.5349 82.7242C20.837 82.7242 3.17378 65.068 3.17378 43.3787C3.17378 21.6893 20.837 4.03314 42.5349 4.03314C64.2329 4.03314 81.8961 21.6893 81.8961 43.3787C81.8961 65.068 64.2329 82.7242 42.5349 82.7242Z" fill="#969696"/>
<path opacity="0.69" d="M42.4751 82.6346C20.7772 82.6346 3.11401 64.9784 3.11401 43.289C3.11401 21.5997 20.7772 3.97339 42.4751 3.97339C64.1731 3.97339 81.8363 21.6296 81.8363 43.3189C81.8363 65.0083 64.1731 82.6645 42.4751 82.6645V82.6346Z" fill="#959595"/>
<path opacity="0.7" d="M42.4453 82.5748C20.7473 82.5748 3.08412 64.9186 3.08412 43.2293C3.08412 21.54 20.7473 3.91364 42.4453 3.91364C64.1432 3.91364 81.8064 21.5698 81.8064 43.2592C81.8064 64.9485 64.1432 82.6047 42.4453 82.6047V82.5748Z" fill="#949494"/>
<path opacity="0.71" d="M42.3855 82.5151C20.6876 82.5151 3.02435 64.8589 3.02435 43.1696C3.02435 21.4802 20.6876 3.82402 42.3855 3.82402C64.0834 3.82402 81.7466 21.4802 81.7466 43.1696C81.7466 64.8589 64.0834 82.5151 42.3855 82.5151Z" fill="#939393"/>
<path opacity="0.71" d="M42.3257 82.4255C20.6278 82.4255 2.96457 64.7693 2.96457 43.0799C2.96457 21.3906 20.6278 3.76427 42.3257 3.76427C64.0237 3.76427 81.6869 21.4205 81.6869 43.1098C81.6869 64.7991 64.0237 82.4553 42.3257 82.4553V82.4255Z" fill="#929292"/>
<path opacity="0.72" d="M42.2659 82.3657C20.568 82.3657 2.9048 64.7095 2.9048 43.0202C2.9048 21.3308 20.568 3.70451 42.2659 3.70451C63.9639 3.70451 81.6271 21.3607 81.6271 43.05C81.6271 64.7394 63.9639 82.3956 42.2659 82.3956V82.3657Z" fill="#919191"/>
<path opacity="0.73" d="M42.2361 82.306C20.5381 82.306 2.87492 64.6498 2.87492 42.9604C2.87492 21.2711 20.5381 3.61489 42.2361 3.61489C63.934 3.61489 81.5972 21.2711 81.5972 42.9604C81.5972 64.6498 63.934 82.306 42.2361 82.306Z" fill="#909090"/>
<path opacity="0.73" d="M42.1763 82.2163C20.4783 82.2163 2.81514 64.5601 2.81514 42.8708C2.81514 21.1815 20.4783 3.55514 42.1763 3.55514C63.8742 3.55514 81.5374 21.2113 81.5374 42.9007C81.5374 64.59 63.8742 82.2462 42.1763 82.2462V82.2163Z" fill="#8F8F8F"/>
<path opacity="0.74" d="M42.1165 82.1566C20.4186 82.1566 2.75537 64.5004 2.75537 42.811C2.75537 21.1217 20.4186 3.49539 42.1165 3.49539C63.8145 3.49539 81.4777 21.1516 81.4777 42.8409C81.4777 64.5303 63.8145 82.1865 42.1165 82.1865V82.1566Z" fill="#8E8E8E"/>
<path opacity="0.75" d="M42.0567 82.0968C20.3588 82.0968 2.69559 64.4406 2.69559 42.7513C2.69559 21.062 20.3588 3.40576 42.0567 3.40576C63.7547 3.40576 81.4179 21.062 81.4179 42.7513C81.4179 64.4406 63.7547 82.0968 42.0567 82.0968Z" fill="#8D8D8D"/>
<path opacity="0.75" d="M42.0269 82.0072C20.3289 82.0072 2.6657 64.351 2.6657 42.6617C2.6657 20.9723 20.3289 3.34601 42.0269 3.34601C63.7248 3.34601 81.388 21.0022 81.388 42.6915C81.388 64.3809 63.7248 82.0371 42.0269 82.0371V82.0072Z" fill="#8C8C8C"/>
<path opacity="0.76" d="M41.9671 81.9475C20.2691 81.9475 2.60593 64.2913 2.60593 42.6019C2.60593 20.9126 20.2691 3.28626 41.9671 3.28626C63.665 3.28626 81.3282 20.9425 81.3282 42.6318C81.3282 64.3211 63.665 81.9773 41.9671 81.9773V81.9475Z" fill="#8B8B8B"/>
<path opacity="0.76" d="M41.9073 81.8877C20.2094 81.8877 2.54616 64.2315 2.54616 42.5422C2.54616 20.8528 20.2094 3.19664 41.9073 3.19664C63.6052 3.19664 81.2684 20.8528 81.2684 42.5422C81.2684 64.2315 63.6052 81.8877 41.9073 81.8877Z" fill="#8A8A8A"/>
<path opacity="0.77" d="M41.8774 81.7981C20.1795 81.7981 2.51627 64.1419 2.51627 42.4525C2.51627 20.7632 20.1795 3.13689 41.8774 3.13689C63.5754 3.13689 81.2386 20.7931 81.2386 42.4824C81.2386 64.1718 63.5754 81.828 41.8774 81.828V81.7981Z" fill="#898989"/>
<path opacity="0.78" d="M41.8176 81.7383C20.1197 81.7383 2.45649 64.0821 2.45649 42.3928C2.45649 20.7035 20.1197 3.07714 41.8176 3.07714C63.5156 3.07714 81.1788 20.7333 81.1788 42.4227C81.1788 64.112 63.5156 81.7682 41.8176 81.7682V81.7383Z" fill="#888888"/>
<path opacity="0.78" d="M41.7579 81.6786C20.0599 81.6786 2.39672 64.0224 2.39672 42.333C2.39672 20.6437 20.0599 2.98751 41.7579 2.98751C63.4558 2.98751 81.119 20.6437 81.119 42.333C81.119 64.0224 63.4558 81.6786 41.7579 81.6786Z" fill="#878787"/>
<path opacity="0.79" d="M41.6981 81.589C20.0002 81.589 2.33695 63.9328 2.33695 42.2434C2.33695 20.5541 20.0002 2.92776 41.6981 2.92776C63.396 2.92776 81.0592 20.584 81.0592 42.2733C81.0592 63.9626 63.396 81.6188 41.6981 81.6188V81.589Z" fill="#868686"/>
<path opacity="0.8" d="M41.6682 81.5292C19.9703 81.5292 2.30706 63.873 2.30706 42.1837C2.30706 20.4943 19.9703 2.86801 41.6682 2.86801C63.3661 2.86801 81.0293 20.5242 81.0293 42.2135C81.0293 63.9029 63.3661 81.5591 41.6682 81.5591V81.5292Z" fill="#858585"/>
<path opacity="0.8" d="M41.6084 81.4396C19.9105 81.4396 2.24729 63.7834 2.24729 42.094C2.24729 20.4047 19.9105 2.77839 41.6084 2.77839C63.3064 2.77839 80.9696 20.4346 80.9696 42.1239C80.9696 63.8133 63.3064 81.4695 41.6084 81.4695V81.4396Z" fill="#848484"/>
<path opacity="0.81" d="M41.5487 81.3798C19.8507 81.3798 2.18751 63.7236 2.18751 42.0343C2.18751 20.345 19.8507 2.71864 41.5487 2.71864C63.2466 2.71864 80.9098 20.3748 80.9098 42.0642C80.9098 63.7535 63.2466 81.4097 41.5487 81.4097V81.3798Z" fill="#838383"/>
<path opacity="0.82" d="M41.5188 81.3201C19.8208 81.3201 2.15763 63.6639 2.15763 41.9745C2.15763 20.2852 19.8208 2.62901 41.5188 2.62901C63.2167 2.62901 80.8799 20.2852 80.8799 41.9745C80.8799 63.6639 63.2167 81.3201 41.5188 81.3201Z" fill="#828282"/>
<path opacity="0.82" d="M41.459 81.2305C19.7611 81.2305 2.09785 63.5743 2.09785 41.8849C2.09785 20.1956 19.7611 2.56926 41.459 2.56926C63.1569 2.56926 80.8201 20.2255 80.8201 41.9148C80.8201 63.6041 63.1569 81.2603 41.459 81.2603V81.2305Z" fill="#818181"/>
<path opacity="0.83" d="M41.3992 81.1707C19.7013 81.1707 2.03808 63.5145 2.03808 41.8252C2.03808 20.1358 19.7013 2.50951 41.3992 2.50951C63.0972 2.50951 80.7604 20.1657 80.7604 41.855C80.7604 63.5444 63.0972 81.2006 41.3992 81.2006V81.1707Z" fill="#808080"/>
<path opacity="0.84" d="M41.3394 81.111C19.6415 81.111 1.9783 63.4548 1.9783 41.7654C1.9783 20.0761 19.6415 2.41988 41.3394 2.41988C63.0374 2.41988 80.7006 20.0761 80.7006 41.7654C80.7006 63.4548 63.0374 81.111 41.3394 81.111Z" fill="#7F7F7F"/>
<path opacity="0.84" d="M41.3096 81.0213C19.6116 81.0213 1.94842 63.3651 1.94842 41.6758C1.94842 19.9865 19.6116 2.36013 41.3096 2.36013C63.0075 2.36013 80.6707 20.0163 80.6707 41.7057C80.6707 63.395 63.0075 81.0512 41.3096 81.0512V81.0213Z" fill="#7E7E7E"/>
<path opacity="0.85" d="M41.2498 80.9616C19.5518 80.9616 1.88865 63.3054 1.88865 41.616C1.88865 19.9267 19.5518 2.30038 41.2498 2.30038C62.9477 2.30038 80.6109 19.9566 80.6109 41.6459C80.6109 63.3353 62.9477 80.9915 41.2498 80.9915V80.9616Z" fill="#7D7D7D"/>
<path opacity="0.86" d="M41.19 80.9018C19.4921 80.9018 1.82887 63.2456 1.82887 41.5563C1.82887 19.867 19.4921 2.21076 41.19 2.21076C62.888 2.21076 80.5512 19.867 80.5512 41.5563C80.5512 63.2456 62.888 80.9018 41.19 80.9018Z" fill="#7C7C7C"/>
<path opacity="0.86" d="M41.1302 80.8122C19.4323 80.8122 1.7691 63.156 1.7691 41.4667C1.7691 19.7773 19.4323 2.15101 41.1302 2.15101C62.8282 2.15101 80.4914 19.8072 80.4914 41.4965C80.4914 63.1859 62.8282 80.8421 41.1302 80.8421V80.8122Z" fill="#7B7B7B"/>
<path opacity="0.87" d="M41.1004 80.7525C19.4024 80.7525 1.73921 63.0963 1.73921 41.4069C1.73921 19.7176 19.4024 2.09126 41.1004 2.09126C62.7983 2.09126 80.4615 19.7475 80.4615 41.4368C80.4615 63.1261 62.7983 80.7823 41.1004 80.7823V80.7525Z" fill="#7A7A7A"/>
<path opacity="0.88" d="M41.0406 80.6927C19.3426 80.6927 1.67943 63.0365 1.67943 41.3472C1.67943 19.6578 19.3426 2.00163 41.0406 2.00163C62.7385 2.00163 80.4017 19.6578 80.4017 41.3472C80.4017 63.0365 62.7385 80.6927 41.0406 80.6927Z" fill="#797979"/>
<path opacity="0.88" d="M40.9808 80.6031C19.2829 80.6031 1.61966 62.9469 1.61966 41.2575C1.61966 19.5682 19.2829 1.94188 40.9808 1.94188C62.6787 1.94188 80.3419 19.5981 80.3419 41.2874C80.3419 62.9768 62.6787 80.633 40.9808 80.633V80.6031Z" fill="#787878"/>
<path opacity="0.89" d="M40.9509 80.5433C19.253 80.5433 1.58978 62.8871 1.58978 41.1978C1.58978 19.5085 19.253 1.88213 40.9509 1.88213C62.6489 1.88213 80.3121 19.5383 80.3121 41.2277C80.3121 62.917 62.6489 80.5732 40.9509 80.5732V80.5433Z" fill="#777777"/>
<path opacity="0.9" d="M40.8911 80.4836C19.1932 80.4836 1.53 62.8274 1.53 41.138C1.53 19.4487 19.1932 1.79251 40.8911 1.79251C62.5891 1.79251 80.2523 19.4487 80.2523 41.138C80.2523 62.8274 62.5891 80.4836 40.8911 80.4836Z" fill="#767676"/>
<path opacity="0.9" d="M40.8314 80.394C19.1334 80.394 1.47022 62.7378 1.47022 41.0484C1.47022 19.3591 19.1334 1.73276 40.8314 1.73276C62.5293 1.73276 80.1925 19.389 80.1925 41.0783C80.1925 62.7676 62.5293 80.4238 40.8314 80.4238V80.394Z" fill="#757575"/>
<path opacity="0.91" d="M40.7716 80.3342C19.0736 80.3342 1.41045 62.678 1.41045 40.9887C1.41045 19.2993 19.0736 1.67301 40.7716 1.67301C62.4695 1.67301 80.1327 19.3292 80.1327 41.0185C80.1327 62.7079 62.4695 80.3641 40.7716 80.3641V80.3342Z" fill="#747474"/>
<path opacity="0.92" d="M40.7417 80.2745C19.0438 80.2745 1.38057 62.6183 1.38057 40.9289C1.38057 19.2396 19.0438 1.58338 40.7417 1.58338C62.4397 1.58338 80.1029 19.2396 80.1029 40.9289C80.1029 62.6183 62.4397 80.2745 40.7417 80.2745Z" fill="#737373"/>
<path opacity="0.92" d="M40.6819 80.1848C18.984 80.1848 1.32079 62.5286 1.32079 40.8393C1.32079 19.15 18.984 1.52363 40.6819 1.52363C62.3799 1.52363 80.0431 19.1798 80.0431 40.8692C80.0431 62.5585 62.3799 80.2147 40.6819 80.2147V80.1848Z" fill="#727272"/>
<path opacity="0.93" d="M40.6222 80.1251C18.9242 80.1251 1.26102 62.4689 1.26102 40.7795C1.26102 19.0902 18.9242 1.46388 40.6222 1.46388C62.3201 1.46388 79.9833 19.1201 79.9833 40.8094C79.9833 62.4988 62.3201 80.155 40.6222 80.155V80.1251Z" fill="#717171"/>
<path opacity="0.93" d="M40.5624 80.0653C18.8644 80.0653 1.20124 62.4091 1.20124 40.7198C1.20124 19.0305 18.8644 1.37426 40.5624 1.37426C62.2603 1.37426 79.9235 19.0305 79.9235 40.7198C79.9235 62.4091 62.2603 80.0653 40.5624 80.0653Z" fill="#707070"/>
<path opacity="0.94" d="M40.5325 79.9757C18.8346 79.9757 1.17135 62.3195 1.17135 40.6302C1.17135 18.9408 18.8346 1.31451 40.5325 1.31451C62.2304 1.31451 79.8936 18.9707 79.8936 40.66C79.8936 62.3494 62.2304 80.0056 40.5325 80.0056V79.9757Z" fill="#6F6F6F"/>
<path opacity="0.95" d="M40.4727 79.9159C18.7748 79.9159 1.11158 62.2598 1.11158 40.5704C1.11158 18.8811 18.7748 1.25476 40.4727 1.25476C62.1707 1.25476 79.8339 18.911 79.8339 40.6003C79.8339 62.2896 62.1707 79.9458 40.4727 79.9458V79.9159Z" fill="#6E6E6E"/>
<path opacity="0.95" d="M40.413 79.8562C18.715 79.8562 1.05181 62.2 1.05181 40.5107C1.05181 18.8213 18.715 1.16513 40.413 1.16513C62.1109 1.16513 79.7741 18.8213 79.7741 40.5107C79.7741 62.2 62.1109 79.8562 40.413 79.8562Z" fill="#6D6D6D"/>
<path opacity="0.96" d="M40.3831 79.7666C18.6851 79.7666 1.02192 62.1104 1.02192 40.421C1.02192 18.7317 18.6851 1.10538 40.3831 1.10538C62.081 1.10538 79.7442 18.7616 79.7442 40.4509C79.7442 62.1403 62.081 79.7964 40.3831 79.7964V79.7666Z" fill="#6C6C6C"/>
<path opacity="0.97" d="M40.3233 79.7068C18.6253 79.7068 0.962146 62.0506 0.962146 40.3613C0.962146 18.6719 18.6253 1.04563 40.3233 1.04563C62.0212 1.04563 79.6844 18.7018 79.6844 40.3912C79.6844 62.0805 62.0212 79.7367 40.3233 79.7367V79.7068Z" fill="#6B6B6B"/>
<path opacity="0.97" d="M40.2635 79.6471C18.5656 79.6471 0.902376 61.9909 0.902376 40.3015C0.902376 18.6122 18.5656 0.956004 40.2635 0.956004C61.9615 0.956004 79.6247 18.6122 79.6247 40.3015C79.6247 61.9909 61.9615 79.6471 40.2635 79.6471Z" fill="#6A6A6A"/>
<path opacity="0.98" d="M40.2037 79.5574C18.5058 79.5574 0.842601 61.9013 0.842601 40.2119C0.842601 18.5226 18.5058 0.896254 40.2037 0.896254C61.9017 0.896254 79.5649 18.5524 79.5649 40.2418C79.5649 61.9311 61.9017 79.5873 40.2037 79.5873V79.5574Z" fill="#696969"/>
<path opacity="0.99" d="M40.1739 79.4977C18.4759 79.4977 0.812713 61.8415 0.812713 40.1522C0.812713 18.4628 18.4759 0.836503 40.1739 0.836503C61.8718 0.836503 79.535 18.4927 79.535 40.182C79.535 61.8714 61.8718 79.5276 40.1739 79.5276V79.4977Z" fill="#686868"/>
<path opacity="0.99" d="M40.1141 79.4379C18.4161 79.4379 0.752938 61.7818 0.752938 40.0924C0.752938 18.4031 18.4161 0.746878 40.1141 0.746878C61.812 0.746878 79.4752 18.4031 79.4752 40.0924C79.4752 61.7818 61.812 79.4379 40.1141 79.4379Z" fill="#676767"/>
<path d="M40.0543 79.3483C18.3564 79.3483 0.693162 61.6921 0.693162 40.0028C0.693162 18.3135 18.3564 0.687128 40.0543 0.687128C61.7522 0.687128 79.4154 18.3433 79.4154 40.0327C79.4154 61.722 61.7522 79.3782 40.0543 79.3782V79.3483Z" fill="#666666"/>
</g>
<path d="M39.9945 79.8861C17.9678 79.8861 0.0356522 61.961 0.0356522 39.943C0.0356522 17.9251 17.9678 0 39.9945 0C62.0212 0 79.9534 17.9251 79.9534 39.943C79.9534 61.961 62.0212 79.8861 39.9945 79.8861Z" fill="url(#paint0_linear_1_177)"/>
<path d="M39.9945 71.8795C57.6396 71.8795 71.9437 57.5811 71.9437 39.943C71.9437 22.305 57.6396 8.00653 39.9945 8.00653C22.3495 8.00653 8.04536 22.305 8.04536 39.943C8.04536 57.5811 22.3495 71.8795 39.9945 71.8795Z" fill="url(#paint1_linear_1_177)"/>
<path d="M39.9945 70.4157C56.8308 70.4157 70.4793 56.7726 70.4793 39.943C70.4793 23.1135 56.8308 9.47041 39.9945 9.47041C23.1583 9.47041 9.50982 23.1135 9.50982 39.943C9.50982 56.7726 23.1583 70.4157 39.9945 70.4157Z" fill="#E31E25"/>
<g clip-path="url(#clip0_1_177)">
<path d="M32.3321 53.6307C31.9947 53.6307 31.7215 53.3516 31.7208 53.0059C31.7208 52.9676 31.7238 52.9301 31.7307 52.8926C32.9258 46.1855 30.2959 42.1997 30.2684 42.1598C30.1264 41.9503 30.1226 41.6734 30.2585 41.46C30.6492 40.8469 30.9324 39.071 30.9469 37.1403C30.9644 34.7521 30.5844 33.6018 30.4081 33.4431C29.9624 33.1311 29.393 33.0677 28.8924 33.2749C28.5092 33.429 28.2398 33.7848 28.1887 34.2032C28.0697 34.9945 27.7018 36.1167 27.2759 37.4155C26.8058 38.8489 26.2731 40.4731 26.0228 41.8549C25.7366 43.5189 25.5992 45.2064 25.6122 46.8955C25.616 47.0543 25.5603 47.2091 25.4573 47.3272L23.0654 50.0712C22.841 50.3292 22.4549 50.3511 22.203 50.1212C21.9512 49.8913 21.9298 49.4956 22.1542 49.2376L24.388 46.675C24.388 44.982 24.5323 43.2929 24.8215 41.6257C25.0879 40.1572 25.6351 38.4884 26.1182 37.0167C26.5089 35.8242 26.8783 34.6982 26.9813 34.0124C27.0973 33.1639 27.6461 32.4429 28.42 32.12C29.3144 31.7446 30.334 31.8619 31.1255 32.4304C32.5702 33.4994 32.3756 39.634 31.4704 41.7712C32.123 42.9105 34.0363 46.9127 32.9312 53.1162C32.8785 53.4134 32.6259 53.6292 32.3313 53.63L32.3321 53.6307Z" fill="white"/>
<path d="M31.2903 59.2524C30.953 59.2524 30.6798 58.9725 30.6798 58.6268C30.6798 58.465 30.7408 58.3094 30.8507 58.1928L32.9335 55.9767C33.0762 55.825 33.2838 55.757 33.486 55.7961C33.5081 55.8008 35.8824 56.2316 37.9064 55.1947C37.9369 55.1791 39.9762 54.1609 40.689 52.3882C40.8172 52.0683 41.1744 51.9159 41.4865 52.0472C41.7987 52.1786 41.9475 52.5446 41.8185 52.8644C40.9248 55.0899 38.5429 56.2699 38.4422 56.3192C36.5182 57.3045 34.4041 57.1747 33.5967 57.0762L31.7314 59.0608C31.6162 59.1836 31.4575 59.2524 31.2911 59.2524H31.2903Z" fill="white"/>
<path d="M48.2743 38.5189C47.937 38.5189 47.6638 38.239 47.6638 37.8933V22.7541C47.6638 21.9252 46.8838 21.252 45.9245 21.252H33.1182C32.1588 21.252 31.3781 21.926 31.3781 22.7541V32.9387C31.3781 33.2843 31.1049 33.5643 30.7675 33.5643C30.4302 33.5643 30.157 33.2843 30.157 32.9387V22.7534C30.1577 21.2355 31.4857 20 33.1189 20H45.9252C47.5577 20 48.8857 21.2355 48.8857 22.7534V37.8926C48.8857 38.2382 48.6124 38.5181 48.2759 38.5189H48.2743Z" fill="white"/>
<path d="M37.6515 52.4312H32.7266C32.3893 52.4312 32.1161 52.1512 32.1161 51.8056C32.1161 51.46 32.3893 51.18 32.7266 51.18H37.6523C37.9896 51.18 38.2628 51.46 38.2628 51.8056C38.2628 52.1512 37.9896 52.4312 37.6523 52.4312H37.6515Z" fill="white"/>
<path d="M48.1782 24.6215H30.8126C30.4752 24.6215 30.202 24.3416 30.202 23.9959C30.202 23.6503 30.4752 23.3703 30.8126 23.3703H48.1782C48.5155 23.3703 48.7887 23.6503 48.7887 23.9959C48.7887 24.3416 48.5155 24.6215 48.1782 24.6215Z" fill="white"/>
<path d="M35.742 48.8747H32.8617C32.5244 48.8747 32.2512 48.5948 32.2512 48.2491C32.2512 47.9035 32.5244 47.6236 32.8617 47.6236H35.742C36.0793 47.6236 36.3526 47.9035 36.3526 48.2491C36.3526 48.5948 36.0793 48.8747 35.742 48.8747Z" fill="white"/>
<path d="M48.749 59.9992C48.5064 59.9992 48.2873 59.8522 48.1896 59.6254L47.6493 58.3641L44.4241 56.8564C44.3538 56.8236 44.2905 56.7774 44.2371 56.7204L38.0781 50.1376C38.0713 50.1306 38.0652 50.1236 38.059 50.1157C37.9759 50.018 37.2554 49.1359 37.5431 48.214C37.7278 47.622 38.2476 47.2169 39.0878 47.0113C40.5753 46.6469 42.3963 47.7104 43.5968 48.601L38.6513 37.0668C38.4109 36.5124 38.391 35.8836 38.5963 35.3144C38.7986 34.7451 39.2183 34.2861 39.7602 34.0429C40.8935 33.551 42.2009 34.0921 42.684 35.2518C42.8175 35.5693 42.6741 35.9368 42.365 36.0737C42.0582 36.2089 41.7025 36.0666 41.5659 35.7546C41.3545 35.2268 40.7668 34.9734 40.2517 35.1877C40.0143 35.2956 39.8304 35.4981 39.7419 35.7484C39.6472 36.0135 39.6572 36.3059 39.7694 36.5632L45.1476 49.107C45.1979 49.2251 45.2124 49.3556 45.1872 49.4823L45.0407 50.2315C44.9743 50.5701 44.653 50.7898 44.3218 50.7218C44.2119 50.6991 44.1096 50.6459 44.0272 50.5677C43.2152 49.799 40.7943 47.8777 39.3717 48.228C38.9329 48.3352 38.7406 48.4876 38.707 48.5932C38.6528 48.7629 38.8276 49.1054 38.9733 49.2853L45.0377 55.7679L48.3682 57.3248C48.5048 57.389 48.6132 57.5016 48.6735 57.6423L49.3077 59.1218C49.4436 59.4378 49.3031 59.8076 48.9948 59.946C48.9177 59.9812 48.8338 59.9992 48.749 59.9992Z" fill="white"/>
<path d="M46.6762 46.743C46.4335 46.743 46.2145 46.596 46.1168 46.3692L41.5667 35.7554C41.4331 35.4379 41.5766 35.0704 41.8857 34.9335C42.1925 34.7982 42.5481 34.9406 42.6847 35.2526L47.2356 45.8664C47.3715 46.1824 47.2311 46.5522 46.9227 46.6906C46.8457 46.7258 46.7617 46.7438 46.677 46.7438L46.6762 46.743Z" fill="white"/>
<path d="M45.1949 43.2882C44.9522 43.2882 44.7331 43.1412 44.6355 42.9145C44.3951 42.36 44.3752 41.7313 44.5805 41.162C44.9903 40.0109 46.2328 39.4174 47.3562 39.8373C47.386 39.8483 47.4158 39.86 47.4448 39.8725C47.9927 40.1024 48.4316 40.5427 48.6674 41.0995C48.8071 41.4138 48.6712 41.7853 48.3636 41.9276C48.0568 42.0707 47.6943 41.9315 47.5554 41.6164C47.5531 41.6117 47.5516 41.607 47.5493 41.6023C47.4402 41.3434 47.2372 41.1378 46.9823 41.0299C46.5022 40.8219 45.9481 41.0526 45.7451 41.5444C45.7383 41.5616 45.7314 41.578 45.7253 41.5952C45.6307 41.8603 45.6406 42.1528 45.7528 42.4101C45.8886 42.726 45.7482 43.0959 45.4399 43.2343C45.3628 43.2695 45.2788 43.2875 45.1941 43.2875L45.1949 43.2882Z" fill="white"/>
<path d="M49.703 45.6952C49.4603 45.6952 49.2413 45.5482 49.1436 45.3206L47.5493 41.6023C47.4158 41.2848 47.5592 40.9173 47.8683 40.7804C48.1751 40.6451 48.5308 40.7875 48.6674 41.0995L50.2617 44.8178C50.3975 45.1337 50.2571 45.5036 49.9488 45.642C49.8717 45.6772 49.7878 45.6952 49.703 45.6952Z" fill="white"/>
<path d="M48.6857 43.3211C48.443 43.3211 48.224 43.1749 48.1263 42.9473C47.8859 42.3929 47.866 41.7642 48.0713 41.1949C48.4804 40.0438 49.7229 39.4503 50.8471 39.8702C50.8768 39.8811 50.9066 39.8929 50.9364 39.9054C51.4843 40.1353 51.9232 40.5755 52.159 41.1323C52.2987 41.4467 52.1628 41.8181 51.8552 41.9604C51.5484 42.1035 51.1859 41.9643 51.047 41.6492C51.0447 41.6445 51.0432 41.6398 51.0409 41.6351C50.9318 41.3763 50.7288 41.1706 50.4739 41.0627C49.9938 40.8547 49.4397 41.0846 49.2367 41.5765C49.2299 41.5937 49.223 41.6109 49.2169 41.6281C49.1223 41.8932 49.1322 42.1856 49.2444 42.4429C49.3802 42.7588 49.2398 43.1287 48.9315 43.2671C48.8544 43.3023 48.7704 43.3203 48.6857 43.3203V43.3211Z" fill="white"/>
<path d="M52.9046 45.0524C52.6619 45.0524 52.4429 44.9054 52.3452 44.6786L51.0402 41.6359C50.9066 41.3184 51.0501 40.9509 51.3592 40.814C51.666 40.6788 52.0216 40.8211 52.1582 41.1331L53.4633 44.1758C53.5991 44.4917 53.4587 44.8616 53.1504 45C53.0733 45.0352 52.9893 45.0532 52.9046 45.0532V45.0524Z" fill="white"/>
<path d="M52.1514 43.2961C51.9087 43.2961 51.6896 43.149 51.5919 42.9223C51.073 41.7947 51.5446 40.4496 52.6451 39.9187C53.7457 39.3869 55.0583 39.8702 55.5765 40.9978C55.5933 41.0346 55.6094 41.0713 55.6239 41.1081C55.7597 41.4248 55.6193 41.7939 55.3102 41.9323C55.0011 42.0715 54.6409 41.9276 54.5058 41.6109C54.315 41.0909 53.7479 40.8273 53.2404 41.0228C52.7329 41.2183 52.4757 41.7993 52.6665 42.3194C52.6787 42.353 52.6932 42.3866 52.7092 42.4187C52.8451 42.7354 52.7047 43.1037 52.3956 43.2429C52.3185 43.2781 52.2345 43.2961 52.1506 43.2961H52.1514Z" fill="white"/>
<path d="M59.3894 55.4481C59.1468 55.4481 58.9277 55.3011 58.83 55.0743L58.2416 53.7019C58.2019 53.6104 58.1851 53.5103 58.1912 53.4102L58.366 50.6146L54.5058 41.6109C54.3699 41.2942 54.5104 40.9251 54.8195 40.7867C55.1286 40.6483 55.4888 40.7914 55.6239 41.1081L59.5436 50.2518C59.5833 50.3433 59.6001 50.4434 59.594 50.5435L59.4192 53.3391L59.9473 54.5715C60.0832 54.8874 59.9428 55.2573 59.6344 55.3957C59.5574 55.4309 59.4734 55.4489 59.3887 55.4489L59.3894 55.4481Z" fill="white"/>
</g>
<defs>
<linearGradient id="paint0_linear_1_177" x1="0.0356522" y1="39.943" x2="79.9534" y2="39.943" gradientUnits="userSpaceOnUse">
<stop stop-color="#E6E6E6"/>
<stop offset="1" stop-color="white"/>
</linearGradient>
<linearGradient id="paint1_linear_1_177" x1="8.04536" y1="39.943" x2="71.9437" y2="39.943" gradientUnits="userSpaceOnUse">
<stop stop-color="white"/>
<stop offset="1" stop-color="#F2F2F2"/>
</linearGradient>
<clipPath id="clip0_1_177">
<rect width="38" height="40" fill="white" transform="translate(22 20)"/>
</clipPath>
</defs>
</svg>
