<svg width="88" height="91" viewBox="0 0 88 91" fill="none" xmlns="http://www.w3.org/2000/svg">
<g style="mix-blend-mode:multiply" opacity="0.5">
<path opacity="0.01" d="M48.3827 89.9241C26.6847 89.9241 9.02151 72.2679 9.02151 50.5786C9.02151 28.8893 26.6847 11.2331 48.3827 11.2331C70.0806 11.2331 87.7438 28.8893 87.7438 50.5786C87.7438 72.2679 70.0806 89.9241 48.3827 89.9241Z" fill="#FDFDFD"/>
<path opacity="0.02" d="M48.3229 89.8644C26.625 89.8644 8.96176 72.2082 8.96176 50.5188C8.96176 28.8295 26.625 11.1733 48.3229 11.1733C70.0208 11.1733 87.6841 28.8295 87.6841 50.5188C87.6841 72.2082 70.0208 89.8644 48.3229 89.8644Z" fill="#FCFCFC"/>
<path opacity="0.03" d="M48.2631 89.7747C26.5652 89.7747 8.90201 72.1185 8.90201 50.4292C8.90201 28.7399 26.5652 11.0837 48.2631 11.0837C69.9611 11.0837 87.6243 28.7399 87.6243 50.4292C87.6243 72.1185 69.9611 89.7747 48.2631 89.7747Z" fill="#FBFBFB"/>
<path opacity="0.03" d="M48.2332 89.715C26.5353 89.715 8.8721 72.0588 8.8721 50.3695C8.8721 28.6801 26.5353 11.0239 48.2332 11.0239C69.9312 11.0239 87.5944 28.6801 87.5944 50.3695C87.5944 72.0588 69.9312 89.715 48.2332 89.715Z" fill="#FAFAFA"/>
<path opacity="0.04" d="M48.1735 89.6552C26.4755 89.6552 8.81232 71.999 8.81232 50.3097C8.81232 28.6204 26.4755 10.9642 48.1735 10.9642C69.8714 10.9642 87.5346 28.6204 87.5346 50.3097C87.5346 71.999 69.8714 89.6552 48.1735 89.6552Z" fill="#F9F9F9"/>
<path opacity="0.05" d="M48.1137 89.5656C26.4158 89.5656 8.75256 71.9094 8.75256 50.2201C8.75256 28.5307 26.4158 10.8745 48.1137 10.8745C69.8116 10.8745 87.4748 28.5307 87.4748 50.2201C87.4748 71.9094 69.8116 89.5656 48.1137 89.5656Z" fill="#F8F8F8"/>
<path opacity="0.05" d="M48.0838 89.5059C26.3859 89.5059 8.72266 71.8497 8.72266 50.1603C8.72266 28.471 26.3859 10.8148 48.0838 10.8148C69.7818 10.8148 87.445 28.471 87.445 50.1603C87.445 71.8497 69.7818 89.5059 48.0838 89.5059Z" fill="#F7F7F7"/>
<path opacity="0.06" d="M48.024 89.4461C26.3261 89.4461 8.6629 71.7899 8.6629 50.1006C8.6629 28.4112 26.3261 10.755 48.024 10.755C69.722 10.755 87.3852 28.4112 87.3852 50.1006C87.3852 71.7899 69.722 89.4461 48.024 89.4461Z" fill="#F6F6F6"/>
<path opacity="0.07" d="M47.9643 89.3565C26.2663 89.3565 8.60312 71.7003 8.60312 50.011C8.60312 28.3216 26.2663 10.6654 47.9643 10.6654C69.6622 10.6654 87.3254 28.3216 87.3254 50.011C87.3254 71.7003 69.6622 89.3565 47.9643 89.3565Z" fill="#F5F5F5"/>
<path opacity="0.07" d="M47.9045 89.2968C26.2065 89.2968 8.54333 71.6406 8.54333 49.9512C8.54333 28.2619 26.2065 10.6057 47.9045 10.6057C69.6024 10.6057 87.2656 28.2619 87.2656 49.9512C87.2656 71.6406 69.6024 89.2968 47.9045 89.2968Z" fill="#F4F4F4"/>
<path opacity="0.08" d="M47.8746 89.237C26.1767 89.237 8.51346 71.5808 8.51346 49.8915C8.51346 28.2021 26.1767 10.5459 47.8746 10.5459C69.5725 10.5459 87.2358 28.2021 87.2358 49.8915C87.2358 71.5808 69.5725 89.237 47.8746 89.237Z" fill="#F3F3F3"/>
<path opacity="0.08" d="M47.8148 89.1474C26.1169 89.1474 8.45367 71.4912 8.45367 49.8018C8.45367 28.1125 26.1169 10.4563 47.8148 10.4563C69.5128 10.4563 87.176 28.1125 87.176 49.8018C87.176 71.4912 69.5128 89.1474 47.8148 89.1474Z" fill="#F2F2F2"/>
<path opacity="0.09" d="M47.7551 89.0876C26.0571 89.0876 8.39389 71.4314 8.39389 49.7421C8.39389 28.0527 26.0571 10.3965 47.7551 10.3965C69.453 10.3965 87.1162 28.0527 87.1162 49.7421C87.1162 71.4314 69.453 89.0876 47.7551 89.0876Z" fill="#F1F1F1"/>
<path opacity="0.1" d="M47.7252 89.0279C26.0272 89.0279 8.36404 71.3717 8.36404 49.6823C8.36404 27.993 26.0272 10.3368 47.7252 10.3368C69.4231 10.3368 87.0863 27.993 87.0863 49.6823C87.0863 71.3717 69.4231 89.0279 47.7252 89.0279Z" fill="#F0F0F0"/>
<path opacity="0.1" d="M47.6654 88.9382C25.9674 88.9382 8.30423 71.282 8.30423 49.5927C8.30423 27.9034 25.9674 10.2472 47.6654 10.2472C69.3633 10.2472 87.0265 27.9034 87.0265 49.5927C87.0265 71.282 69.3633 88.9382 47.6654 88.9382Z" fill="#EFEFEF"/>
<path opacity="0.11" d="M47.6056 88.8785C25.9077 88.8785 8.24448 71.2223 8.24448 49.5329C8.24448 27.8436 25.9077 10.1874 47.6056 10.1874C69.3036 10.1874 86.9668 27.8436 86.9668 49.5329C86.9668 71.2223 69.3036 88.8785 47.6056 88.8785Z" fill="#EEEEEE"/>
<path opacity="0.12" d="M47.5459 88.8188C25.8479 88.8188 8.18469 71.1626 8.18469 49.4732C8.18469 27.7839 25.8479 10.1277 47.5459 10.1277C69.2438 10.1277 86.907 27.7839 86.907 49.4732C86.907 71.1626 69.2438 88.8188 47.5459 88.8188Z" fill="#EDEDED"/>
<path opacity="0.12" d="M47.516 88.7291C25.818 88.7291 8.15482 71.0729 8.15482 49.3836C8.15482 27.6943 25.818 10.0381 47.516 10.0381C69.2139 10.0381 86.8771 27.6943 86.8771 49.3836C86.8771 71.0729 69.2139 88.7291 47.516 88.7291Z" fill="#ECECEC"/>
<path opacity="0.13" d="M47.4562 88.6694C25.7582 88.6694 8.09503 71.0132 8.09503 49.3238C8.09503 27.6345 25.7582 9.9783 47.4562 9.9783C69.1541 9.9783 86.8173 27.6345 86.8173 49.3238C86.8173 71.0132 69.1541 88.6694 47.4562 88.6694Z" fill="#EBEBEB"/>
<path opacity="0.14" d="M47.3964 88.6096C25.6985 88.6096 8.03528 70.9534 8.03528 49.2641C8.03528 27.5747 25.6985 9.91855 47.3964 9.91855C69.0944 9.91855 86.7576 27.5747 86.7576 49.2641C86.7576 70.9534 69.0944 88.6096 47.3964 88.6096Z" fill="#EAEAEA"/>
<path opacity="0.14" d="M47.3367 88.52C25.6387 88.52 7.97549 70.8638 7.97549 49.1744C7.97549 27.4851 25.6387 9.82892 47.3367 9.82892C69.0346 9.82892 86.6978 27.4851 86.6978 49.1744C86.6978 70.8638 69.0346 88.52 47.3367 88.52Z" fill="#E9E9E9"/>
<path opacity="0.15" d="M47.3068 88.4602C25.6088 88.4602 7.94562 70.804 7.94562 49.1147C7.94562 27.4254 25.6088 9.76917 47.3068 9.76917C69.0047 9.76917 86.6679 27.4254 86.6679 49.1147C86.6679 70.804 69.0047 88.4602 47.3068 88.4602Z" fill="#E8E8E8"/>
<path opacity="0.16" d="M47.247 88.4005C25.549 88.4005 7.88583 70.7443 7.88583 49.0549C7.88583 27.3656 25.549 9.70941 47.247 9.70941C68.9449 9.70941 86.6081 27.3656 86.6081 49.0549C86.6081 70.7443 68.9449 88.4005 47.247 88.4005Z" fill="#E7E7E7"/>
<path opacity="0.16" d="M47.1872 88.3109C25.4892 88.3109 7.82605 70.6547 7.82605 48.9653C7.82605 27.276 25.4892 9.61978 47.1872 9.61978C68.8851 9.61978 86.5483 27.276 86.5483 48.9653C86.5483 70.6547 68.8851 88.3109 47.1872 88.3109Z" fill="#E6E6E6"/>
<path opacity="0.17" d="M47.1573 88.2511C25.4594 88.2511 7.79617 70.5949 7.79617 48.9056C7.79617 27.2163 25.4594 9.56006 47.1573 9.56006C68.8553 9.56006 86.5185 27.2163 86.5185 48.9056C86.5185 70.5949 68.8553 88.2511 47.1573 88.2511Z" fill="#E5E5E5"/>
<path opacity="0.18" d="M47.0976 88.1914C25.3996 88.1914 7.73642 70.5352 7.73642 48.8458C7.73642 27.1565 25.3996 9.50031 47.0976 9.50031C68.7955 9.50031 86.4587 27.1565 86.4587 48.8458C86.4587 70.5352 68.7955 88.1914 47.0976 88.1914Z" fill="#E4E4E4"/>
<path opacity="0.18" d="M47.0377 88.1017C25.3398 88.1017 7.67661 70.4455 7.67661 48.7562C7.67661 27.0669 25.3398 9.41068 47.0377 9.41068C68.7357 9.41068 86.3989 27.0669 86.3989 48.7562C86.3989 70.4455 68.7357 88.1017 47.0377 88.1017Z" fill="#E3E3E3"/>
<path opacity="0.19" d="M46.978 88.042C25.28 88.042 7.61685 70.3858 7.61685 48.6965C7.61685 27.0071 25.28 9.35092 46.978 9.35092C68.6759 9.35092 86.3391 27.0071 86.3391 48.6965C86.3391 70.3858 68.6759 88.042 46.978 88.042Z" fill="#E2E2E2"/>
<path opacity="0.2" d="M46.9481 87.9524C25.2502 87.9524 7.58698 70.2962 7.58698 48.6068C7.58698 26.9175 25.2502 9.26129 46.9481 9.26129C68.6461 9.26129 86.3093 26.9175 86.3093 48.6068C86.3093 70.2962 68.6461 87.9524 46.9481 87.9524Z" fill="#E1E1E1"/>
<path opacity="0.2" d="M46.8883 87.8926C25.1904 87.8926 7.52716 70.2364 7.52716 48.5471C7.52716 26.8577 25.1904 9.20154 46.8883 9.20154C68.5863 9.20154 86.2495 26.8577 86.2495 48.5471C86.2495 70.2364 68.5863 87.8926 46.8883 87.8926Z" fill="#E0E0E0"/>
<path opacity="0.21" d="M46.8285 87.8329C25.1306 87.8329 7.46741 70.1767 7.46741 48.4873C7.46741 26.798 25.1306 9.14178 46.8285 9.14178C68.5265 9.14178 86.1897 26.798 86.1897 48.4873C86.1897 70.1767 68.5265 87.8329 46.8285 87.8329Z" fill="#DFDFDF"/>
<path opacity="0.22" d="M46.7688 87.7432C25.0709 87.7432 7.40765 70.087 7.40765 48.3977C7.40765 26.7084 25.0709 9.05215 46.7688 9.05215C68.4667 9.05215 86.1299 26.7084 86.1299 48.3977C86.1299 70.087 68.4667 87.7432 46.7688 87.7432Z" fill="#DEDEDE"/>
<path opacity="0.22" d="M46.7389 87.6835C25.0409 87.6835 7.37775 70.0273 7.37775 48.338C7.37775 26.6486 25.0409 8.99243 46.7389 8.99243C68.4368 8.99243 86.1 26.6486 86.1 48.338C86.1 70.0273 68.4368 87.6835 46.7389 87.6835Z" fill="#DDDDDD"/>
<path opacity="0.23" d="M46.6791 87.6237C24.9812 87.6237 7.31796 69.9676 7.31796 48.2782C7.31796 26.5889 24.9812 8.93268 46.6791 8.93268C68.3771 8.93268 86.0403 26.5889 86.0403 48.2782C86.0403 69.9676 68.3771 87.6237 46.6791 87.6237Z" fill="#DCDCDC"/>
<path opacity="0.24" d="M46.6194 87.5341C24.9214 87.5341 7.25821 69.8779 7.25821 48.1886C7.25821 26.4992 24.9214 8.84305 46.6194 8.84305C68.3173 8.84305 85.9805 26.4992 85.9805 48.1886C85.9805 69.8779 68.3173 87.5341 46.6194 87.5341Z" fill="#DBDBDB"/>
<path opacity="0.24" d="M46.5895 87.4744C24.8915 87.4744 7.2283 69.8182 7.2283 48.1288C7.2283 26.4395 24.8915 8.78329 46.5895 8.78329C68.2874 8.78329 85.9506 26.4395 85.9506 48.1288C85.9506 69.8182 68.2874 87.4744 46.5895 87.4744Z" fill="#DADADA"/>
<path opacity="0.25" d="M46.5297 87.4146C24.8317 87.4146 7.16855 69.7584 7.16855 48.0691C7.16855 26.3797 24.8317 8.72354 46.5297 8.72354C68.2276 8.72354 85.8908 26.3797 85.8908 48.0691C85.8908 69.7584 68.2276 87.4146 46.5297 87.4146Z" fill="#D9D9D9"/>
<path opacity="0.25" d="M46.4699 87.325C24.772 87.325 7.10876 69.6688 7.10876 47.9794C7.10876 26.2901 24.772 8.63391 46.4699 8.63391C68.1679 8.63391 85.8311 26.2901 85.8311 47.9794C85.8311 69.6688 68.1679 87.325 46.4699 87.325Z" fill="#D8D8D8"/>
<path opacity="0.26" d="M46.4102 87.2652C24.7122 87.2652 7.04901 69.609 7.04901 47.9197C7.04901 26.2304 24.7122 8.57416 46.4102 8.57416C68.1081 8.57416 85.7713 26.2304 85.7713 47.9197C85.7713 69.609 68.1081 87.2652 46.4102 87.2652Z" fill="#D7D7D7"/>
<path opacity="0.27" d="M46.3802 87.2055C24.6823 87.2055 7.0191 69.5493 7.0191 47.8599C7.0191 26.1706 24.6823 8.5144 46.3802 8.5144C68.0782 8.5144 85.7414 26.1706 85.7414 47.8599C85.7414 69.5493 68.0782 87.2055 46.3802 87.2055Z" fill="#D6D6D6"/>
<path opacity="0.27" d="M46.3205 87.1159C24.6225 87.1159 6.95935 69.4597 6.95935 47.7703C6.95935 26.081 24.6225 8.4248 46.3205 8.4248C68.0184 8.4248 85.6816 26.081 85.6816 47.7703C85.6816 69.4597 68.0184 87.1159 46.3205 87.1159Z" fill="#D5D5D5"/>
<path opacity="0.28" d="M46.2607 87.0561C24.5628 87.0561 6.89957 69.3999 6.89957 47.7106C6.89957 26.0212 24.5628 8.36505 46.2607 8.36505C67.9587 8.36505 85.6219 26.0212 85.6219 47.7106C85.6219 69.3999 67.9587 87.0561 46.2607 87.0561Z" fill="#D4D4D4"/>
<path opacity="0.29" d="M46.2308 86.9964C24.5329 86.9964 6.86969 69.3402 6.86969 47.6508C6.86969 25.9615 24.5329 8.3053 46.2308 8.3053C67.9288 8.3053 85.592 25.9615 85.592 47.6508C85.592 69.3402 67.9288 86.9964 46.2308 86.9964Z" fill="#D3D3D3"/>
<path opacity="0.29" d="M46.171 86.9067C24.4731 86.9067 6.80991 69.2505 6.80991 47.5612C6.80991 25.8719 24.4731 8.21567 46.171 8.21567C67.869 8.21567 85.5322 25.8719 85.5322 47.5612C85.5322 69.2505 67.869 86.9067 46.171 86.9067Z" fill="#D2D2D2"/>
<path opacity="0.3" d="M46.1113 86.847C24.4133 86.847 6.75012 69.1908 6.75012 47.5014C6.75012 25.8121 24.4133 8.15591 46.1113 8.15591C67.8092 8.15591 85.4724 25.8121 85.4724 47.5014C85.4724 69.1908 67.8092 86.847 46.1113 86.847Z" fill="#D1D1D1"/>
<path opacity="0.31" d="M46.0515 86.7872C24.3536 86.7872 6.69034 69.131 6.69034 47.4417C6.69034 25.7524 24.3536 8.09616 46.0515 8.09616C67.7494 8.09616 85.4126 25.7524 85.4126 47.4417C85.4126 69.131 67.7494 86.7872 46.0515 86.7872Z" fill="#D0D0D0"/>
<path opacity="0.31" d="M46.0216 86.6976C24.3237 86.6976 6.66046 69.0414 6.66046 47.3521C6.66046 25.6627 24.3237 8.00653 46.0216 8.00653C67.7195 8.00653 85.3827 25.6627 85.3827 47.3521C85.3827 69.0414 67.7195 86.6976 46.0216 86.6976Z" fill="#CFCFCF"/>
<path opacity="0.32" d="M45.9618 86.6378C24.2639 86.6378 6.60068 68.9817 6.60068 47.2923C6.60068 25.603 24.2639 7.94678 45.9618 7.94678C67.6598 7.94678 85.323 25.603 85.323 47.2923C85.323 68.9817 67.6598 86.6378 45.9618 86.6378Z" fill="#CECECE"/>
<path opacity="0.33" d="M45.9021 86.5781C24.2041 86.5781 6.54092 68.9219 6.54092 47.2326C6.54092 25.5432 24.2041 7.88702 45.9021 7.88702C67.6 7.88702 85.2632 25.5432 85.2632 47.2326C85.2632 68.9219 67.6 86.5781 45.9021 86.5781Z" fill="#CDCDCD"/>
<path opacity="0.33" d="M45.8423 86.4885C24.1444 86.4885 6.48114 68.8323 6.48114 47.143C6.48114 25.4536 24.1444 7.79742 45.8423 7.79742C67.5402 7.79742 85.2034 25.4536 85.2034 47.143C85.2034 68.8323 67.5402 86.4885 45.8423 86.4885Z" fill="#CCCCCC"/>
<path opacity="0.34" d="M45.8124 86.4287C24.1145 86.4287 6.45126 68.7725 6.45126 47.0832C6.45126 25.3939 24.1145 7.73767 45.8124 7.73767C67.5103 7.73767 85.1735 25.3939 85.1735 47.0832C85.1735 68.7725 67.5103 86.4287 45.8124 86.4287Z" fill="#CBCBCB"/>
<path opacity="0.35" d="M45.7526 86.369C24.0547 86.369 6.39148 68.7128 6.39148 47.0235C6.39148 25.3341 24.0547 7.67792 45.7526 7.67792C67.4506 7.67792 85.1138 25.3341 85.1138 47.0235C85.1138 68.7128 67.4506 86.369 45.7526 86.369Z" fill="#CACACA"/>
<path opacity="0.35" d="M45.6929 86.2794C23.9949 86.2794 6.33173 68.6232 6.33173 46.9338C6.33173 25.2445 23.9949 7.58829 45.6929 7.58829C67.3908 7.58829 85.054 25.2445 85.054 46.9338C85.054 68.6232 67.3908 86.2794 45.6929 86.2794Z" fill="#C9C9C9"/>
<path opacity="0.36" d="M45.663 86.2196C23.965 86.2196 6.30182 68.5634 6.30182 46.8741C6.30182 25.1847 23.965 7.52853 45.663 7.52853C67.3609 7.52853 85.0241 25.1847 85.0241 46.8741C85.0241 68.5634 67.3609 86.2196 45.663 86.2196Z" fill="#C8C8C8"/>
<path opacity="0.37" d="M45.6032 86.1599C23.9053 86.1599 6.24207 68.5037 6.24207 46.8143C6.24207 25.125 23.9053 7.46878 45.6032 7.46878C67.3012 7.46878 84.9643 25.125 84.9643 46.8143C84.9643 68.5037 67.3012 86.1599 45.6032 86.1599Z" fill="#C7C7C7"/>
<path opacity="0.37" d="M45.5434 86.0702C23.8455 86.0702 6.18228 68.414 6.18228 46.7247C6.18228 25.0353 23.8455 7.37915 45.5434 7.37915C67.2414 7.37915 84.9046 25.0353 84.9046 46.7247C84.9046 68.414 67.2414 86.0702 45.5434 86.0702Z" fill="#C6C6C6"/>
<path opacity="0.38" d="M45.4836 86.0105C23.7857 86.0105 6.1225 68.3543 6.1225 46.6649C6.1225 24.9756 23.7857 7.3194 45.4836 7.3194C67.1816 7.3194 84.8448 24.9756 84.8448 46.6649C84.8448 68.3543 67.1816 86.0105 45.4836 86.0105Z" fill="#C5C5C5"/>
<path opacity="0.39" d="M45.4538 85.9507C23.7558 85.9507 6.09262 68.2945 6.09262 46.6052C6.09262 24.9159 23.7558 7.25967 45.4538 7.25967C67.1517 7.25967 84.8149 24.9159 84.8149 46.6052C84.8149 68.2945 67.1517 85.9507 45.4538 85.9507Z" fill="#C4C4C4"/>
<path opacity="0.39" d="M45.394 85.8611C23.6961 85.8611 6.03284 68.2049 6.03284 46.5156C6.03284 24.8262 23.6961 7.17004 45.394 7.17004C67.0919 7.17004 84.7551 24.8262 84.7551 46.5156C84.7551 68.2049 67.0919 85.8611 45.394 85.8611Z" fill="#C3C3C3"/>
<path opacity="0.4" d="M45.3342 85.8014C23.6362 85.8014 5.97305 68.1452 5.97305 46.4558C5.97305 24.7665 23.6362 7.11029 45.3342 7.11029C67.0321 7.11029 84.6954 24.7665 84.6954 46.4558C84.6954 68.1452 67.0321 85.8014 45.3342 85.8014Z" fill="#C2C2C2"/>
<path opacity="0.41" d="M45.2744 85.7117C23.5765 85.7117 5.9133 68.0555 5.9133 46.3662C5.9133 24.6769 23.5765 7.02066 45.2744 7.02066C66.9724 7.02066 84.6356 24.6769 84.6356 46.3662C84.6356 68.0555 66.9724 85.7117 45.2744 85.7117Z" fill="#C1C1C1"/>
<path opacity="0.41" d="M45.2445 85.652C23.5466 85.652 5.88339 67.9958 5.88339 46.3064C5.88339 24.6171 23.5466 6.96091 45.2445 6.96091C66.9425 6.96091 84.6057 24.6171 84.6057 46.3064C84.6057 67.9958 66.9425 85.652 45.2445 85.652Z" fill="#C0C0C0"/>
<path opacity="0.42" d="M45.1848 85.5922C23.4868 85.5922 5.82361 67.936 5.82361 46.2467C5.82361 24.5574 23.4868 6.90115 45.1848 6.90115C66.8827 6.90115 84.5459 24.5574 84.5459 46.2467C84.5459 67.936 66.8827 85.5922 45.1848 85.5922Z" fill="#BFBFBF"/>
<path opacity="0.42" d="M45.125 85.5026C23.4271 85.5026 5.76385 67.8464 5.76385 46.1571C5.76385 24.4677 23.4271 6.81152 45.125 6.81152C66.8229 6.81152 84.4861 24.4677 84.4861 46.1571C84.4861 67.8464 66.8229 85.5026 45.125 85.5026Z" fill="#BEBEBE"/>
<path opacity="0.43" d="M45.0951 85.4428C23.3972 85.4428 5.73395 67.7866 5.73395 46.0973C5.73395 24.408 23.3972 6.75177 45.0951 6.75177C66.7931 6.75177 84.4563 24.408 84.4563 46.0973C84.4563 67.7866 66.7931 85.4428 45.0951 85.4428Z" fill="#BDBDBD"/>
<path opacity="0.44" d="M45.0353 85.3831C23.3374 85.3831 5.67419 67.7269 5.67419 46.0376C5.67419 24.3482 23.3374 6.69205 45.0353 6.69205C66.7333 6.69205 84.3965 24.3482 84.3965 46.0376C84.3965 67.7269 66.7333 85.3831 45.0353 85.3831Z" fill="#BCBCBC"/>
<path opacity="0.44" d="M44.9756 85.2935C23.2776 85.2935 5.61441 67.6373 5.61441 45.948C5.61441 24.2586 23.2776 6.60242 44.9756 6.60242C66.6735 6.60242 84.3367 24.2586 84.3367 45.948C84.3367 67.6373 66.6735 85.2935 44.9756 85.2935Z" fill="#BBBBBB"/>
<path opacity="0.45" d="M44.9158 85.2337C23.2179 85.2337 5.55466 67.5775 5.55466 45.8882C5.55466 24.1989 23.2179 6.54266 44.9158 6.54266C66.6137 6.54266 84.2769 24.1989 84.2769 45.8882C84.2769 67.5775 66.6137 85.2337 44.9158 85.2337Z" fill="#BABABA"/>
<path opacity="0.46" d="M44.8859 85.174C23.1879 85.174 5.52475 67.5178 5.52475 45.8284C5.52475 24.1391 23.1879 6.48291 44.8859 6.48291C66.5838 6.48291 84.2471 24.1391 84.2471 45.8284C84.2471 67.5178 66.5838 85.174 44.8859 85.174Z" fill="#B9B9B9"/>
<path opacity="0.46" d="M44.8261 85.0844C23.1282 85.0844 5.465 67.4282 5.465 45.7388C5.465 24.0495 23.1282 6.39328 44.8261 6.39328C66.5241 6.39328 84.1873 24.0495 84.1873 45.7388C84.1873 67.4282 66.5241 85.0844 44.8261 85.0844Z" fill="#B8B8B8"/>
<path opacity="0.47" d="M44.7664 85.0246C23.0684 85.0246 5.40521 67.3684 5.40521 45.6791C5.40521 23.9897 23.0684 6.33353 44.7664 6.33353C66.4643 6.33353 84.1275 23.9897 84.1275 45.6791C84.1275 67.3684 66.4643 85.0246 44.7664 85.0246Z" fill="#B7B7B7"/>
<path opacity="0.48" d="M44.7365 84.9648C23.0385 84.9648 5.37534 67.3086 5.37534 45.6193C5.37534 23.93 23.0385 6.27377 44.7365 6.27377C66.4344 6.27377 84.0976 23.93 84.0976 45.6193C84.0976 67.3086 66.4344 84.9648 44.7365 84.9648Z" fill="#B6B6B6"/>
<path opacity="0.48" d="M44.6767 84.8752C22.9787 84.8752 5.31555 67.219 5.31555 45.5297C5.31555 23.8403 22.9787 6.18414 44.6767 6.18414C66.3746 6.18414 84.0379 23.8403 84.0379 45.5297C84.0379 67.219 66.3746 84.8752 44.6767 84.8752Z" fill="#B5B5B5"/>
<path opacity="0.49" d="M44.6169 84.8155C22.919 84.8155 5.25577 67.1593 5.25577 45.47C5.25577 23.7806 22.919 6.12442 44.6169 6.12442C66.3149 6.12442 83.9781 23.7806 83.9781 45.47C83.9781 67.1593 66.3149 84.8155 44.6169 84.8155Z" fill="#B4B4B4"/>
<path opacity="0.5" d="M44.5571 84.7557C22.8592 84.7557 5.19598 67.0995 5.19598 45.4102C5.19598 23.7209 22.8592 6.06467 44.5571 6.06467C66.2551 6.06467 83.9183 23.7209 83.9183 45.4102C83.9183 67.0995 66.2551 84.7557 44.5571 84.7557Z" fill="#B3B3B3"/>
<path opacity="0.5" d="M44.5273 84.6661C22.8293 84.6661 5.16614 67.0099 5.16614 45.3206C5.16614 23.6312 22.8293 5.97504 44.5273 5.97504C66.2252 5.97504 83.8884 23.6312 83.8884 45.3206C83.8884 67.0099 66.2252 84.6661 44.5273 84.6661Z" fill="#B2B2B2"/>
<path opacity="0.51" d="M44.4675 84.6064C22.7695 84.6064 5.10632 66.9502 5.10632 45.2608C5.10632 23.5715 22.7695 5.91528 44.4675 5.91528C66.1654 5.91528 83.8286 23.5715 83.8286 45.2608C83.8286 66.9502 66.1654 84.6064 44.4675 84.6064Z" fill="#B1B1B1"/>
<path opacity="0.52" d="M44.4077 84.5466C22.7098 84.5466 5.04657 66.8904 5.04657 45.2011C5.04657 23.5117 22.7098 5.85553 44.4077 5.85553C66.1057 5.85553 83.7689 23.5117 83.7689 45.2011C83.7689 66.8904 66.1057 84.5466 44.4077 84.5466Z" fill="#B0B0B0"/>
<path opacity="0.52" d="M44.3479 84.457C22.65 84.457 4.98679 66.8008 4.98679 45.1114C4.98679 23.4221 22.65 5.7659 44.3479 5.7659C66.0459 5.7659 83.7091 23.4221 83.7091 45.1114C83.7091 66.8008 66.0459 84.457 44.3479 84.457Z" fill="#AFAFAF"/>
<path opacity="0.53" d="M44.3181 84.3972C22.6201 84.3972 4.95691 66.741 4.95691 45.0517C4.95691 23.3623 22.6201 5.70615 44.3181 5.70615C66.016 5.70615 83.6792 23.3623 83.6792 45.0517C83.6792 66.741 66.016 84.3972 44.3181 84.3972Z" fill="#AEAEAE"/>
<path opacity="0.54" d="M44.2583 84.3375C22.5603 84.3375 4.89713 66.6813 4.89713 44.9919C4.89713 23.3026 22.5603 5.64639 44.2583 5.64639C65.9562 5.64639 83.6194 23.3026 83.6194 44.9919C83.6194 66.6813 65.9562 84.3375 44.2583 84.3375Z" fill="#ADADAD"/>
<path opacity="0.54" d="M44.1985 84.2479C22.5006 84.2479 4.83737 66.5917 4.83737 44.9023C4.83737 23.213 22.5006 5.55679 44.1985 5.55679C65.8965 5.55679 83.5597 23.213 83.5597 44.9023C83.5597 66.5917 65.8965 84.2479 44.1985 84.2479Z" fill="#ACACAC"/>
<path opacity="0.55" d="M44.1686 84.1881C22.4707 84.1881 4.80746 66.5319 4.80746 44.8426C4.80746 23.1532 22.4707 5.49704 44.1686 5.49704C65.8666 5.49704 83.5297 23.1532 83.5297 44.8426C83.5297 66.5319 65.8666 84.1881 44.1686 84.1881Z" fill="#ABABAB"/>
<path opacity="0.56" d="M44.1089 84.1284C22.4109 84.1284 4.74771 66.4722 4.74771 44.7828C4.74771 23.0935 22.4109 5.43729 44.1089 5.43729C65.8068 5.43729 83.47 23.0935 83.47 44.7828C83.47 66.4722 65.8068 84.1284 44.1089 84.1284Z" fill="#AAAAAA"/>
<path opacity="0.56" d="M44.0491 84.0387C22.3511 84.0387 4.68793 66.3825 4.68793 44.6932C4.68793 23.0039 22.3511 5.34766 44.0491 5.34766C65.747 5.34766 83.4102 23.0039 83.4102 44.6932C83.4102 66.3825 65.747 84.0387 44.0491 84.0387Z" fill="#A9A9A9"/>
<path opacity="0.57" d="M43.9893 83.979C22.2913 83.979 4.62814 66.3228 4.62814 44.6334C4.62814 22.9441 22.2913 5.2879 43.9893 5.2879C65.6872 5.2879 83.3504 22.9441 83.3504 44.6334C83.3504 66.3228 65.6872 83.979 43.9893 83.979Z" fill="#A8A8A8"/>
<path opacity="0.58" d="M43.9594 83.9192C22.2615 83.9192 4.59827 66.263 4.59827 44.5737C4.59827 22.8843 22.2615 5.22815 43.9594 5.22815C65.6574 5.22815 83.3205 22.8843 83.3205 44.5737C83.3205 66.263 65.6574 83.9192 43.9594 83.9192Z" fill="#A7A7A7"/>
<path opacity="0.58" d="M43.8996 83.8296C22.2017 83.8296 4.53848 66.1734 4.53848 44.4841C4.53848 22.7947 22.2017 5.13852 43.8996 5.13852C65.5976 5.13852 83.2608 22.7947 83.2608 44.4841C83.2608 66.1734 65.5976 83.8296 43.8996 83.8296Z" fill="#A6A6A6"/>
<path opacity="0.59" d="M43.8399 83.7698C22.1419 83.7698 4.47873 66.1136 4.47873 44.4243C4.47873 22.735 22.1419 5.07877 43.8399 5.07877C65.5378 5.07877 83.201 22.735 83.201 44.4243C83.201 66.1136 65.5378 83.7698 43.8399 83.7698Z" fill="#A5A5A5"/>
<path opacity="0.59" d="M43.7801 83.7101C22.0821 83.7101 4.41895 66.0539 4.41895 44.3645C4.41895 22.6752 22.0821 5.01901 43.7801 5.01901C65.478 5.01901 83.1412 22.6752 83.1412 44.3645C83.1412 66.0539 65.478 83.7101 43.7801 83.7101Z" fill="#A4A4A4"/>
<path opacity="0.6" d="M43.7502 83.6205C22.0523 83.6205 4.38907 65.9643 4.38907 44.2749C4.38907 22.5856 22.0523 4.92941 43.7502 4.92941C65.4482 4.92941 83.1114 22.5856 83.1114 44.2749C83.1114 65.9643 65.4482 83.6205 43.7502 83.6205Z" fill="#A3A3A3"/>
<path opacity="0.61" d="M43.6904 83.5607C21.9925 83.5607 4.32928 65.9045 4.32928 44.2152C4.32928 22.5259 21.9925 4.86966 43.6904 4.86966C65.3884 4.86966 83.0516 22.5259 83.0516 44.2152C83.0516 65.9045 65.3884 83.5607 43.6904 83.5607Z" fill="#A2A2A2"/>
<path opacity="0.61" d="M43.6306 83.4711C21.9327 83.4711 4.2695 65.8149 4.2695 44.1256C4.2695 22.4362 21.9327 4.78003 43.6306 4.78003C65.3286 4.78003 82.9918 22.4362 82.9918 44.1256C82.9918 65.8149 65.3286 83.4711 43.6306 83.4711Z" fill="#A1A1A1"/>
<path opacity="0.62" d="M43.6008 83.4113C21.9028 83.4113 4.23962 65.7551 4.23962 44.0658C4.23962 22.3765 21.9028 4.72028 43.6008 4.72028C65.2987 4.72028 82.9619 22.3765 82.9619 44.0658C82.9619 65.7551 65.2987 83.4113 43.6008 83.4113Z" fill="#A0A0A0"/>
<path opacity="0.63" d="M43.541 83.3516C21.843 83.3516 4.17984 65.6954 4.17984 44.0061C4.17984 22.3167 21.843 4.66052 43.541 4.66052C65.2389 4.66052 82.9021 22.3167 82.9021 44.0061C82.9021 65.6954 65.2389 83.3516 43.541 83.3516Z" fill="#9F9F9F"/>
<path opacity="0.63" d="M43.4812 83.262C21.7833 83.262 4.12006 65.6058 4.12006 43.9164C4.12006 22.2271 21.7833 4.57089 43.4812 4.57089C65.1792 4.57089 82.8424 22.2271 82.8424 43.9164C82.8424 65.6058 65.1792 83.262 43.4812 83.262Z" fill="#9E9E9E"/>
<path opacity="0.64" d="M43.4214 83.2022C21.7235 83.2022 4.0603 65.546 4.0603 43.8567C4.0603 22.1673 21.7235 4.51114 43.4214 4.51114C65.1194 4.51114 82.7826 22.1673 82.7826 43.8567C82.7826 65.546 65.1194 83.2022 43.4214 83.2022Z" fill="#9D9D9D"/>
<path opacity="0.65" d="M43.3915 83.1425C21.6936 83.1425 4.0304 65.4863 4.0304 43.7969C4.0304 22.1076 21.6936 4.45139 43.3915 4.45139C65.0895 4.45139 82.7527 22.1076 82.7527 43.7969C82.7527 65.4863 65.0895 83.1425 43.3915 83.1425Z" fill="#9C9C9C"/>
<path opacity="0.65" d="M43.3318 83.0529C21.6338 83.0529 3.97064 65.3967 3.97064 43.7073C3.97064 22.018 21.6338 4.36179 43.3318 4.36179C65.0297 4.36179 82.6929 22.018 82.6929 43.7073C82.6929 65.3967 65.0297 83.0529 43.3318 83.0529Z" fill="#9B9B9B"/>
<path opacity="0.66" d="M43.272 82.9931C21.5741 82.9931 3.91086 65.3369 3.91086 43.6476C3.91086 21.9582 21.5741 4.30203 43.272 4.30203C64.97 4.30203 82.6332 21.9582 82.6332 43.6476C82.6332 65.3369 64.97 82.9931 43.272 82.9931Z" fill="#9A9A9A"/>
<path opacity="0.67" d="M43.2421 82.9333C21.5442 82.9333 3.88098 65.2772 3.88098 43.5878C3.88098 21.8985 21.5442 4.24228 43.2421 4.24228C64.9401 4.24228 82.6033 21.8985 82.6033 43.5878C82.6033 65.2772 64.9401 82.9333 43.2421 82.9333Z" fill="#999999"/>
<path opacity="0.67" d="M43.1823 82.8437C21.4844 82.8437 3.8212 65.1875 3.8212 43.4982C3.8212 21.8088 21.4844 4.15265 43.1823 4.15265C64.8803 4.15265 82.5435 21.8088 82.5435 43.4982C82.5435 65.1875 64.8803 82.8437 43.1823 82.8437Z" fill="#989898"/>
<path opacity="0.68" d="M43.1226 82.784C21.4246 82.784 3.76144 65.1278 3.76144 43.4384C3.76144 21.7491 21.4246 4.0929 43.1226 4.0929C64.8205 4.0929 82.4837 21.7491 82.4837 43.4384C82.4837 65.1278 64.8205 82.784 43.1226 82.784Z" fill="#979797"/>
<path opacity="0.69" d="M43.0628 82.7242C21.3649 82.7242 3.70166 65.068 3.70166 43.3787C3.70166 21.6893 21.3649 4.03314 43.0628 4.03314C64.7608 4.03314 82.424 21.6893 82.424 43.3787C82.424 65.068 64.7608 82.7242 43.0628 82.7242Z" fill="#969696"/>
<path opacity="0.69" d="M43.0329 82.6346C21.335 82.6346 3.67178 64.9784 3.67178 43.289C3.67178 21.5997 21.335 3.94351 43.0329 3.94351C64.7309 3.94351 82.3941 21.5997 82.3941 43.289C82.3941 64.9784 64.7309 82.6346 43.0329 82.6346Z" fill="#959595"/>
<path opacity="0.7" d="M42.9731 82.5748C21.2752 82.5748 3.612 64.9186 3.612 43.2293C3.612 21.54 21.2752 3.88376 42.9731 3.88376C64.6711 3.88376 82.3343 21.54 82.3343 43.2293C82.3343 64.9186 64.6711 82.5748 42.9731 82.5748Z" fill="#949494"/>
<path opacity="0.71" d="M42.9134 82.5151C21.2154 82.5151 3.55222 64.8589 3.55222 43.1696C3.55222 21.4802 21.2154 3.82404 42.9134 3.82404C64.6113 3.82404 82.2745 21.4802 82.2745 43.1696C82.2745 64.8589 64.6113 82.5151 42.9134 82.5151Z" fill="#939393"/>
<path opacity="0.71" d="M42.8536 82.4255C21.1557 82.4255 3.49243 64.7693 3.49243 43.0799C3.49243 21.3906 21.1557 3.73441 42.8536 3.73441C64.5515 3.73441 82.2147 21.3906 82.2147 43.0799C82.2147 64.7693 64.5515 82.4255 42.8536 82.4255Z" fill="#929292"/>
<path opacity="0.72" d="M42.8237 82.3657C21.1258 82.3657 3.46255 64.7095 3.46255 43.0202C3.46255 21.3308 21.1258 3.67465 42.8237 3.67465C64.5216 3.67465 82.1848 21.3308 82.1848 43.0202C82.1848 64.7095 64.5216 82.3657 42.8237 82.3657Z" fill="#919191"/>
<path opacity="0.73" d="M42.7639 82.306C21.066 82.306 3.40277 64.6498 3.40277 42.9604C3.40277 21.2711 21.066 3.6149 42.7639 3.6149C64.4619 3.6149 82.1251 21.2711 82.1251 42.9604C82.1251 64.6498 64.4619 82.306 42.7639 82.306Z" fill="#909090"/>
<path opacity="0.73" d="M42.7042 82.2163C21.0062 82.2163 3.34302 64.5601 3.34302 42.8708C3.34302 21.1815 21.0062 3.52527 42.7042 3.52527C64.4021 3.52527 82.0653 21.1815 82.0653 42.8708C82.0653 64.5601 64.4021 82.2163 42.7042 82.2163Z" fill="#8F8F8F"/>
<path opacity="0.74" d="M42.6743 82.1566C20.9763 82.1566 3.31311 64.5004 3.31311 42.8111C3.31311 21.1217 20.9763 3.46552 42.6743 3.46552C64.3722 3.46552 82.0354 21.1217 82.0354 42.8111C82.0354 64.5004 64.3722 82.1566 42.6743 82.1566Z" fill="#8E8E8E"/>
<path opacity="0.75" d="M42.6145 82.0968C20.9166 82.0968 3.25336 64.4406 3.25336 42.7513C3.25336 21.062 20.9166 3.40576 42.6145 3.40576C64.3124 3.40576 81.9756 21.062 81.9756 42.7513C81.9756 64.4406 64.3124 82.0968 42.6145 82.0968Z" fill="#8D8D8D"/>
<path opacity="0.75" d="M42.5547 82.0072C20.8568 82.0072 3.19357 64.351 3.19357 42.6617C3.19357 20.9723 20.8568 3.31613 42.5547 3.31613C64.2527 3.31613 81.9159 20.9723 81.9159 42.6617C81.9159 64.351 64.2527 82.0072 42.5547 82.0072Z" fill="#8C8C8C"/>
<path opacity="0.76" d="M42.495 81.9475C20.797 81.9475 3.13382 64.2913 3.13382 42.6019C3.13382 20.9126 20.797 3.25641 42.495 3.25641C64.1929 3.25641 81.8561 20.9126 81.8561 42.6019C81.8561 64.2913 64.1929 81.9475 42.495 81.9475Z" fill="#8B8B8B"/>
<path opacity="0.76" d="M42.4651 81.8877C20.7671 81.8877 3.10391 64.2315 3.10391 42.5422C3.10391 20.8529 20.7671 3.19666 42.4651 3.19666C64.163 3.19666 81.8262 20.8529 81.8262 42.5422C81.8262 64.2315 64.163 81.8877 42.4651 81.8877Z" fill="#8A8A8A"/>
<path opacity="0.77" d="M42.4053 81.7981C20.7073 81.7981 3.04413 64.1419 3.04413 42.4526C3.04413 20.7632 20.7073 3.10703 42.4053 3.10703C64.1032 3.10703 81.7664 20.7632 81.7664 42.4526C81.7664 64.1419 64.1032 81.7981 42.4053 81.7981Z" fill="#898989"/>
<path opacity="0.78" d="M42.3455 81.7383C20.6476 81.7383 2.98438 64.0821 2.98438 42.3928C2.98438 20.7035 20.6476 3.04727 42.3455 3.04727C64.0435 3.04727 81.7067 20.7035 81.7067 42.3928C81.7067 64.0821 64.0435 81.7383 42.3455 81.7383Z" fill="#888888"/>
<path opacity="0.78" d="M42.2857 81.6786C20.5878 81.6786 2.92459 64.0224 2.92459 42.3331C2.92459 20.6437 20.5878 2.98752 42.2857 2.98752C63.9837 2.98752 81.6469 20.6437 81.6469 42.3331C81.6469 64.0224 63.9837 81.6786 42.2857 81.6786Z" fill="#878787"/>
<path opacity="0.79" d="M42.2559 81.589C20.5579 81.589 2.89471 63.9328 2.89471 42.2434C2.89471 20.5541 20.5579 2.92776 42.2559 2.92776C63.9538 2.92776 81.617 20.584 81.617 42.2733C81.617 63.9626 63.9538 81.6188 42.2559 81.6188V81.589Z" fill="#868686"/>
<path opacity="0.8" d="M42.1961 81.5292C20.4981 81.5292 2.83493 63.873 2.83493 42.1837C2.83493 20.4943 20.4981 2.86801 42.1961 2.86801C63.894 2.86801 81.5572 20.5242 81.5572 42.2135C81.5572 63.9029 63.894 81.5591 42.1961 81.5591V81.5292Z" fill="#858585"/>
<path opacity="0.8" d="M42.1363 81.4396C20.4383 81.4396 2.77515 63.7834 2.77515 42.094C2.77515 20.4047 20.4383 2.77838 42.1363 2.77838C63.8342 2.77838 81.4974 20.4346 81.4974 42.1239C81.4974 63.8133 63.8342 81.4695 42.1363 81.4695V81.4396Z" fill="#848484"/>
<path opacity="0.81" d="M42.1064 81.3798C20.4085 81.3798 2.74527 63.7236 2.74527 42.0343C2.74527 20.3449 20.4085 2.71863 42.1064 2.71863C63.8044 2.71863 81.4676 20.3748 81.4676 42.0642C81.4676 63.7535 63.8044 81.4097 42.1064 81.4097V81.3798Z" fill="#838383"/>
<path opacity="0.82" d="M42.0466 81.3201C20.3487 81.3201 2.68549 63.6639 2.68549 41.9746C2.68549 20.2852 20.3487 2.62903 42.0466 2.62903C63.7446 2.62903 81.4078 20.2852 81.4078 41.9746C81.4078 63.6639 63.7446 81.3201 42.0466 81.3201Z" fill="#828282"/>
<path opacity="0.82" d="M41.9869 81.2305C20.2889 81.2305 2.6257 63.5743 2.6257 41.8849C2.6257 20.1956 20.2889 2.56927 41.9869 2.56927C63.6848 2.56927 81.348 20.2255 81.348 41.9148C81.348 63.6041 63.6848 81.2603 41.9869 81.2603V81.2305Z" fill="#818181"/>
<path opacity="0.83" d="M41.9271 81.1707C20.2291 81.1707 2.56595 63.5145 2.56595 41.8252C2.56595 20.1358 20.2291 2.50952 41.9271 2.50952C63.625 2.50952 81.2882 20.1657 81.2882 41.8551C81.2882 63.5444 63.625 81.2006 41.9271 81.2006V81.1707Z" fill="#808080"/>
<path opacity="0.84" d="M41.8972 81.111C20.1992 81.111 2.53604 63.4548 2.53604 41.7654C2.53604 20.0761 20.1992 2.41989 41.8972 2.41989C63.5951 2.41989 81.2583 20.0761 81.2583 41.7654C81.2583 63.4548 63.5951 81.111 41.8972 81.111Z" fill="#7F7F7F"/>
<path opacity="0.84" d="M41.8374 81.0213C20.1395 81.0213 2.47629 63.3651 2.47629 41.6758C2.47629 19.9865 20.1395 2.36014 41.8374 2.36014C63.5354 2.36014 81.1986 20.0163 81.1986 41.7057C81.1986 63.395 63.5354 81.0512 41.8374 81.0512V81.0213Z" fill="#7E7E7E"/>
<path opacity="0.85" d="M41.7777 80.9616C20.0797 80.9616 2.4165 63.3054 2.4165 41.616C2.4165 19.9267 20.0797 2.30038 41.7777 2.30038C63.4756 2.30038 81.1388 19.9566 81.1388 41.6459C81.1388 63.3353 63.4756 80.9915 41.7777 80.9915V80.9616Z" fill="#7D7D7D"/>
<path opacity="0.86" d="M41.7478 80.9018C20.0498 80.9018 2.38663 63.2456 2.38663 41.5563C2.38663 19.867 20.0498 2.21075 41.7478 2.21075C63.4457 2.21075 81.1089 19.867 81.1089 41.5563C81.1089 63.2456 63.4457 80.9018 41.7478 80.9018Z" fill="#7C7C7C"/>
<path opacity="0.86" d="M41.688 80.8122C19.99 80.8122 2.32684 63.156 2.32684 41.4667C2.32684 19.7773 19.99 2.151 41.688 2.151C63.3859 2.151 81.0491 19.8072 81.0491 41.4965C81.0491 63.1859 63.3859 80.8421 41.688 80.8421V80.8122Z" fill="#7B7B7B"/>
<path opacity="0.87" d="M41.6282 80.7525C19.9303 80.7525 2.26709 63.0963 2.26709 41.4069C2.26709 19.7176 19.9303 2.09128 41.6282 2.09128C63.3262 2.09128 80.9894 19.7475 80.9894 41.4368C80.9894 63.1262 63.3262 80.7823 41.6282 80.7823V80.7525Z" fill="#7A7A7A"/>
<path opacity="0.88" d="M41.5685 80.6927C19.8705 80.6927 2.20731 63.0365 2.20731 41.3472C2.20731 19.6578 19.8705 2.00165 41.5685 2.00165C63.2664 2.00165 80.9296 19.6578 80.9296 41.3472C80.9296 63.0365 63.2664 80.6927 41.5685 80.6927Z" fill="#797979"/>
<path opacity="0.88" d="M41.5386 80.6031C19.8406 80.6031 2.17743 62.9469 2.17743 41.2576C2.17743 19.5682 19.8406 1.94189 41.5386 1.94189C63.2365 1.94189 80.8997 19.5981 80.8997 41.2874C80.8997 62.9768 63.2365 80.633 41.5386 80.633V80.6031Z" fill="#787878"/>
<path opacity="0.89" d="M41.4788 80.5433C19.7808 80.5433 2.11765 62.8871 2.11765 41.1978C2.11765 19.5085 19.7808 1.88214 41.4788 1.88214C63.1767 1.88214 80.84 19.5383 80.84 41.2277C80.84 62.917 63.1767 80.5732 41.4788 80.5732V80.5433Z" fill="#777777"/>
<path opacity="0.9" d="M41.419 80.4836C19.7211 80.4836 2.05789 62.8274 2.05789 41.138C2.05789 19.4487 19.7211 1.79251 41.419 1.79251C63.117 1.79251 80.7802 19.4487 80.7802 41.138C80.7802 62.8274 63.117 80.4836 41.419 80.4836Z" fill="#767676"/>
<path opacity="0.9" d="M41.3592 80.394C19.6613 80.394 1.99808 62.7378 1.99808 41.0484C1.99808 19.3591 19.6613 1.73276 41.3592 1.73276C63.0572 1.73276 80.7204 19.389 80.7204 41.0783C80.7204 62.7676 63.0572 80.4238 41.3592 80.4238V80.394Z" fill="#757575"/>
<path opacity="0.91" d="M41.3294 80.3342C19.6314 80.3342 1.96823 62.678 1.96823 40.9887C1.96823 19.2993 19.6314 1.673 41.3294 1.673C63.0273 1.673 80.6905 19.3292 80.6905 41.0185C80.6905 62.7079 63.0273 80.3641 41.3294 80.3641V80.3342Z" fill="#747474"/>
<path opacity="0.92" d="M41.2696 80.2744C19.5716 80.2744 1.90845 62.6182 1.90845 40.9289C1.90845 19.2396 19.5716 1.58337 41.2696 1.58337C62.9675 1.58337 80.6308 19.2396 80.6308 40.9289C80.6308 62.6182 62.9675 80.2744 41.2696 80.2744Z" fill="#737373"/>
<path opacity="0.92" d="M41.2098 80.1848C19.5119 80.1848 1.84866 62.5286 1.84866 40.8393C1.84866 19.15 19.5119 1.52365 41.2098 1.52365C62.9077 1.52365 80.5709 19.1798 80.5709 40.8692C80.5709 62.5585 62.9077 80.2147 41.2098 80.2147V80.1848Z" fill="#727272"/>
<path opacity="0.93" d="M41.1799 80.1251C19.482 80.1251 1.81879 62.4689 1.81879 40.7796C1.81879 19.0902 19.482 1.4639 41.1799 1.4639C62.8779 1.4639 80.5411 19.1201 80.5411 40.8094C80.5411 62.4988 62.8779 80.155 41.1799 80.155V80.1251Z" fill="#717171"/>
<path opacity="0.93" d="M41.1201 80.0653C19.4222 80.0653 1.759 62.4091 1.759 40.7198C1.759 19.0305 19.4222 1.37427 41.1201 1.37427C62.8181 1.37427 80.4813 19.0305 80.4813 40.7198C80.4813 62.4091 62.8181 80.0653 41.1201 80.0653Z" fill="#707070"/>
<path opacity="0.94" d="M41.0604 79.9757C19.3624 79.9757 1.69922 62.3195 1.69922 40.6302C1.69922 18.9408 19.3624 1.31451 41.0604 1.31451C62.7583 1.31451 80.4215 18.9707 80.4215 40.66C80.4215 62.3494 62.7583 80.0056 41.0604 80.0056V79.9757Z" fill="#6F6F6F"/>
<path opacity="0.95" d="M41.0006 79.916C19.3027 79.916 1.63947 62.2598 1.63947 40.5704C1.63947 18.8811 19.3027 1.25476 41.0006 1.25476C62.6986 1.25476 80.3617 18.911 80.3617 40.6003C80.3617 62.2896 62.6986 79.9458 41.0006 79.9458V79.916Z" fill="#6E6E6E"/>
<path opacity="0.95" d="M40.9707 79.8562C19.2728 79.8562 1.60956 62.2 1.60956 40.5107C1.60956 18.8213 19.2728 1.16513 40.9707 1.16513C62.6686 1.16513 80.3318 18.8213 80.3318 40.5107C80.3318 62.2 62.6686 79.8562 40.9707 79.8562Z" fill="#6D6D6D"/>
<path opacity="0.96" d="M40.9109 79.7666C19.213 79.7666 1.54977 62.1104 1.54977 40.421C1.54977 18.7317 19.213 1.10538 40.9109 1.10538C62.6089 1.10538 80.2721 18.7616 80.2721 40.4509C80.2721 62.1403 62.6089 79.7964 40.9109 79.7964V79.7666Z" fill="#6C6C6C"/>
<path opacity="0.97" d="M40.8512 79.7068C19.1532 79.7068 1.49002 62.0506 1.49002 40.3613C1.49002 18.6719 19.1532 1.04562 40.8512 1.04562C62.5491 1.04562 80.2123 18.7018 80.2123 40.3912C80.2123 62.0805 62.5491 79.7367 40.8512 79.7367V79.7068Z" fill="#6B6B6B"/>
<path opacity="0.97" d="M40.7914 79.6471C19.0935 79.6471 1.43027 61.9909 1.43027 40.3016C1.43027 18.6122 19.0935 0.956024 40.7914 0.956024C62.4894 0.956024 80.1525 18.6122 80.1525 40.3016C80.1525 61.9909 62.4894 79.6471 40.7914 79.6471Z" fill="#6A6A6A"/>
<path opacity="0.98" d="M40.7615 79.5575C19.0636 79.5575 1.40036 61.9013 1.40036 40.2119C1.40036 18.5226 19.0636 0.896271 40.7615 0.896271C62.4594 0.896271 80.1226 18.5525 80.1226 40.2418C80.1226 61.9311 62.4594 79.5873 40.7615 79.5873V79.5575Z" fill="#696969"/>
<path opacity="0.99" d="M40.7017 79.4977C19.0038 79.4977 1.34058 61.8415 1.34058 40.1522C1.34058 18.4628 19.0038 0.836517 40.7017 0.836517C62.3997 0.836517 80.0629 18.4927 80.0629 40.1821C80.0629 61.8714 62.3997 79.5276 40.7017 79.5276V79.4977Z" fill="#686868"/>
<path opacity="0.99" d="M40.642 79.438C18.944 79.438 1.28082 61.7818 1.28082 40.0924C1.28082 18.4031 18.944 0.746887 40.642 0.746887C62.3399 0.746887 80.0031 18.4031 80.0031 40.0924C80.0031 61.7818 62.3399 79.438 40.642 79.438Z" fill="#676767"/>
<path d="M40.6121 79.3483C18.9141 79.3483 1.25092 61.6921 1.25092 40.0028C1.25092 18.3135 18.9141 0.687134 40.6121 0.687134C62.31 0.687134 79.9732 18.3433 79.9732 40.0327C79.9732 61.722 62.31 79.3782 40.6121 79.3782V79.3483Z" fill="#666666"/>
</g>
<path d="M40.5523 79.8861C18.5256 79.8861 0.593414 61.961 0.593414 39.943C0.593414 17.9251 18.4957 0 40.5523 0C62.6089 0 80.5112 17.9251 80.5112 39.943C80.5112 61.961 62.579 79.8861 40.5523 79.8861Z" fill="url(#paint0_linear_368_4105)"/>
<path d="M40.5523 71.8795C58.1973 71.8795 72.5015 57.5811 72.5015 39.943C72.5015 22.305 58.1973 8.00653 40.5523 8.00653C22.9073 8.00653 8.60312 22.305 8.60312 39.943C8.60312 57.5811 22.9073 71.8795 40.5523 71.8795Z" fill="url(#paint1_linear_368_4105)"/>
<path d="M40.5523 70.4156C57.3885 70.4156 71.037 56.7726 71.037 39.943C71.037 23.1135 57.3885 9.4704 40.5523 9.4704C23.7161 9.4704 10.0676 23.1135 10.0676 39.943C10.0676 56.7726 23.7161 70.4156 40.5523 70.4156Z" fill="#E31E25"/>
<path d="M38.52 31.8768C38.1315 31.1299 37.8924 30.2934 37.8924 29.3971C37.8924 26.3797 40.3431 23.9599 43.3318 23.9599C46.3205 23.9599 48.7712 26.4096 48.7712 29.3971C48.7712 30.4129 48.4724 31.3689 47.9643 32.2054C48.3827 32.4145 48.7413 32.6834 49.0402 33.0419C49.7276 31.9963 50.1161 30.7415 50.1161 29.3971C50.1161 25.6329 47.0677 22.5856 43.3019 22.5856C39.5361 22.5856 36.4877 25.6329 36.4877 29.3971C36.4877 30.5025 36.7865 31.5183 37.2348 32.4444C37.5935 32.1755 38.0119 31.9664 38.4602 31.8469L38.52 31.8768Z" fill="white"/>
<path d="M43.6008 30.3233C43.6008 30.3233 43.5111 30.2336 43.4812 30.2038C43.3916 30.0843 43.272 29.9946 43.1823 29.8751C43.0628 29.7556 42.9433 29.6361 42.8536 29.5166C42.7639 29.427 42.6743 29.3374 42.5846 29.2478C42.4651 29.1283 42.3455 29.0088 42.2558 28.9191C42.1363 28.7996 42.0168 28.71 41.9271 28.5905C41.9271 28.5905 41.9271 28.5905 41.8972 28.5905C41.8374 28.5606 41.8374 28.5009 41.8374 28.4113C41.8374 28.3216 41.8374 28.2021 41.8374 28.1125C41.8374 28.0527 41.8673 28.0229 41.9271 27.993C41.9271 27.993 41.957 27.993 41.9869 27.993C42.1662 27.993 42.3754 27.993 42.5547 27.993C42.734 27.993 42.9134 27.9332 43.0927 27.8735C43.1823 27.8436 43.272 27.7839 43.3318 27.6942C43.3916 27.6345 43.4214 27.5747 43.4513 27.4851C43.4513 27.4851 43.4214 27.4851 43.3915 27.4851C42.9134 27.4851 42.4352 27.4851 41.9869 27.4851C41.9271 27.4851 41.8972 27.4851 41.8673 27.4552C41.8673 27.4552 41.8673 27.4254 41.8673 27.3955C41.8673 27.276 41.8673 27.1864 41.8673 27.0669C41.8673 27.037 41.8972 26.9772 41.957 26.9772H42.0167C42.4651 26.9772 42.9134 26.9772 43.3617 26.9772H43.4214C43.4214 26.9772 43.3617 26.8876 43.3019 26.8279C43.1226 26.6785 42.9134 26.6486 42.7042 26.6187C42.4651 26.6187 42.226 26.6187 41.9869 26.6187C41.9271 26.6187 41.8972 26.6187 41.8673 26.559C41.8673 26.559 41.8673 26.5291 41.8673 26.4992C41.8673 26.3797 41.8673 26.2304 41.8673 26.1109C41.8673 26.0511 41.8972 26.0212 41.957 26.0212C41.957 26.0212 41.9869 26.0212 42.0167 26.0212C42.9731 26.0212 43.8996 26.0212 44.856 26.0212C44.9457 26.0212 44.9756 26.0511 44.9756 26.1407C44.9756 26.2304 44.9756 26.32 44.9756 26.3797C44.9756 26.4694 44.9756 26.4992 44.856 26.4992C44.6169 26.4992 44.3778 26.4992 44.1088 26.4992C44.1088 26.4992 44.0789 26.4992 44.0491 26.4992C44.1387 26.5889 44.1686 26.6785 44.2284 26.798C44.2284 26.798 44.2284 26.8577 44.2284 26.8876C44.2284 26.8876 44.2284 26.9175 44.2882 26.9175C44.4675 26.9175 44.6468 26.9175 44.8261 26.9175C44.8859 26.9175 44.9158 26.9175 44.9457 26.9772C44.9457 26.9772 44.9457 27.0071 44.9457 27.037C44.9457 27.1266 44.9457 27.2461 44.9457 27.3357C44.9457 27.3955 44.9158 27.4254 44.856 27.4254C44.856 27.4254 44.8261 27.4254 44.7962 27.4254C44.6169 27.4254 44.4675 27.4254 44.2882 27.4254C44.2583 27.4254 44.2284 27.4254 44.2284 27.4552C44.2284 27.5449 44.1686 27.6345 44.1387 27.7241C44.0789 27.8436 43.9893 27.9332 43.8996 28.0229C43.81 28.1125 43.6904 28.1722 43.6008 28.232C43.4812 28.2917 43.3318 28.3515 43.1823 28.3814C43.0628 28.3814 42.9433 28.4113 42.8237 28.4411C42.9433 28.5606 43.0628 28.6801 43.1823 28.7698C43.2421 28.8295 43.272 28.8594 43.3318 28.9191C43.4214 29.0088 43.5111 29.0984 43.6008 29.188C43.6606 29.2478 43.7203 29.3075 43.7502 29.3673C43.8399 29.4569 43.9295 29.5465 44.0192 29.6361C44.079 29.6959 44.1088 29.7556 44.1686 29.7855C44.2583 29.8751 44.3479 29.9648 44.4376 30.0544C44.4974 30.1141 44.4974 30.144 44.4376 30.2038C44.4376 30.2038 44.4077 30.2038 44.3778 30.2336H43.6306L43.6008 30.3233Z" fill="white"/>
<path d="M54.0014 57.3005H49.6379L48.4425 54.1935C46.4699 54.7611 44.4376 55.269 42.6444 55.269C40.9707 55.269 39.0281 54.791 37.5337 54.3727L36.2785 57.3304H31.7655V51.5346C29.9424 50.6383 24.8317 47.4118 23.8754 45.5894C22.9787 43.8866 22.4707 41.1679 23.1581 40.0028C23.3972 39.5845 23.7857 39.3754 24.234 39.3754C24.2639 39.3754 24.2938 39.3754 24.3237 39.3754C25.3398 39.3754 26.1169 39.2559 26.7445 39.0169C27.3124 37.8518 28.1492 36.8061 29.1355 36.0294C27.7308 33.6095 27.2825 32.4145 27.8204 31.7274C28.0894 31.3988 28.5377 31.2494 29.1952 31.2793C30.3907 31.3091 32.3334 31.9664 33.7978 33.1016L34.1266 32.9224C36.5474 31.6676 39.3867 31.0104 42.1662 31.0104C50.7139 31.0104 58.1856 36.6269 58.1856 43.0202C58.1856 45.7986 56.9901 48.4873 54.8084 50.6383L53.9417 57.3602L54.0014 57.3005ZM50.5644 55.9262H52.7761L53.5531 49.8915L53.7325 49.7122C55.7648 47.8002 56.8706 45.3803 56.8706 42.9007C56.8706 37.2244 50.0265 32.2651 42.1961 32.2651C39.7752 32.2651 37.2946 32.8328 35.1428 33.8485V36.836L33.9174 35.0136C32.7518 33.3108 29.9125 32.4444 29.0159 32.5041C29.1952 33.251 30.2413 35.0435 30.6597 35.7605L30.9885 36.2983L30.4505 36.6568C29.3447 37.4037 28.478 38.4493 27.9101 39.704L27.8204 39.943L27.5814 40.0625C26.7146 40.4509 25.7284 40.6302 24.3237 40.6302C24.0547 41.0783 24.2041 43.1994 25.1007 44.8724C25.9376 46.4558 31.7954 50.1006 32.6322 50.3396L33.1104 50.489V50.9968L33.1403 55.8963H35.4117L36.8164 52.64L37.4142 52.8192C39.6856 53.5063 41.419 53.835 42.7042 53.835C44.4974 53.835 46.6492 53.2673 48.7115 52.64L49.3092 52.4607L50.6242 55.8665L50.5644 55.9262Z" fill="white"/>
<path d="M32.961 42.6617C31.915 42.6617 31.0781 41.8252 31.0781 40.7796C31.0781 39.7339 31.915 38.8974 32.961 38.8974C34.007 38.8974 34.8439 39.7339 34.8439 40.7796C34.8439 41.8252 34.007 42.6617 32.961 42.6617Z" fill="white"/>
<path d="M55.1371 43.9463H53.7623C53.7623 39.6742 49.6379 36.1788 44.587 36.1788V34.8045C50.3851 34.8045 55.1073 38.8974 55.1073 43.9164L55.1371 43.9463Z" fill="white"/>
<defs>
<linearGradient id="paint0_linear_368_4105" x1="0.593414" y1="0" x2="80.4813" y2="0" gradientUnits="userSpaceOnUse">
<stop stop-color="#E6E6E6"/>
<stop offset="1" stop-color="white"/>
</linearGradient>
<linearGradient id="paint1_linear_368_4105" x1="8.60312" y1="2.00634e-07" x2="72.5015" y2="2.00634e-07" gradientUnits="userSpaceOnUse">
<stop stop-color="white"/>
<stop offset="1" stop-color="#F2F2F2"/>
</linearGradient>
</defs>
</svg>
